<svg width="61" height="51" viewBox="0 0 61 51" fill="none" xmlns="http://www.w3.org/2000/svg">
<path d="M35.3705 0C29.1899 0 23.9478 3.24518 21.3333 8.57589C19.9913 7.73561 18.3752 7.28571 16.6416 7.28571C12.2044 7.28571 8.81444 10.6453 8.54238 15.1928C3.09996 17.0239 0 21.323 0 27.1151C0 33.5885 5.29226 38.8571 11.7973 38.8571H13.42V36.4286H11.7973C6.63792 36.4286 2.44 32.2503 2.44 27.1151C2.44 20.3685 7.22926 18.0453 10.0841 17.2609L11.0134 17.0071L10.9633 15.7857C10.9633 12.3238 13.4049 9.71429 16.6416 9.71429C18.3593 9.71429 19.894 10.3023 20.964 11.3697L22.3103 12.7121L22.9727 10.9333C24.9223 5.68882 29.6731 2.42857 35.3705 2.42857C42.9003 2.42857 48.8 8.296 48.8 15.7857C48.8 16.2896 48.7625 16.8225 48.6832 17.4625L48.5855 18.8238H49.9652C54.4633 18.8238 58.56 23.2203 58.56 28.0495C58.56 31.5139 56.4687 34.5738 53.232 35.8451C52.2475 36.2325 51.2066 36.4286 50.1391 36.4286H47.58V38.8571H50.1391C51.5141 38.8571 52.8567 38.6056 54.128 38.1053C58.3028 36.466 61 32.5181 61 28.0495C61 22.3072 56.5889 17.2175 51.2209 16.4877C51.2331 16.2473 51.24 16.014 51.24 15.7857C51.24 6.93357 44.2691 0 35.3705 0ZM30.4809 20.6263C30.1578 20.6313 29.8498 20.7637 29.6247 20.9945C29.3995 21.2252 29.2756 21.5355 29.28 21.8571V41.5324C28.3088 41.7681 27.4324 42.1714 26.8424 42.832C26.0088 43.7654 25.62 44.9623 25.62 46.1429C25.62 47.3234 26.0088 48.5203 26.8424 49.4537C27.676 50.3871 28.975 51 30.5 51C32.025 51 33.324 50.3871 34.1576 49.4537C34.9912 48.5203 35.38 47.3234 35.38 46.1429C35.38 44.9623 34.9912 43.7654 34.1576 42.832C33.5676 42.1714 32.6912 41.7681 31.72 41.5324V21.8571C31.7222 21.6947 31.6917 21.5334 31.6302 21.3829C31.5687 21.2324 31.4775 21.0957 31.3619 20.981C31.2464 20.8662 31.1089 20.7757 30.9576 20.7147C30.8062 20.6538 30.6442 20.6237 30.4809 20.6263ZM23.1657 20.6286C22.9883 20.6325 22.8139 20.6748 22.6547 20.7526C22.4954 20.8305 22.3551 20.9419 22.2436 21.0792L18.1213 26.0004C16.6602 27.746 15.86 29.9473 15.86 32.2189V41.5324C14.8888 41.7681 14.0124 42.1714 13.4224 42.832C12.5888 43.7654 12.2 44.9623 12.2 46.1429C12.2 47.3234 12.5888 48.5203 13.4224 49.4537C14.256 50.3871 15.555 51 17.08 51C18.605 51 19.904 50.3871 20.7376 49.4537C21.5712 48.5203 21.96 47.3234 21.96 46.1429C21.96 44.9623 21.5712 43.7654 20.7376 42.832C20.1476 42.1714 19.2712 41.7681 18.3 41.5324V32.2189C18.3 30.515 18.9005 28.8657 19.9966 27.5562L24.1164 22.635C24.2703 22.4572 24.369 22.2388 24.4008 22.0062C24.4325 21.7737 24.3959 21.537 24.2953 21.3247C24.1947 21.1125 24.0345 20.9338 23.834 20.8102C23.6336 20.6867 23.4014 20.6236 23.1657 20.6286ZM37.7962 20.6286C37.5637 20.631 37.3367 20.6993 37.142 20.8258C36.9472 20.9522 36.7928 21.1313 36.6969 21.3421C36.601 21.5529 36.5676 21.7866 36.6007 22.0157C36.6338 22.2447 36.7319 22.4596 36.8836 22.635L41.0034 27.5562C42.0997 28.8659 42.7 30.5136 42.7 32.2189V41.5324C41.7288 41.7681 40.8524 42.1714 40.2624 42.832C39.4288 43.7654 39.04 44.9623 39.04 46.1429C39.04 47.3234 39.4288 48.5203 40.2624 49.4537C41.096 50.3871 42.395 51 43.92 51C45.445 51 46.744 50.3871 47.5776 49.4537C48.4112 48.5203 48.8 47.3234 48.8 46.1429C48.8 44.9623 48.4112 43.7654 47.5776 42.832C46.9876 42.1714 46.1112 41.7681 45.14 41.5324V32.2189C45.14 29.9462 44.3396 27.7458 42.8787 26.0004L38.7564 21.0792C38.6408 20.937 38.4944 20.8226 38.3281 20.7445C38.1618 20.6665 37.98 20.6269 37.7962 20.6286ZM17.0443 43.7285C17.0689 43.73 17.0935 43.7308 17.1181 43.7309C17.9981 43.7431 18.5341 44.0212 18.9124 44.4448C19.2988 44.8774 19.52 45.502 19.52 46.1429C19.52 46.7837 19.2988 47.4083 18.9124 47.841C18.526 48.2736 17.995 48.5714 17.08 48.5714C16.165 48.5714 15.634 48.2736 15.2476 47.841C14.8612 47.4083 14.64 46.7837 14.64 46.1429C14.64 45.502 14.8612 44.8774 15.2476 44.4448C15.6265 44.0205 16.1617 43.7399 17.0443 43.7285ZM30.4643 43.7285C30.4889 43.73 30.5135 43.7308 30.5381 43.7309C31.4181 43.7431 31.9541 44.0212 32.3324 44.4448C32.7188 44.8774 32.94 45.502 32.94 46.1429C32.94 46.7837 32.7188 47.4083 32.3324 47.841C31.946 48.2736 31.415 48.5714 30.5 48.5714C29.585 48.5714 29.054 48.2736 28.6676 47.841C28.2812 47.4083 28.06 46.7837 28.06 46.1429C28.06 45.502 28.2812 44.8774 28.6676 44.4448C29.0465 44.0205 29.5817 43.7399 30.4643 43.7285ZM43.8843 43.7285C43.9089 43.73 43.9335 43.7308 43.9581 43.7309C44.8381 43.7431 45.3741 44.0212 45.7524 44.4448C46.1388 44.8774 46.36 45.502 46.36 46.1429C46.36 46.7837 46.1388 47.4083 45.7524 47.841C45.366 48.2736 44.835 48.5714 43.92 48.5714C43.005 48.5714 42.474 48.2736 42.0876 47.841C41.7012 47.4083 41.48 46.7837 41.48 46.1429C41.48 45.502 41.7012 44.8774 42.0876 44.4448C42.4665 44.0205 43.0017 43.7399 43.8843 43.7285Z" fill="black"/>
</svg>
