<svg width="64" height="48" viewBox="0 0 64 48" fill="none" xmlns="http://www.w3.org/2000/svg">
<path d="M34.3198 0C28.6152 0 24.4455 2.22533 22.2406 5.52632C21.7857 6.2023 21.4457 6.91283 21.1607 7.65789L20.8407 7.02632C20.6307 6.60197 20.2008 6.32566 19.7208 6.31579C15.2911 6.31579 11.9813 8.0921 10.2414 10.7368C8.65152 13.1497 8.55652 16.1842 9.56146 19.0263C9.48146 19.1546 9.31147 19.2237 9.24148 19.3816C9.00149 19.9095 8.8715 20.5757 8.9615 21.3553C8.9615 21.3701 8.9615 21.3799 8.9615 21.3947C9.10649 22.5444 9.40147 23.3684 9.88144 24C10.0864 24.2664 10.4114 24.2664 10.6814 24.4342C10.8714 25.3717 11.1414 26.3043 11.5213 27.0789C11.7463 27.5428 11.9863 27.9424 12.2413 28.3026C12.3263 28.426 12.4713 28.5099 12.5613 28.6184C12.5613 29.5855 12.5263 30.4539 12.4413 31.5789C12.2113 32.1562 11.6513 32.6645 10.6014 33.1974C9.52646 33.7401 8.08655 34.2434 6.60165 34.8947C5.11675 35.5461 3.53185 36.3355 2.28193 37.6184C1.03201 38.9013 0.147069 40.6974 0.00207878 42.9868C-0.0179199 43.3372 0.107072 43.6776 0.347056 43.9293C0.592041 44.1859 0.927018 44.3289 1.282 44.3289H9.24148C9.04649 45.0493 8.8915 45.824 8.8415 46.6579C8.82151 47.0082 8.9465 47.3487 9.18648 47.6003C9.43147 47.8569 9.76644 48 10.1214 48H53.8786C54.2336 48 54.5685 47.8569 54.8135 47.6003C55.0535 47.3487 55.1785 47.0082 55.1585 46.6579C55.1035 45.7747 54.9335 44.9704 54.7185 44.2105H62.718C63.073 44.2105 63.408 44.0674 63.6529 43.8109C63.8929 43.5592 64.0179 43.2188 63.9979 42.8684C63.8529 40.5839 62.958 38.7829 61.7181 37.5C60.4781 36.2171 58.9482 35.4276 57.4783 34.7763C56.0084 34.125 54.5835 33.6217 53.5186 33.0789C52.5037 32.5609 51.9637 32.028 51.7187 31.4605C51.6337 30.4391 51.5987 29.5312 51.5987 28.5C51.6837 28.3914 51.8337 28.3026 51.9187 28.1842C52.1737 27.8289 52.3787 27.4194 52.5987 26.9605C52.9536 26.2155 53.2136 25.3273 53.3586 24.4342C53.6186 24.2714 53.9236 24.2566 54.1186 24C54.5985 23.3684 54.8935 22.5444 55.0385 21.3947C55.1285 20.699 55.0485 20.0477 54.8385 19.5C54.7785 19.347 54.5585 19.2533 54.4785 19.1053C54.7585 18.4589 55.0785 17.847 55.1585 17.0526C55.2735 15.8734 55.1785 14.551 54.8385 13.2632C54.4985 11.9753 53.9086 10.6974 52.8786 9.71053C52.0487 8.91118 50.8788 8.44243 49.5589 8.25L49.0389 7.06579C48.8339 6.61184 48.3789 6.32072 47.879 6.31579C46.1091 6.31579 44.2242 6.48849 42.4793 7.02632C42.0243 6.02961 41.4244 5.08224 40.5994 4.30263C39.5045 3.26151 37.9646 2.6398 36.1997 2.44737L35.4798 0.75C35.2748 0.296053 34.8198 0.00493389 34.3198 0ZM33.4799 2.60526L34.1599 4.06579C34.3648 4.51974 34.8198 4.81086 35.3198 4.81579C36.9097 4.81579 37.9896 5.31414 38.8396 6.11842C39.6895 6.9227 40.2945 8.06743 40.6394 9.35526C40.9844 10.6431 41.0794 12.0493 40.9594 13.2237C40.8394 14.398 40.4345 15.3454 40.1995 15.6316C39.9545 15.9375 39.8695 16.3372 39.9595 16.7122C40.0545 17.0921 40.3195 17.4079 40.6794 17.5658C40.6594 17.5559 40.6794 17.5559 40.7194 17.6447C40.7894 17.8076 40.8644 18.1727 40.8394 18.6316C40.8344 18.6711 40.8444 18.6711 40.8394 18.7105C40.6644 19.7566 40.3645 20.3783 40.1595 20.6447C40.0545 20.7829 39.9795 20.8273 39.9595 20.8421C39.3545 20.8914 38.8746 21.3553 38.7996 21.9474C38.6946 22.8898 38.3246 24.1184 37.8796 25.0658C37.6596 25.5395 37.3946 25.9391 37.1997 26.2105C37.0497 26.4128 36.8997 26.5263 36.9197 26.5263C36.4897 26.7484 36.2297 27.1924 36.2397 27.6711C36.2397 29.3141 36.2297 30.6316 36.3597 32.5658C36.3697 32.6891 36.3947 32.8076 36.4397 32.9211C37.1247 34.6974 38.6696 35.7681 40.3595 36.5921C42.0493 37.4161 43.9592 38.0329 45.7591 38.8026C47.559 39.5724 49.2339 40.5 50.4388 41.7237C51.3737 42.6711 51.9437 43.9243 52.2787 45.4737H11.7213C12.0563 43.9243 12.6263 42.6711 13.5612 41.7237C14.7661 40.5 16.441 39.5724 18.2409 38.8026C20.0408 38.0329 21.9507 37.4161 23.6405 36.5921C25.3304 35.7681 26.8753 34.6974 27.5603 32.9211C27.6053 32.8076 27.6303 32.6891 27.6403 32.5658C27.7703 30.75 27.7603 29.3141 27.7603 27.6711C27.7703 27.1924 27.5103 26.7484 27.0803 26.5263C27.0803 26.5263 27.0703 26.5115 27.0403 26.4868C27.0303 26.4819 27.0153 26.4918 27.0003 26.4868C26.9403 26.4375 26.8553 26.3339 26.7603 26.2105C26.5554 25.9441 26.2754 25.5296 26.0404 25.0658C25.5704 24.1431 25.1854 22.9737 25.0804 21.9868C25.0205 21.4342 24.5955 20.9852 24.0405 20.8816C23.9155 20.8569 23.2606 20.8865 23.0406 18.7105C22.9506 17.7385 23.4156 17.4523 23.3606 17.4868C23.8955 17.1513 24.1005 16.4803 23.8405 15.9079C23.0206 14.0477 22.7606 12.1283 23.0406 10.3421C23.3306 10.0214 23.4406 9.57237 23.3206 9.15789C23.5605 8.37335 23.9005 7.63816 24.3605 6.94737C25.9554 4.56414 28.9552 2.81743 33.4799 2.60526ZM47.079 8.96053L47.479 9.82895C47.669 10.2977 48.129 10.6086 48.6389 10.6184C49.7788 10.6184 50.4888 10.9589 51.0788 11.5263C51.6687 12.0938 52.1037 12.9375 52.3587 13.8947C52.6137 14.852 52.6837 15.8931 52.5987 16.7763C52.5137 17.6595 52.2087 18.3799 52.0787 18.5526C51.8537 18.8388 51.7687 19.2039 51.8387 19.5592C51.9037 19.9145 52.1237 20.2253 52.4387 20.4079C52.4837 20.5214 52.5187 20.7681 52.4787 21.0789C52.3687 21.9474 52.1737 22.3717 52.0787 22.5C51.4787 22.574 51.0088 23.0477 50.9588 23.6447C50.9138 24.2961 50.6088 25.2039 50.2788 25.8947C50.1138 26.2401 49.9438 26.5164 49.7988 26.7237C49.6889 26.8766 49.5889 26.9951 49.5989 27C49.2539 27.2319 49.0439 27.6168 49.0389 28.0263C49.0389 29.4178 49.0239 30.4885 49.1589 31.9342C49.1739 32.0428 49.1989 32.1464 49.2389 32.25C49.7838 33.7352 51.0138 34.6628 52.3187 35.3289C53.6236 35.9951 55.0935 36.4688 56.4384 37.0658C57.7833 37.6628 59.0032 38.3684 59.8782 39.2763C60.4881 39.9079 60.8931 40.7072 61.1581 41.6842H53.7586C53.7186 41.6842 53.6786 41.6842 53.6386 41.6842C53.2386 41.0378 52.7886 40.4655 52.2787 39.9474C50.6988 38.3438 48.7289 37.3372 46.799 36.5132C44.8692 35.6891 42.9693 35.0526 41.5194 34.3421C40.1195 33.6562 39.2845 32.926 38.9195 32.0921C38.8246 30.5773 38.7996 29.4424 38.7996 28.1053C38.9345 27.9523 39.1545 27.8388 39.2795 27.6711C39.6045 27.222 39.9245 26.7188 40.1995 26.1316C40.6794 25.1053 40.9644 23.9112 41.1594 22.7368C41.5094 22.5296 41.9294 22.5395 42.1993 22.1842C42.7593 21.449 43.1443 20.4326 43.3593 19.0263C43.3743 19.0016 43.3893 18.972 43.3993 18.9474C43.4793 18.0789 43.3543 17.3043 43.0793 16.6579C43.0093 16.4951 42.7743 16.4556 42.6793 16.3026C43.0943 15.4737 43.3693 14.5411 43.4793 13.4605C43.6092 12.1974 43.5642 10.8207 43.2793 9.43421C44.4292 9.12335 45.7791 9.00987 47.079 8.96053ZM19.0008 9L19.4808 9.90789C19.6608 10.2878 20.0208 10.5543 20.4408 10.6184C20.2708 12.4539 20.5607 14.3586 21.2407 16.1842C20.7557 16.8405 20.3658 17.7188 20.4807 18.9474C20.7057 21.153 21.7057 22.199 22.6806 22.7763C22.8856 23.9852 23.2556 25.2089 23.7605 26.2105C24.0555 26.7928 24.3805 27.3109 24.7205 27.75C24.8455 27.9128 25.0654 28.0016 25.2004 28.1447C25.2004 29.4819 25.1754 30.6809 25.0804 32.0921C24.7155 32.926 23.8805 33.6562 22.4806 34.3421C21.0307 35.0526 19.1308 35.6891 17.201 36.5132C15.2711 37.3372 13.3012 38.3438 11.7213 39.9474C11.1814 40.4951 10.6964 41.1069 10.2814 41.8026C10.2664 41.8026 10.2564 41.8026 10.2414 41.8026H2.88189C3.15187 40.8257 3.54685 40.0263 4.16181 39.3947C5.04675 38.4868 6.28167 37.7812 7.64158 37.1842C9.00149 36.5872 10.4464 36.1135 11.7613 35.4474C13.0762 34.7812 14.3311 33.898 14.8811 32.4079C14.9261 32.2944 14.9511 32.176 14.9611 32.0526C15.0911 30.4885 15.1211 29.4474 15.1211 28.1842C15.1311 27.7352 14.9061 27.3158 14.5211 27.0789C14.4811 27.0345 14.3961 26.9457 14.3211 26.8421C14.1712 26.6299 13.9762 26.3339 13.8012 25.9737C13.4512 25.2582 13.1462 24.3306 13.0412 23.5658C12.9562 23.0033 12.4963 22.5641 11.9213 22.5C11.8263 22.3717 11.6313 21.9474 11.5213 21.0789C11.4813 20.7188 11.5513 20.5115 11.6013 20.4079C12.1213 20.0576 12.3063 19.3914 12.0413 18.8289C10.9814 16.4605 11.1664 13.9934 12.4013 12.1184C13.5362 10.3914 15.7411 9.19737 19.0008 9Z" fill="black"/>
</svg>
