<svg width="62" height="61" viewBox="0 0 62 61" fill="none" xmlns="http://www.w3.org/2000/svg">
<mask id="path-1-inside-1" fill="white">
<path d="M39.4646 0V1.4186V25.5349H49.3238V35.4651H39.4646V36.8837V61H62V35.4651H52.1407V25.5349H62V0H39.4646ZM42.2815 2.83721H59.1831V5.67442H42.2815V2.83721ZM21.8587 5.67442C17.7742 5.75953 14.7613 7.0518 12.888 9.52017C10.6204 12.4851 10.1391 17.0243 11.463 23.0108C10.8997 23.7201 10.5757 24.782 10.7588 25.9311C10.9842 28.513 11.9573 29.6218 12.8165 30.0899C13.1827 31.9199 14.1256 34.0753 15.196 35.2102V39.1668C14.534 40.6847 12.4493 41.5648 10.0408 42.572C5.80134 44.3594 0.519152 46.5862 0.0825273 53.8211L0 55.3256H36.6476V52.4884H3.09752C3.98486 48.2042 7.46542 46.7421 11.1274 45.1959C14.1275 43.9191 16.9723 42.7296 17.9442 39.9066L18.013 39.6794V34.5425L18.0707 33.7057L17.295 33.3095C16.8583 32.969 15.6484 30.8396 15.4794 28.8819L15.4656 27.6074H14.1837C14.0569 27.5506 13.6887 27.0515 13.562 25.5903C13.5479 25.491 13.5345 25.3928 13.5345 25.3077C13.5345 24.953 13.661 24.7681 13.661 24.7397L14.6486 24.2437L14.379 23.1382C13.0691 17.7191 13.3247 13.604 15.1135 11.2491C16.4515 9.50421 18.7313 8.58256 21.8862 8.51163C23.0271 8.51163 25.0419 8.69605 25.732 9.93023L26.0704 10.5259L26.7471 10.6257C28.1415 10.8243 29.1114 11.4351 29.7593 12.4848C31.4777 15.322 30.4356 20.6272 29.6328 23.0246L29.1679 24.144L30.2545 24.6981C30.2545 24.6981 30.5353 24.9662 30.4086 25.7039C30.2959 27.0516 29.9302 27.5482 29.9161 27.5908H28.6342L28.5077 28.8819C28.3387 30.8396 27.1274 32.9697 26.7471 33.2818L25.9713 33.6642V34.5425C25.9713 35.0957 25.9442 35.6059 25.9301 36.1024C25.8737 37.138 25.8302 38.2174 25.9851 39.5935L26.0566 39.9066C27.0285 42.7296 29.9567 44.0195 32.8018 45.2679C34.154 45.8495 35.4786 46.4313 36.6476 47.1548V43.9352C35.7321 43.4529 34.803 43.0551 33.9297 42.6579C31.5072 41.5939 29.3946 40.6718 28.7608 39.1114C28.6622 38.0332 28.7048 37.1519 28.747 36.2298C28.7611 35.9036 28.7745 35.5649 28.7745 35.2102C29.859 34.0895 30.8013 31.9341 31.1816 30.0899C32.0266 29.636 33.0005 28.5556 33.2117 26.0447C33.4089 24.8531 33.0977 23.7897 32.5625 23.0662C33.2104 20.7822 34.5075 14.8528 32.1554 10.9942C31.1695 9.39116 29.7052 8.35536 27.7897 7.92978C27.3531 7.36234 26.6898 6.79512 25.732 6.38372C24.7883 5.95814 23.5207 5.67442 21.8587 5.67442ZM42.2815 8.51163H59.1831V11.3488H42.2815V8.51163ZM42.2815 14.186H59.1831V22.6977H42.2815V14.186ZM50.7323 17.0233C50.3587 17.0233 50.0005 17.1727 49.7363 17.4388C49.4722 17.7048 49.3238 18.0656 49.3238 18.4419C49.3238 18.8181 49.4722 19.1789 49.7363 19.445C50.0005 19.711 50.3587 19.8605 50.7323 19.8605C51.1058 19.8605 51.4641 19.711 51.7282 19.445C51.9924 19.1789 52.1407 18.8181 52.1407 18.4419C52.1407 18.0656 51.9924 17.7048 51.7282 17.4388C51.4641 17.1727 51.1058 17.0233 50.7323 17.0233ZM42.2815 38.3023H59.1831V41.1395H42.2815V38.3023ZM42.2815 43.9767H59.1831V46.814H42.2815V43.9767ZM42.2815 49.6512H59.1831V58.1628H42.2815V49.6512ZM50.7323 52.4884C50.3587 52.4884 50.0005 52.6378 49.7363 52.9039C49.4722 53.1699 49.3238 53.5307 49.3238 53.907C49.3238 54.2832 49.4722 54.644 49.7363 54.9101C50.0005 55.1761 50.3587 55.3256 50.7323 55.3256C51.1058 55.3256 51.4641 55.1761 51.7282 54.9101C51.9924 54.644 52.1407 54.2832 52.1407 53.907C52.1407 53.5307 51.9924 53.1699 51.7282 52.9039C51.4641 52.6378 51.1058 52.4884 50.7323 52.4884Z"/>
</mask>
<path d="M39.4646 0V1.4186V25.5349H49.3238V35.4651H39.4646V36.8837V61H62V35.4651H52.1407V25.5349H62V0H39.4646ZM42.2815 2.83721H59.1831V5.67442H42.2815V2.83721ZM21.8587 5.67442C17.7742 5.75953 14.7613 7.0518 12.888 9.52017C10.6204 12.4851 10.1391 17.0243 11.463 23.0108C10.8997 23.7201 10.5757 24.782 10.7588 25.9311C10.9842 28.513 11.9573 29.6218 12.8165 30.0899C13.1827 31.9199 14.1256 34.0753 15.196 35.2102V39.1668C14.534 40.6847 12.4493 41.5648 10.0408 42.572C5.80134 44.3594 0.519152 46.5862 0.0825273 53.8211L0 55.3256H36.6476V52.4884H3.09752C3.98486 48.2042 7.46542 46.7421 11.1274 45.1959C14.1275 43.9191 16.9723 42.7296 17.9442 39.9066L18.013 39.6794V34.5425L18.0707 33.7057L17.295 33.3095C16.8583 32.969 15.6484 30.8396 15.4794 28.8819L15.4656 27.6074H14.1837C14.0569 27.5506 13.6887 27.0515 13.562 25.5903C13.5479 25.491 13.5345 25.3928 13.5345 25.3077C13.5345 24.953 13.661 24.7681 13.661 24.7397L14.6486 24.2437L14.379 23.1382C13.0691 17.7191 13.3247 13.604 15.1135 11.2491C16.4515 9.50421 18.7313 8.58256 21.8862 8.51163C23.0271 8.51163 25.0419 8.69605 25.732 9.93023L26.0704 10.5259L26.7471 10.6257C28.1415 10.8243 29.1114 11.4351 29.7593 12.4848C31.4777 15.322 30.4356 20.6272 29.6328 23.0246L29.1679 24.144L30.2545 24.6981C30.2545 24.6981 30.5353 24.9662 30.4086 25.7039C30.2959 27.0516 29.9302 27.5482 29.9161 27.5908H28.6342L28.5077 28.8819C28.3387 30.8396 27.1274 32.9697 26.7471 33.2818L25.9713 33.6642V34.5425C25.9713 35.0957 25.9442 35.6059 25.9301 36.1024C25.8737 37.138 25.8302 38.2174 25.9851 39.5935L26.0566 39.9066C27.0285 42.7296 29.9567 44.0195 32.8018 45.2679C34.154 45.8495 35.4786 46.4313 36.6476 47.1548V43.9352C35.7321 43.4529 34.803 43.0551 33.9297 42.6579C31.5072 41.5939 29.3946 40.6718 28.7608 39.1114C28.6622 38.0332 28.7048 37.1519 28.747 36.2298C28.7611 35.9036 28.7745 35.5649 28.7745 35.2102C29.859 34.0895 30.8013 31.9341 31.1816 30.0899C32.0266 29.636 33.0005 28.5556 33.2117 26.0447C33.4089 24.8531 33.0977 23.7897 32.5625 23.0662C33.2104 20.7822 34.5075 14.8528 32.1554 10.9942C31.1695 9.39116 29.7052 8.35536 27.7897 7.92978C27.3531 7.36234 26.6898 6.79512 25.732 6.38372C24.7883 5.95814 23.5207 5.67442 21.8587 5.67442ZM42.2815 8.51163H59.1831V11.3488H42.2815V8.51163ZM42.2815 14.186H59.1831V22.6977H42.2815V14.186ZM50.7323 17.0233C50.3587 17.0233 50.0005 17.1727 49.7363 17.4388C49.4722 17.7048 49.3238 18.0656 49.3238 18.4419C49.3238 18.8181 49.4722 19.1789 49.7363 19.445C50.0005 19.711 50.3587 19.8605 50.7323 19.8605C51.1058 19.8605 51.4641 19.711 51.7282 19.445C51.9924 19.1789 52.1407 18.8181 52.1407 18.4419C52.1407 18.0656 51.9924 17.7048 51.7282 17.4388C51.4641 17.1727 51.1058 17.0233 50.7323 17.0233ZM42.2815 38.3023H59.1831V41.1395H42.2815V38.3023ZM42.2815 43.9767H59.1831V46.814H42.2815V43.9767ZM42.2815 49.6512H59.1831V58.1628H42.2815V49.6512ZM50.7323 52.4884C50.3587 52.4884 50.0005 52.6378 49.7363 52.9039C49.4722 53.1699 49.3238 53.5307 49.3238 53.907C49.3238 54.2832 49.4722 54.644 49.7363 54.9101C50.0005 55.1761 50.3587 55.3256 50.7323 55.3256C51.1058 55.3256 51.4641 55.1761 51.7282 54.9101C51.9924 54.644 52.1407 54.2832 52.1407 53.907C52.1407 53.5307 51.9924 53.1699 51.7282 52.9039C51.4641 52.6378 51.1058 52.4884 50.7323 52.4884Z" fill="black" stroke="white" stroke-width="0.6" mask="url(#path-1-inside-1)"/>
</svg>
