<svg width="53" height="53" viewBox="0 0 53 53" fill="none" xmlns="http://www.w3.org/2000/svg">
<path d="M6.30952 0C2.8399 0 0 2.8399 0 6.30952V46.6905C0 50.1601 2.8399 53 6.30952 53H46.6905C50.1601 53 53 50.1601 53 46.6905V6.30952C53 2.8399 50.1601 0 46.6905 0H6.30952ZM6.30952 2.52381H46.6905C48.7959 2.52381 50.4762 4.20406 50.4762 6.30952V46.6905C50.4762 48.7959 48.7959 50.4762 46.6905 50.4762H6.30952C4.20406 50.4762 2.52381 48.7959 2.52381 46.6905V6.30952C2.52381 4.20406 4.20406 2.52381 6.30952 2.52381ZM26.5 6.30952C23.7272 6.30952 21.4524 8.58437 21.4524 11.3571C21.4524 13.692 23.0729 15.6547 25.2381 16.2224V21.5805C23.4362 21.9504 21.9315 23.109 21.0432 24.6614L16.3727 23.1431C16.5638 20.8637 15.1799 18.6482 12.9173 17.9131C12.2582 17.699 11.5834 17.6313 10.9308 17.6888C8.97281 17.8616 7.20085 19.1768 6.55845 21.1542C5.70193 23.7906 7.16305 26.654 9.79948 27.5105C11.9757 28.2175 14.2881 27.33 15.5175 25.5215L20.2324 27.0521C20.2059 27.2853 20.1905 27.5219 20.1905 27.7619C20.1905 29.3946 20.8341 30.8752 21.8615 31.9986L18.2557 36.96C17.7153 36.7477 17.1519 36.6237 16.5847 36.6051C14.9629 36.5518 13.3395 37.2734 12.3208 38.6754C10.691 40.9186 11.1941 44.097 13.4373 45.7268C15.6805 47.3566 18.8564 46.8535 20.4862 44.6103C21.8562 42.7247 21.7024 40.188 20.2915 38.4561L23.8973 33.4898C24.6938 33.8548 25.5707 34.0714 26.5 34.0714C27.4293 34.0714 28.3062 33.8548 29.1027 33.4898L32.7085 38.4536C31.2956 40.1851 31.1405 42.7213 32.5113 44.6078C34.1412 46.851 37.3195 47.3542 39.5627 45.7243C41.8059 44.0945 42.309 40.9186 40.6792 38.6754C39.6605 37.2734 38.0371 36.5493 36.4153 36.6026C35.8489 36.6213 35.2848 36.7475 34.7443 36.96L31.1385 31.9986C32.1659 30.8752 32.8095 29.3946 32.8095 27.7619C32.8095 27.5219 32.7941 27.2853 32.7676 27.0521L37.48 25.5215C38.7087 27.3326 41.0252 28.2205 43.203 27.513C45.8394 26.6564 47.2981 23.7931 46.4415 21.1566C45.7991 19.1793 44.0272 17.864 42.0692 17.6913C41.4166 17.6337 40.7443 17.7015 40.0852 17.9156C37.8234 18.6504 36.4374 20.8645 36.6273 23.1431L31.9568 24.6614C31.0685 23.109 29.5638 21.9504 27.7619 21.5805V16.2224C29.9271 15.6547 31.5476 13.692 31.5476 11.3571C31.5476 8.58437 29.2728 6.30952 26.5 6.30952ZM26.5 8.83333C27.9088 8.83333 29.0238 9.94833 29.0238 11.3571C29.0238 12.766 27.9088 13.881 26.5 13.881C25.0912 13.881 23.9762 12.766 23.9762 11.3571C23.9762 9.94833 25.0912 8.83333 26.5 8.83333ZM11.1353 20.1954C11.462 20.1687 11.8012 20.2049 12.136 20.3137C13.4752 20.7488 14.1903 22.1514 13.7553 23.4907C13.3202 24.8299 11.9175 25.545 10.5783 25.1099C9.2391 24.6748 8.52395 23.2722 8.95903 21.933C9.28534 20.9286 10.1554 20.2757 11.1353 20.1954ZM41.8647 20.1979C42.8446 20.2781 43.7147 20.931 44.041 21.9355C44.4761 23.2747 43.7609 24.6773 42.4217 25.1124C41.0825 25.5475 39.6798 24.8323 39.2447 23.4931C38.8097 22.1539 39.5248 20.7513 40.864 20.3162C41.1988 20.2074 41.538 20.1711 41.8647 20.1979ZM26.5 23.9762C28.6057 23.9762 30.2857 25.6562 30.2857 27.7619C30.2857 29.8676 28.6057 31.5476 26.5 31.5476C24.3943 31.5476 22.7143 29.8676 22.7143 27.7619C22.7143 25.6562 24.3943 23.9762 26.5 23.9762ZM36.509 39.1117C37.3163 39.0819 38.1184 39.4443 38.636 40.1567C39.4641 41.2964 39.2187 42.8555 38.079 43.6836C36.9392 44.5117 35.3802 44.2638 34.552 43.1241C33.7239 41.9844 33.9718 40.4278 35.1115 39.5997C35.5389 39.2891 36.0246 39.1295 36.509 39.1117ZM16.4886 39.1141C16.973 39.132 17.4586 39.2916 17.886 39.6021C19.0258 40.4302 19.2736 41.9868 18.4455 43.1266C17.6174 44.2663 16.0608 44.5142 14.921 43.6861C13.7813 42.858 13.5335 41.2989 14.3616 40.1591C14.8791 39.4468 15.6812 39.0844 16.4886 39.1141Z" fill="black"/>
</svg>
