<svg width="51" height="51" viewBox="0 0 51 51" fill="none" xmlns="http://www.w3.org/2000/svg">
<path d="M23.9618 3.61341e-05C23.4246 -0.00429514 22.9611 0.381213 22.8658 0.909663L22.2593 4.22763C21.7395 4.39656 21.237 4.60015 20.7431 4.84271L18.0182 2.87619C17.5807 2.55998 16.9742 2.6033 16.593 2.98881L14.2234 5.31918C13.8421 5.70036 13.7858 6.29811 14.0934 6.73993L16.0082 9.51213C15.7569 10.0016 15.5446 10.5041 15.3757 11.0195L12.053 11.5566C11.5202 11.6389 11.1259 12.0981 11.1216 12.6438L11.1 15.9705C11.0956 16.5076 11.4812 16.9711 12.0097 17.0664L15.341 17.6728C15.5057 18.1882 15.7136 18.6864 15.9562 19.1758L13.9764 21.9134C13.6602 22.3508 13.7035 22.9573 14.0847 23.3428L16.424 25.7078C16.8009 26.089 17.3988 26.1453 17.8406 25.8377L20.6478 23.9059C21.133 24.1528 21.6312 24.3564 22.1424 24.5253L22.7142 27.8866C22.8052 28.4193 23.26 28.8092 23.8015 28.8135L27.1242 28.8308C27.6701 28.8352 28.1336 28.441 28.2246 27.9082L28.7921 24.5513C29.2989 24.3867 29.7928 24.1874 30.2736 23.9449L33.0591 25.9244C33.501 26.2362 34.0988 26.1843 34.4801 25.8074L36.8497 23.4727C37.2352 23.0915 37.2872 22.4851 36.971 22.039L34.9956 19.2668C35.2425 18.786 35.4504 18.2965 35.6194 17.7941L38.9941 17.2223C39.5226 17.1313 39.9125 16.6722 39.9168 16.1307L39.9341 12.8084C39.9384 12.267 39.5486 11.8035 39.0114 11.7126L35.667 11.1451C35.5024 10.634 35.2988 10.1359 35.0605 9.6464L37.0273 6.86988C37.3435 6.43239 37.2959 5.83464 36.9147 5.44913L34.5754 3.0841C34.1941 2.70292 33.5877 2.64662 33.1458 2.96282L30.3993 4.91202C29.9141 4.66512 29.4202 4.4572 28.9134 4.28827L28.3762 0.952978C28.2895 0.415865 27.8303 0.0216936 27.2845 0.0173623L23.9618 3.61341e-05ZM24.8802 2.22212L26.3358 2.23079L26.8166 5.22822C26.886 5.66571 27.2109 6.01656 27.6354 6.12485C28.4498 6.33277 29.2339 6.6663 29.9704 7.11245C30.3473 7.34635 30.8281 7.32902 31.1877 7.07346L33.6613 5.31918L34.6837 6.35009L32.9032 8.84507C32.6519 9.20459 32.6303 9.67672 32.8555 10.0536C33.2931 10.7943 33.6136 11.5826 33.8043 12.3926C33.9082 12.8258 34.2591 13.155 34.701 13.2329L37.7118 13.7397L37.7031 15.1908L34.662 15.7019C34.2288 15.7756 33.8779 16.1004 33.7696 16.5249C33.566 17.3306 33.2411 18.1103 32.7949 18.838C32.5653 19.2191 32.5826 19.6999 32.8425 20.0595L34.6143 22.5588L33.5877 23.5767L31.0707 21.7921C30.7112 21.5365 30.239 21.5192 29.8621 21.7444C29.1256 22.1819 28.3459 22.4938 27.5358 22.693C27.1026 22.797 26.7777 23.1479 26.704 23.5853L26.1928 26.6088L24.7459 26.5958L24.2347 23.5637C24.1611 23.1305 23.8362 22.7797 23.403 22.6757C22.6016 22.4765 21.8131 22.1473 21.0767 21.7054C20.7041 21.4802 20.2319 21.4932 19.8724 21.7444L17.3468 23.4857L16.3244 22.4505L18.1049 19.9902C18.3648 19.6306 18.3865 19.1498 18.1569 18.7687C17.7193 18.028 17.3988 17.2396 17.1995 16.4253C17.0955 16.0008 16.7533 15.6759 16.3201 15.5936L13.3223 15.0522L13.3353 13.5968L16.3201 13.116C16.7576 13.0467 17.1128 12.7218 17.2211 12.293C17.4291 11.4743 17.754 10.686 18.2045 9.94961C18.4341 9.5771 18.4211 9.10063 18.1699 8.74111L16.45 6.24614L17.4811 5.22389L19.933 6.99116C20.2882 7.25106 20.7648 7.27271 21.146 7.0518C21.8911 6.60565 22.6839 6.28945 23.5026 6.0902C23.9315 5.99057 24.2564 5.64405 24.3344 5.21523L24.8802 2.22212ZM25.504 8.91004C24.0788 8.90138 22.6492 9.43416 21.5619 10.5127C19.3872 12.6612 19.3698 16.2 21.5185 18.3788C23.6672 20.5533 27.2109 20.5706 29.3856 18.4221C31.5602 16.2737 31.5776 12.7305 29.4289 10.556C28.3545 9.46881 26.9293 8.9187 25.504 8.91004ZM25.4954 11.1148C26.3488 11.1191 27.1979 11.4527 27.852 12.1154C29.1603 13.4365 29.1473 15.5373 27.826 16.8411C26.5047 18.1492 24.4037 18.1406 23.0954 16.8195C21.7871 15.494 21.8001 13.3932 23.1214 12.0894C23.7842 11.4353 24.6376 11.1105 25.4954 11.1148ZM13.7858 28.8308C10.892 28.8308 9.55774 29.5239 8.1195 30.0783C8.1195 30.0827 8.1195 30.0827 8.1195 30.0827C5.35998 31.1569 0.638037 33.3833 0.638037 33.3833C0.0835339 33.6432 -0.154728 34.3059 0.105195 34.8604C0.36945 35.4148 1.03225 35.653 1.58676 35.3932C1.58676 35.3932 6.33902 33.1537 8.92093 32.1488C10.5151 31.5294 11.2083 31.0486 13.7858 31.0486C19.4738 31.0486 19.2442 33.5176 21.6442 34.9297C21.6788 34.9513 21.7178 34.973 21.7568 34.986C24.7329 36.3201 27.93 36.593 30.5076 36.593C31.6469 36.593 32.366 36.8572 32.7559 37.1518C33.1414 37.4506 33.2801 37.7582 33.2801 38.2563C33.2801 38.8411 33.1328 39.1183 32.7472 39.3998C32.366 39.6771 31.6296 39.9196 30.5076 39.9196H24.6853C22.242 39.9196 18.0356 38.8454 18.0356 38.8454C17.6544 38.7414 17.2428 38.8541 16.9612 39.1356C16.6796 39.4172 16.5713 39.8287 16.6753 40.2098C16.7836 40.5953 17.0869 40.8942 17.4724 40.9939C17.4724 40.9939 21.6442 42.1374 24.6853 42.1374H30.5076C31.6382 42.1374 32.6216 41.9511 33.4447 41.544C33.553 41.5136 33.657 41.466 33.7479 41.401L44.2662 34.5009C45.8474 33.5869 46.9261 33.3313 47.5585 33.34C48.191 33.353 48.4076 33.5436 48.5982 33.7861C48.8798 34.15 48.8971 34.2886 48.7152 34.7088C48.5289 35.1333 47.9874 35.7873 47.0127 36.463C47.0127 36.463 47.0127 36.463 47.0084 36.463C45.804 37.3034 32.3357 46.0791 30.7805 46.9627C29.6065 47.6298 28.6751 48.3315 27.6137 48.6304C26.5524 48.9249 25.3004 48.9249 23.2297 47.9373C21.8478 47.2746 15.9648 44.2598 14.0587 43.2939C12.9974 42.7568 12.092 42.4536 11.1693 42.5056C10.2422 42.5575 9.4581 42.9517 8.64801 43.4628C8.64368 43.4628 8.63934 43.4672 8.63934 43.4715L5.89282 45.2258C5.54626 45.4337 5.34265 45.8149 5.35565 46.2177C5.36864 46.6205 5.60257 46.9844 5.96213 47.1663C6.32603 47.3482 6.7549 47.3222 7.08847 47.0927L9.82199 45.3427C10.5281 44.9009 10.9267 44.7406 11.2906 44.719C11.6545 44.6973 12.1526 44.8143 13.058 45.2734C14.9468 46.2307 20.7388 49.2021 22.2767 49.9342C24.6896 51.0907 26.6434 51.199 28.2072 50.7658C29.7711 50.3283 30.8844 49.4534 31.8765 48.8903C34.0165 47.6731 46.7311 39.3565 48.2777 38.2823C49.4516 37.4636 50.3137 36.6103 50.7513 35.5881C51.1888 34.5658 51.0458 33.3183 50.3484 32.426C50.3484 32.426 50.3484 32.426 50.3484 32.4217C49.7982 31.72 48.8235 31.1482 47.5975 31.1222C46.9001 31.1092 46.1246 31.2695 45.2625 31.5857C45.1023 31.3735 44.8597 31.0963 44.5261 30.8537C43.8806 30.3729 42.8539 29.9397 41.459 29.9397C40.7442 29.9397 40.1594 30.1043 39.6915 30.2992C39.0244 29.6625 37.8417 28.8525 36.1219 28.8525C34.727 28.8525 33.4187 29.3203 32.509 29.8574C32.34 29.9571 31.9328 30.2126 31.2397 30.6458C30.5465 31.0789 29.6411 31.6377 28.7487 32.1965C27.3235 33.0844 26.4398 33.6389 25.9286 33.9594C24.8412 33.7428 23.7539 33.4353 22.7272 32.9848C21.8521 32.4217 20.1669 28.8308 13.7858 28.8308ZM36.1219 31.0703C36.8237 31.0703 37.3262 31.2479 37.6814 31.4558L32.5523 34.6351C31.9415 34.4619 31.257 34.3752 30.5076 34.3752C30.187 34.3752 29.8361 34.3536 29.5025 34.3406C29.7105 34.2106 29.7105 34.2106 29.9227 34.0807C30.8151 33.5219 31.7162 32.9588 32.4137 32.5257C33.1068 32.0968 33.6743 31.746 33.6353 31.7676C34.1595 31.4558 35.2988 31.0703 36.1219 31.0703ZM41.459 32.1575C42.3601 32.1575 42.8453 32.3871 43.1398 32.5906C43.1225 32.5993 43.1095 32.608 43.0922 32.621L35.4288 37.6456C35.3248 37.0261 35.0692 36.4327 34.662 35.9389L40.0208 32.6166L40.0251 32.608C40.0684 32.5863 40.9955 32.1575 41.459 32.1575Z" fill="black"/>
</svg>
