<svg width="46" height="46" viewBox="0 0 46 46" fill="none" xmlns="http://www.w3.org/2000/svg">
<path d="M36.9958 0C34.5898 0 32.3295 0.934812 30.6325 2.63281L24.6325 8.63281C23.7305 9.53481 23.0656 10.5812 22.6266 11.6992C24.0686 10.5992 25.8168 9.99609 27.6618 9.99609C28.0588 9.99609 28.4496 10.029 28.8356 10.084L33.4606 5.46094C34.4036 4.51794 35.6588 4 36.9958 4C38.3328 4 39.5889 4.51894 40.5309 5.46094C42.4799 7.41094 42.4799 10.5813 40.5309 12.5312L34.5309 18.5312C32.5819 20.4802 29.4096 20.4802 27.4606 18.5312C27.3796 18.4503 27.3217 18.3584 27.2477 18.2734L24.4079 21.1113C24.4839 21.1933 24.5535 21.2794 24.6325 21.3594C26.3865 23.1144 28.6918 23.9922 30.9958 23.9922C33.2998 23.9922 35.6051 23.1144 37.3591 21.3594L43.3591 15.3594C46.8691 11.8504 46.8691 6.14181 43.3591 2.63281C41.6621 0.934813 39.4018 1e-07 36.9958 0ZM27.6637 11.9961C25.9727 11.9961 24.3812 12.6556 23.1852 13.8516L13.8512 23.1836C11.3822 25.6526 11.3832 29.6696 13.8532 32.1406C14.6062 32.8926 15.5155 33.4315 16.5075 33.7285L17.1169 33.1172C17.9839 32.2502 18.2058 30.9803 17.7868 29.9043C17.3758 29.8113 16.9883 29.6195 16.6813 29.3125C15.7713 28.4025 15.7704 26.9207 16.6794 26.0117L26.0134 16.6797C26.4544 16.2397 27.0408 15.9941 27.6637 15.9941C28.2867 15.9941 28.8712 16.2387 29.3122 16.6797C29.6222 16.9897 29.8294 17.375 29.9274 17.791C30.2634 17.922 30.6228 17.9922 30.9958 17.9922C31.7988 17.9922 32.5519 17.6822 33.1169 17.1172L33.7302 16.5059C33.4332 15.5149 32.8933 14.6036 32.1403 13.8496C30.9433 12.6546 29.3538 11.9961 27.6637 11.9961ZM11.7009 22.625C10.5639 23.071 9.5205 23.7438 8.6325 24.6328L2.6325 30.6328C-0.8775 34.1418 -0.8775 39.8523 2.6325 43.3613C4.3865 45.1163 6.69178 45.9922 8.99578 45.9922C11.2998 45.9922 13.6051 45.1163 15.3591 43.3613L21.3591 37.3613C24.8691 33.8513 24.8691 28.1418 21.3591 24.6328C21.2801 24.5538 21.193 24.4842 21.111 24.4082L18.2712 27.248C18.3552 27.322 18.4509 27.3809 18.5309 27.4609C20.4799 29.4109 20.4799 32.5812 18.5309 34.5312L12.5309 40.5312C10.5819 42.4803 7.40963 42.4803 5.46063 40.5312C3.51163 38.5812 3.51163 35.4109 5.46063 33.4609L10.0954 28.8262C9.79139 26.6752 10.3249 24.434 11.7009 22.625ZM25.0563 24.2363L24.2341 25.0586C25.0431 26.3176 25.5721 27.7058 25.8161 29.1328L29.1227 25.8262C27.6667 25.5762 26.2903 25.0363 25.0563 24.2363Z" fill="black"/>
</svg>
