<svg width="8" height="12" viewBox="0 0 8 12" fill="none" xmlns="http://www.w3.org/2000/svg">
<path d="M4.13288 0.923096C2.02024 0.923096 0.307617 2.67565 0.307617 4.83753C0.307617 7.05534 2.71425 10.3289 3.70991 11.5877C3.9285 11.864 4.33726 11.864 4.55584 11.5877C5.55151 10.3289 7.95814 7.05534 7.95814 4.83753C7.95814 2.67565 6.24552 0.923096 4.13288 0.923096ZM4.13288 6.23555C3.37821 6.23555 2.76671 5.6098 2.76671 4.83753C2.76671 4.06527 3.37821 3.43952 4.13288 3.43952C4.88755 3.43952 5.49904 4.06527 5.49904 4.83753C5.49904 5.6098 4.88755 6.23555 4.13288 6.23555Z" fill="black"/>
</svg>
