<svg id="logo-17" xmlns="http://www.w3.org/2000/svg" width="232" height="66.156" viewBox="0 0 232 66.156">
  <g id="logo-17-2" data-name="logo-17" transform="translate(-27 -32)" opacity="0.246">
    <path id="Path_225" data-name="Path 225" d="M60.127,32a33.078,33.078,0,1,0,0,66.156V81.617a16.539,16.539,0,1,1,0-33.078Z" transform="translate(0)"/>
    <circle id="Ellipse_29" data-name="Ellipse 29" cx="11.042" cy="11.042" r="11.042" transform="translate(49.085 54.036)"/>
    <path id="Path_226" data-name="Path 226" d="M27,49.5a33.127,33.127,0,1,0,66.254,0H76.69a16.563,16.563,0,0,1-33.127,0Z" transform="translate(0 15.529)"/>
    <path id="Path_227" data-name="Path 227" d="M60.751,54.709a11.042,11.042,0,0,0-22.085,0H60.751Z" transform="translate(10.418 10.379)"/>
    <path id="Path_228" data-name="Path 228" d="M73.08,42.925H68.966V65.783H73.08Z" transform="translate(37.355 9.709)"/>
    <path id="Path_229" data-name="Path 229" d="M72.559,54.758a8.49,8.49,0,1,0,16.98,0,8.49,8.49,0,1,0-16.98,0Zm4.114,0c0-3.135,1.829-4.963,4.376-4.963s4.376,1.829,4.376,4.963-1.829,4.963-4.376,4.963S76.673,57.893,76.673,54.758Z" transform="translate(40.545 12.629)"/>
    <path id="Path_230" data-name="Path 230" d="M95.427,46.66v2.188H95.1A6.054,6.054,0,0,0,89.745,46.2c-3.853,0-7.314,3.265-7.314,8.294s3.461,8.294,7.314,8.294a6.093,6.093,0,0,0,5.29-2.547h.327v1.567c0,3.135-1.829,4.572-4.506,4.572a4.383,4.383,0,0,1-4.6-3.3l-3.69,1.6c.849,2.449,3.331,5.159,8.359,5.159,5.159,0,8.555-2.71,8.555-7.935V46.66Zm-4.441,12.6c-2.547,0-4.441-1.829-4.441-4.767s1.894-4.767,4.441-4.767,4.441,1.829,4.441,4.767S93.533,59.264,90.986,59.264Z" transform="translate(49.331 12.621)"/>
    <path id="Path_231" data-name="Path 231" d="M92.841,54.758a8.49,8.49,0,1,0,16.98,0,8.49,8.49,0,1,0-16.98,0Zm4.114,0c0-3.135,1.829-4.963,4.376-4.963s4.376,1.829,4.376,4.963-1.829,4.963-4.376,4.963S96.955,57.893,96.955,54.758Z" transform="translate(58.596 12.629)"/>
    <path id="Path_232" data-name="Path 232" d="M103.517,45.285a2.908,2.908,0,1,0,2.908-2.808A2.772,2.772,0,0,0,103.517,45.285Zm4.963,4.7h-4.113v16.2h4.113Z" transform="translate(68.108 9.31)"/>
    <path id="Path_233" data-name="Path 233" d="M108.076,69.387h4.115V60.766h.326a6.018,6.018,0,0,0,5.291,2.547c3.852,0,7.314-3.265,7.314-8.555S121.66,46.2,117.808,46.2a6.052,6.052,0,0,0-5.355,2.645h-.327V46.66h-4.049Zm8.49-9.6c-2.546,0-4.441-1.829-4.441-5.029s1.895-5.029,4.441-5.029,4.441,1.829,4.441,5.029S119.114,59.786,116.566,59.786Z" transform="translate(72.154 12.621)"/>
    <path id="Path_234" data-name="Path 234" d="M118.627,51.2c0,3.2,2.677,4.376,6.073,5.029l.85.163c2.024.392,2.938.882,2.938,1.927s-.914,1.861-2.807,1.861a3.5,3.5,0,0,1-3.854-3.135l-3.788.98c.557,3.4,3.4,5.29,7.642,5.29,4.113,0,6.792-1.926,6.792-5.322s-2.743-4.31-6.4-5.029l-.85-.163c-1.7-.327-2.612-.784-2.612-1.861,0-.98.85-1.6,2.417-1.6a2.8,2.8,0,0,1,3.068,2.416l3.723-1.143c-.784-2.612-3.167-4.408-6.792-4.408C121.173,46.2,118.627,48,118.627,51.2Z" transform="translate(81.023 12.629)"/>
    <path id="Path_235" data-name="Path 235" d="M142.82,62.64v-16.2h-4.113V54.8c0,3-1.469,4.767-3.985,4.767-2.22,0-3.46-1.208-3.46-3.657v-9.47h-4.115v9.665c0,4.016,2.516,6.792,6.3,6.792,2.97,0,4.342-1.306,5-2.678h.326V62.64Z" transform="translate(89.084 12.844)"/>
    <path id="Path_236" data-name="Path 236" d="M137.354,46.567v16.2h4.115V53.1c0-2.22,1.045-3.461,2.938-3.461a2.392,2.392,0,0,1,2.612,2.678V62.763h4.115V53.1c0-2.22,1.045-3.461,2.938-3.461a2.392,2.392,0,0,1,2.612,2.678V62.763H160.8V52.118c0-3.918-2.417-5.812-5.421-5.812a4.768,4.768,0,0,0-4.636,2.547h-.327a4.478,4.478,0,0,0-4.441-2.547,4.334,4.334,0,0,0-4.244,2.286H141.4V46.567Z" transform="translate(98.2 12.722)"/>
  </g>
</svg>
