<svg id="morgan-sindall-vector-logo" xmlns="http://www.w3.org/2000/svg" width="149.999" height="68.447" viewBox="0 0 149.999 68.447">
  <path id="Path_289" data-name="Path 289" d="M543.755,186.2v15.755l-8-15.755H528.4v23.233h5.327v-16.08l8.3,16.08h7.027V186.2Z" transform="translate(-401.509 -185.8)" fill="#131a1c"/>
  <path id="Path_290" data-name="Path 290" d="M47.231,186.2l-5.052,16.68-5.1-16.68H29.1v23.233h5.277V191.927l5.377,17.506H44.43l5.377-17.506v17.506h5.3V186.2Z" transform="translate(-27.074 -185.8)" fill="#131a1c"/>
  <path id="Path_291" data-name="Path 291" d="M435.054,190.7l2.926,9.328H432.1Zm-3.3-4.5L422.9,209.433h6.027l1.726-4.977h8.753l1.776,4.977h6.177l-8.8-23.233Z" transform="translate(-322.392 -185.8)" fill="#131a1c"/>
  <g id="Group_147" data-name="Group 147" transform="translate(0 0)">
    <path id="Path_292" data-name="Path 292" d="M167.108,196.6c0-6.752-4.451-12-11.879-12-7.4,0-11.829,5.252-11.829,12s4.426,12.054,11.829,12.054c7.427,0,11.879-5.3,11.879-12.054m-5.752,0c0,3.8-2.151,6.977-6.127,6.977s-6.1-3.176-6.1-6.977,2.126-6.927,6.1-6.927,6.127,3.126,6.127,6.927" transform="translate(-112.79 -184.6)" fill="#131a1c" fill-rule="evenodd"/>
    <path id="Path_293" data-name="Path 293" d="M348.806,200.03a5.136,5.136,0,0,1-5.227,4.076c-3.8,0-6.127-2.9-6.127-7.477,0-4.076,2.1-7.2,6.1-7.2a5.67,5.67,0,0,1,5.227,3.226l4.8-2.476a11.135,11.135,0,0,0-10.028-5.577c-7.127,0-11.854,4.7-11.854,12,0,7.252,4.727,12.054,11.779,12.054,7.127,0,11.429-5.152,11.429-11.779a11.233,11.233,0,0,0-.075-1.275H343.379v4.426Z" transform="translate(-254 -184.6)" fill="#131a1c" fill-rule="evenodd"/>
    <path id="Path_294" data-name="Path 294" d="M268.031,209.433,263.1,200.3a7,7,0,0,0,3.951-6.652c0-4.4-3-7.452-8.078-7.452H248.4v23.233h5.4V201.4h3.926l4,8.053h6.3ZM261.5,194.078a2.645,2.645,0,0,1-2.651,2.851H253.8v-5.752h5.052a2.7,2.7,0,0,1,2.651,2.9" transform="translate(-191.531 -185.8)" fill="#131a1c" fill-rule="evenodd"/>
    <path id="Path_295" data-name="Path 295" d="M450.905,328.633l2.251-4.952h-12.8V305.4H434.6v23.233Z" transform="translate(-331.166 -275.19)" fill="#6f767a" fill-rule="evenodd"/>
    <path id="Path_296" data-name="Path 296" d="M41.832,320.33c0-4.626-3.751-6.127-9.353-7.1-2.7-.475-4.476-.9-4.476-2.6,0-1.475,1.676-2.151,3.551-2.151a6.523,6.523,0,0,1,5.252,2.376l4.451-2.4c-2.351-3.276-5.727-4.551-9.728-4.551-5.327,0-9.228,2.651-9.228,7.252,0,4.952,4.126,6.1,7.928,6.8,3.451.625,5.952.9,5.952,2.951,0,1.6-1.876,2.551-4.026,2.551a6.93,6.93,0,0,1-6.327-3.276L21,322.206c2.026,3.526,5.352,5.777,10.8,5.777,6.327-.075,10.028-3.451,10.028-7.653" transform="translate(-21 -274.065)" fill="#6f767a" fill-rule="evenodd"/>
    <rect id="Rectangle_192" data-name="Rectangle 192" width="5.327" height="23.233" transform="translate(23.533 30.21)" fill="#6f767a"/>
    <path id="Path_297" data-name="Path 297" d="M169.757,328.633V305.4h-5.3v15.73l-8-15.73H149.1v23.233h5.327V312.527l8.3,16.105Z" transform="translate(-117.065 -275.19)" fill="#6f767a" fill-rule="evenodd"/>
    <path id="Path_298" data-name="Path 298" d="M353.258,328.633l-8.8-23.233h-6.8L328.8,328.633h6.027l1.751-4.977h8.728l1.776,4.977Zm-9.378-9.4H338l2.951-9.328Z" transform="translate(-251.825 -275.19)" fill="#6f767a" fill-rule="evenodd"/>
    <path id="Path_299" data-name="Path 299" d="M532.405,328.633l2.276-4.952H521.752V305.4H516v23.233Z" transform="translate(-392.21 -275.19)" fill="#6f767a" fill-rule="evenodd"/>
    <path id="Path_300" data-name="Path 300" d="M266.532,316.954c0-6.827-4.026-11.554-11.6-11.554H245v23.233h9.928c7.552,0,11.6-4.827,11.6-11.679m-5.752,0c0,4.151-2.076,6.727-5.852,6.727h-4.351v-13.3h4.351c3.776,0,5.852,2.451,5.852,6.577" transform="translate(-188.982 -275.19)" fill="#6f767a" fill-rule="evenodd"/>
    <path id="Path_301" data-name="Path 301" d="M28.8,437.2H176.848l-2.4,5.277H28.8Z" transform="translate(-26.849 -374.029)" fill="#0093d2" fill-rule="evenodd"/>
  </g>
</svg>
