<svg id="Ansaldo_Energia-0" data-name="Ansaldo Energia-0" xmlns="http://www.w3.org/2000/svg" width="150.001" height="61.136" viewBox="0 0 150.001 61.136">
  <rect id="Rectangle_185" data-name="Rectangle 185" width="150.001" height="61.136" fill="#fff"/>
  <g id="Group_146" data-name="Group 146" transform="translate(3.493 3.384)">
    <rect id="Rectangle_186" data-name="Rectangle 186" width="143.014" height="54.367" fill="#075ca2"/>
    <g id="Group_145" data-name="Group 145" transform="translate(3.821 3.166)">
      <path id="Path_237" data-name="Path 237" d="M125.855,42.973h-5.677l2.838-8.624Zm-5.786-11.354-6.769,19h4.476l1.31-4.258h7.969l1.31,4.258h4.476L125.418,30.2h-3.275a2.041,2.041,0,0,0-2.074,1.419" transform="translate(3.076 -3.781)" fill="#e2071c"/>
      <path id="Path_238" data-name="Path 238" d="M47.329,25.869c1.31,1.2,3.384,1.747,6,1.747a9.588,9.588,0,0,0,6-1.638,6.209,6.209,0,0,0,2.183-5.022,5.919,5.919,0,0,0-.655-2.729,6.019,6.019,0,0,0-1.856-1.856,11.018,11.018,0,0,1-1.638-.764,11.329,11.329,0,0,0-1.31-.328,16.841,16.841,0,0,1-1.856-.546,6.358,6.358,0,0,1-1.528-.328c-2.293-.546-3.493-1.31-3.493-2.4a2.332,2.332,0,0,1,.873-1.856,4.056,4.056,0,0,1,2.511-.655,4.941,4.941,0,0,1,2.948.764,7.063,7.063,0,0,1,.873.983,2,2,0,0,0,1.965,1.2h2.4a6.431,6.431,0,0,0-2.183-4.8A8.466,8.466,0,0,0,53.006,6q-3.93,0-5.9,1.638a5.639,5.639,0,0,0-1.965,4.585,6.741,6.741,0,0,0,.546,2.729,3.428,3.428,0,0,0,1.638,1.856,12.372,12.372,0,0,0,4.039,1.419l.437.109.109.109c3.6.764,5.349,1.856,5.349,3.057a2.022,2.022,0,0,1-.983,1.856,4.954,4.954,0,0,1-2.838.655,5.569,5.569,0,0,1-3.275-.873,3.386,3.386,0,0,1-1.419-2.511H44.6a8.1,8.1,0,0,0,2.729,5.24" transform="translate(-3.224 -6)" fill="#fff"/>
      <path id="Path_239" data-name="Path 239" d="M19.364,19.473H13.578l2.838-8.624ZM13.469,8.01,6.7,27.115h4.476l1.31-4.258h7.969l1.31,4.258h4.476L18.818,6.7H15.543a2.141,2.141,0,0,0-2.074,1.31" transform="translate(-6.7 -5.936)" fill="#fff"/>
      <path id="Path_240" data-name="Path 240" d="M31.258,27.224V13.141l8.406,14.083h4.367V6.7H39.882V20.783L31.476,6.7H29.183a2.155,2.155,0,0,0-1.528.655A1.982,1.982,0,0,0,27,8.883V27.115h4.258Z" transform="translate(-4.838 -5.936)" fill="#fff"/>
      <path id="Path_241" data-name="Path 241" d="M73.355,19.573H67.678l2.838-8.624ZM67.569,8.11l-6.769,19h4.476l1.31-4.258h7.969l1.419,4.258h4.476L72.918,6.8H69.643a1.961,1.961,0,0,0-2.074,1.31" transform="translate(-1.739 -5.927)" fill="#fff"/>
      <path id="Path_242" data-name="Path 242" d="M94.292,27.315V23.494H84.358V6.9H82.283a2.155,2.155,0,0,0-1.528.655A1.982,1.982,0,0,0,80.1,9.083V27.315Z" transform="translate(0.031 -5.917)" fill="#fff"/>
      <path id="Path_243" data-name="Path 243" d="M99.439,10.5h3.93a4.377,4.377,0,0,1,3.821,1.638c.873,1.092,1.2,2.729,1.2,5.022,0,2.4-.437,4.039-1.31,5.022a5.452,5.452,0,0,1-4.258,1.528H99.439Zm2.729,16.921a14.842,14.842,0,0,0,4.367-.437,9.885,9.885,0,0,0,2.838-1.419,8.752,8.752,0,0,0,2.511-3.493,13.6,13.6,0,0,0,.873-4.913c0-3.384-.764-6-2.293-7.751-1.528-1.638-3.93-2.511-6.987-2.511h-5.9a2.155,2.155,0,0,0-1.528.655A1.982,1.982,0,0,0,95.4,9.083V27.315h6.769Z" transform="translate(1.434 -5.917)" fill="#fff"/>
      <path id="Path_244" data-name="Path 244" d="M115.62,25.268a9.7,9.7,0,0,0,7.314,2.838,9.869,9.869,0,0,0,7.314-2.838,11.4,11.4,0,0,0,2.62-7.86,11.4,11.4,0,0,0-2.62-7.86A9.705,9.705,0,0,0,122.935,6.6a9.541,9.541,0,0,0-7.314,2.948,11.4,11.4,0,0,0-2.62,7.86,11.4,11.4,0,0,0,2.62,7.86m3.057-13.1a5.22,5.22,0,0,1,4.258-1.856,5.531,5.531,0,0,1,4.258,1.856,8.537,8.537,0,0,1,1.528,5.24,8.537,8.537,0,0,1-1.528,5.24,5.812,5.812,0,0,1-8.515,0,8.1,8.1,0,0,1-1.528-5.24,8.1,8.1,0,0,1,1.528-5.24" transform="translate(3.049 -5.945)" fill="#fff"/>
      <path id="Path_245" data-name="Path 245" d="M69.439,33.7H74.57a2.815,2.815,0,0,1,2.183.764,2.336,2.336,0,0,1,.764,1.965,2.336,2.336,0,0,1-.764,1.965,3.71,3.71,0,0,1-2.4.655H69.439Zm0,16.921V42.655h4.476a3.2,3.2,0,0,1,2.293.655,4.881,4.881,0,0,1,.764,2.511L77.081,48a7.448,7.448,0,0,0,.109,1.31,2.2,2.2,0,0,0,.328,1.2H82.1a2.439,2.439,0,0,1-.764-1.31c0-.218-.109-.546-.109-.764V45.275a8.546,8.546,0,0,0-.655-3.057A3.17,3.17,0,0,0,78.719,40.8a4.637,4.637,0,0,0,2.293-1.747,5.7,5.7,0,0,0,.873-3.166,5.681,5.681,0,0,0-1.638-4.367c-1.092-.983-2.729-1.419-4.913-1.419H67.583a2.155,2.155,0,0,0-1.528.655,1.982,1.982,0,0,0-.655,1.528V50.515h4.039Z" transform="translate(-1.317 -3.79)" fill="#e2071c"/>
      <path id="Path_246" data-name="Path 246" d="M61.456,50.615V46.794h-10.7v-5.24h5.786a2.155,2.155,0,0,0,1.528-.655,1.982,1.982,0,0,0,.655-1.528V38.06H50.758V33.693h10.7V30.2H48.683a2.155,2.155,0,0,0-1.528.655,1.982,1.982,0,0,0-.655,1.528V50.615Z" transform="translate(-3.05 -3.781)" fill="#e2071c"/>
      <path id="Path_247" data-name="Path 247" d="M110.158,50.615V30.2h-2.074a2.155,2.155,0,0,0-1.528.655,1.982,1.982,0,0,0-.655,1.528V50.615Z" transform="translate(2.397 -3.781)" fill="#e2071c"/>
      <path id="Path_248" data-name="Path 248" d="M99.611,49.032a2,2,0,0,0,2.074,1.638h1.092V39.644H94.262v1.31a2.155,2.155,0,0,0,.655,1.528,1.982,1.982,0,0,0,1.528.655h2.511a5.233,5.233,0,0,1-1.638,3.275A4.759,4.759,0,0,1,94.044,47.5a5.22,5.22,0,0,1-4.258-1.856,8.537,8.537,0,0,1-1.528-5.24,8.537,8.537,0,0,1,1.528-5.24,4.931,4.931,0,0,1,4.039-1.856,5.443,5.443,0,0,1,3.166.873,6.546,6.546,0,0,1,1.2,1.31,1.921,1.921,0,0,0,1.856,1.092h2.838a7.98,7.98,0,0,0-2.948-5.131A10.38,10.38,0,0,0,93.607,29.6a9.225,9.225,0,0,0-7.1,2.948C84.764,34.4,84,37.024,84,40.3a11.4,11.4,0,0,0,2.62,7.86,8.835,8.835,0,0,0,6.987,2.948,8.5,8.5,0,0,0,3.384-.655A5.592,5.592,0,0,0,99.5,48.159Z" transform="translate(0.389 -3.836)" fill="#e2071c"/>
      <path id="Path_249" data-name="Path 249" d="M29.558,50.615V36.641l8.406,14.083h4.367V30.2H38.073V44.283L29.776,30.2H27.483a2.155,2.155,0,0,0-1.528.655,1.982,1.982,0,0,0-.655,1.528V50.615Z" transform="translate(-4.994 -3.781)" fill="#e2071c"/>
      <path id="Path_250" data-name="Path 250" d="M21.547,50.615V46.794h-10.7v-5.24h5.786a2.155,2.155,0,0,0,1.528-.655,1.982,1.982,0,0,0,.655-1.528V38.06H10.848V33.693h10.7V30.2H8.883a2.155,2.155,0,0,0-1.528.655A1.982,1.982,0,0,0,6.7,32.383V50.615H21.547" transform="translate(-6.7 -3.781)" fill="#e2071c"/>
    </g>
  </g>
</svg>
