<svg id="layer1" xmlns="http://www.w3.org/2000/svg" width="150" height="57.139" viewBox="0 0 150 57.139">
  <g id="g37997" transform="translate(0 0)">
    <path id="polygon37824" d="M15.311,7.3l9.013,24.244h6.894L19.313.987H11.62L0,31.546H6.473Z" transform="translate(0 -0.296)" fill="#2c4255"/>
    <path id="polygon37826" d="M49.13,5.818H40.677L38.827.984H64.264V5.818H55.321V31.545H49.13Z" transform="translate(-11.786 -0.295)" fill="#2c4255"/>
    <path id="polygon37828" d="M80.755,31.546V.987h6.2V14.092L98.226.987h7.446L93,15.3l13.2,16.243H98.362L86.95,17.3V31.546Z" transform="translate(-24.513 -0.296)" fill="#2c4255"/>
    <rect id="rect37830" width="6.193" height="30.561" transform="translate(85.163 0.691)" fill="#2c4255"/>
    <path id="polygon37832" d="M159.267,31.548,146.982,9.161V31.548H141.3V.987h7.524l12.215,22.35V.987h5.677V31.548Z" transform="translate(-42.892 -0.296)" fill="#2c4255"/>
    <path id="path37834" d="M135.367,202.572a14.145,14.145,0,0,0-6.719-1.658c-2.152,0-5.222.966-5.222,3.9s3.6,3.719,6.967,5.069c4.067,1.62,7.131,3.722,7.131,8.69,0,6.383-5.219,9.659-11.978,9.659a19.643,19.643,0,0,1-8.738-1.935l.765-5.554a15.075,15.075,0,0,0,7.868,2.348c3.2,0,5.561-1.246,5.561-4s-3.333-3.761-6.676-5.1c-3.553-1.415-7.345-3.212-7.345-8.523,0-6.346,5.712-9.483,11.314-9.483a17.146,17.146,0,0,1,7.726,1.658Z" transform="translate(12.472 -195.976)" fill="#2c4255"/>
    <path id="polygon37836" d="M5.309,68.537H5.285L3.348,72.7H2.74L.794,68.547H.756v6.995H0V67.367H1.1l1.972,4.141H3.1l1.95-4.141H6.1v8.174H5.309Z" transform="translate(0 -20.445)" fill="#575756"/>
    <path id="path37838" d="M-54.547,269.135v-.63a1.213,1.213,0,0,0-1.264-1.375,1.243,1.243,0,0,0-1.246,1.375v.63Zm-3.326,1.376v-1.778a2.041,2.041,0,0,1,2.119-2.224,1.857,1.857,0,0,1,1.972,2.064v1.148h-3.276v.8c0,.988.514,1.423,1.474,1.423a2.678,2.678,0,0,0,1.419-.424l.3.54a2.912,2.912,0,0,1-1.843.553,1.929,1.929,0,0,1-2.167-2.11" transform="translate(65.496 -217.386)" fill="#575756"/>
    <path id="path37840" d="M-49.958,266.644h.756v1.01h.013a1.924,1.924,0,0,1,1.826-1.154,1.417,1.417,0,0,1,1.421,1.137h.011a1.95,1.95,0,0,1,1.819-1.137,1.41,1.41,0,0,1,1.051.418,1.41,1.41,0,0,1,.405,1.056v4.494h-.8v-4.253c0-.792-.391-1.067-1.012-1.067a1.548,1.548,0,0,0-1.434,1.5v3.829h-.789v-4.321a.894.894,0,0,0-1.008-1.008,1.578,1.578,0,0,0-1.445,1.57v3.761h-.813Z" transform="translate(63.093 -217.383)" fill="#575756"/>
    <path id="path37842" d="M-33.8,269.828V267.3a1.009,1.009,0,0,0-1.124-1.106,1.582,1.582,0,0,0-1.373,1.7v1.489a1.556,1.556,0,0,0,1.412,1.673c.641,0,1.085-.411,1.085-1.225m-2.556.737h-.022l-.013.962H-37.1v-8.184h.8v3.269h.037a1.822,1.822,0,0,1,1.638-1.078A1.571,1.571,0,0,1-33,267.257v2.532a1.731,1.731,0,0,1-1.763,1.87,1.719,1.719,0,0,1-1.6-1.106" transform="translate(59.191 -216.426)" fill="#575756"/>
    <path id="path37844" d="M-26.08,269.135v-.63a1.209,1.209,0,0,0-1.257-1.375,1.245,1.245,0,0,0-1.253,1.375v.63Zm-3.317,1.376v-1.778a2.042,2.042,0,0,1,2.123-2.224,1.859,1.859,0,0,1,1.97,2.064v1.148h-3.282v.8c0,.988.52,1.423,1.474,1.423a2.7,2.7,0,0,0,1.419-.424l.3.54a2.917,2.917,0,0,1-1.843.553A1.929,1.929,0,0,1-29.4,270.5" transform="translate(56.853 -217.386)" fill="#575756"/>
    <path id="path37846" d="M-21.489,266.679h.759v1.01h.009a1.652,1.652,0,0,1,1.658-1.076,1.935,1.935,0,0,1,.387.035v.719a3.163,3.163,0,0,0-.485-.031,1.427,1.427,0,0,0-1.52,1.513v3.667h-.807Z" transform="translate(54.451 -217.417)" fill="#575756"/>
    <path id="path37848" d="M-9.85,270.5v-1.95a1.241,1.241,0,0,0-1.29-1.412c-.91,0-1.275.665-1.275,1.474v1.9c0,.9.369,1.456,1.306,1.456s1.26-.641,1.26-1.474m-3.37.022v-1.889a1.966,1.966,0,0,1,2.079-2.123,1.926,1.926,0,0,1,2.1,2.088v1.892a1.938,1.938,0,0,1-2.079,2.132,1.923,1.923,0,0,1-2.1-2.1" transform="translate(51.941 -217.386)" fill="#575756"/>
    <path id="path37850" d="M-4.887,266.3h-.894v-.663h.894v-1a1.337,1.337,0,0,1,1.435-1.489,2.673,2.673,0,0,1,.674.081v.652a2.232,2.232,0,0,0-.573-.057c-.426,0-.737.217-.737.8v1.01h1.172v.663H-4.087v5.16h-.8Z" transform="translate(49.683 -216.367)" fill="#575756"/>
    <path id="path37852" d="M3.264,270.77v-4.128H2.313V266h.951v-1.7h.8V266h1.5v.641h-1.5v3.87c0,.47.24.678.754.678a2.371,2.371,0,0,0,.7-.129v.669a2.949,2.949,0,0,1-.967.184c-.617,0-1.29-.217-1.29-1.146" transform="translate(47.227 -216.716)" fill="#575756"/>
    <path id="path37854" d="M8.705,263.35h.8v3.3h.022a1.865,1.865,0,0,1,1.763-1.106,1.417,1.417,0,0,1,1.474,1.491v4.481h-.8v-4.238c0-.791-.343-1.087-1.008-1.087a1.6,1.6,0,0,0-1.445,1.6v3.726H8.705Z" transform="translate(45.286 -216.427)" fill="#575756"/>
    <path id="path37856" d="M19.908,269.135v-.63a1.209,1.209,0,0,0-1.259-1.375A1.245,1.245,0,0,0,17.4,268.5v.63Zm-3.317,1.376v-1.778a2.042,2.042,0,0,1,2.123-2.224,1.856,1.856,0,0,1,1.968,2.064v1.148H17.4v.8c0,.988.514,1.423,1.474,1.423a2.7,2.7,0,0,0,1.421-.424l.3.54a2.912,2.912,0,0,1-1.843.553,1.928,1.928,0,0,1-2.163-2.11" transform="translate(42.894 -217.386)" fill="#575756"/>
    <path id="path37858" d="M26.717,270.53l.553-.588a2.756,2.756,0,0,0,2.123.907,1.411,1.411,0,0,0,1.559-1.412c0-.9-.627-1.29-1.27-1.6l-1.03-.494a2.273,2.273,0,0,1-1.537-2.064,2.154,2.154,0,0,1,2.327-2.145,2.824,2.824,0,0,1,2.255.94l-.538.538a2.356,2.356,0,0,0-1.776-.757,1.271,1.271,0,0,0-1.4,1.33c0,.665.391,1.043,1.168,1.41l.951.461a2.469,2.469,0,0,1,1.71,2.248,2.311,2.311,0,0,1-2.513,2.292,3.334,3.334,0,0,1-2.591-1.065" transform="translate(39.821 -216.361)" fill="#575756"/>
    <path id="polygon37860" d="M104.951,67.367h.861l3.555,6.468h.022V67.367h.756v8.174H109.4l-3.669-6.753h-.026v6.753h-.755Z" transform="translate(-31.857 -20.445)" fill="#575756"/>
    <path id="path37862" d="M45.829,269.195v-3.612a2.419,2.419,0,0,1,2.674-2.429,2.175,2.175,0,0,1,2.44,2.073v.626h-.767v-.459a1.5,1.5,0,0,0-1.714-1.539,1.639,1.639,0,0,0-1.775,1.767v3.462a1.618,1.618,0,0,0,1.813,1.789c1.076,0,1.675-.61,1.675-1.456v-.54h.767v.608a2.152,2.152,0,0,1-2.44,2.11c-1.541,0-2.674-.791-2.674-2.408" transform="translate(34.018 -216.368)" fill="#575756"/>
    <rect id="rect37864" width="2.381" height="0.639" transform="translate(86.047 51.384)" fill="#575756"/>
    <path id="polygon37866" d="M128.882,67.367h.848v7.441h3.59v.733h-4.437Z" transform="translate(-39.121 -20.445)" fill="#575756"/>
    <path id="path37868" d="M71.051,270.542v-.91h-.99c-.674,0-1.441.217-1.441,1.192a1.034,1.034,0,0,0,1.054,1.159,1.4,1.4,0,0,0,1.377-1.445m-3.256.4a1.931,1.931,0,0,1,2.147-1.856h1.106v-1c0-.689-.461-1-1.144-1-.619,0-1.205.3-1.205.921v.334h-.724v-.356c0-.986.9-1.491,2.027-1.491,1.03,0,1.867.47,1.867,1.55v2.948c0,.446.05,1.192.059,1.474h-.737l-.046-.921h-.022a1.843,1.843,0,0,1-1.71,1.056,1.542,1.542,0,0,1-1.605-1.658" transform="translate(27.35 -217.382)" fill="#575756"/>
    <path id="polygon37870" d="M143.807,70.725h.861l1.308,4.749h.009l1.364-4.749h.756l-1.787,5.849h-.778Z" transform="translate(-43.652 -21.464)" fill="#575756"/>
    <path id="path37872" d="M85.385,270.542v-.91H84.4c-.68,0-1.448.217-1.448,1.192a1.037,1.037,0,0,0,1.056,1.159,1.395,1.395,0,0,0,1.373-1.445m-3.252.4a1.927,1.927,0,0,1,2.141-1.856h1.106v-1c0-.689-.455-1-1.142-1-.621,0-1.205.3-1.205.921v.334h-.724v-.356c0-.986.907-1.491,2.016-1.491,1.03,0,1.87.47,1.87,1.55v2.948c0,.446.044,1.192.053,1.474h-.737l-.046-.921h-.026A1.828,1.828,0,0,1,83.73,272.6a1.541,1.541,0,0,1-1.6-1.658" transform="translate(23 -217.382)" fill="#575756"/>
    <path id="path37874" d="M90.3,270.377v-7.03h.8v6.89a.587.587,0,0,0,.674.654,3.275,3.275,0,0,0,.494-.046v.632a2.288,2.288,0,0,1-.759.111,1.1,1.1,0,0,1-1.213-1.212" transform="translate(20.519 -216.426)" fill="#575756"/>
    <path id="path37876" d="M94.827,271.574h.8v-5.836h-.8Zm0-6.835h.8v-1.225h-.8Z" transform="translate(19.145 -216.477)" fill="#575756"/>
    <path id="path37878" d="M98.4,266.647h.759v.986h.009a1.946,1.946,0,0,1,1.824-1.124A1.432,1.432,0,0,1,102.466,268v4.481h-.8v-4.262c0-.781-.378-1.067-1.008-1.067a1.575,1.575,0,0,0-1.441,1.57v3.761H98.4Z" transform="translate(18.06 -217.386)" fill="#575756"/>
    <path id="path37880" d="M109.308,269.189v-3.566a2.471,2.471,0,0,1,2.67-2.488,2.214,2.214,0,0,1,2.5,2.073v.588H113.7v-.47a1.527,1.527,0,0,0-1.732-1.474,1.7,1.7,0,0,0-1.81,1.813v3.474A1.636,1.636,0,0,0,112,270.882c1.27,0,1.716-.7,1.716-1.548v-1.423h-1.706v-.682h2.512v2.2a2.243,2.243,0,0,1-2.536,2.167c-1.546,0-2.67-.79-2.67-2.408" transform="translate(14.749 -216.362)" fill="#575756"/>
    <path id="path37882" d="M119.063,266.679h.761v1.01h.011a1.646,1.646,0,0,1,1.649-1.076,1.938,1.938,0,0,1,.391.035v.719a3.158,3.158,0,0,0-.481-.031,1.434,1.434,0,0,0-1.528,1.513v3.667h-.8Z" transform="translate(11.788 -217.417)" fill="#575756"/>
    <path id="path37884" d="M127.739,270.5v-1.95a1.241,1.241,0,0,0-1.29-1.412c-.91,0-1.275.665-1.275,1.474v1.9c0,.9.381,1.456,1.306,1.456s1.264-.641,1.264-1.474m-3.374.022v-1.889a1.965,1.965,0,0,1,2.079-2.123,1.926,1.926,0,0,1,2.1,2.088v1.892a2.087,2.087,0,1,1-4.174.031" transform="translate(10.177 -217.386)" fill="#575756"/>
    <path id="path37886" d="M132.424,271.189v-4.481h.811v4.238c0,.781.346,1.078,1,1.078a1.561,1.561,0,0,0,1.458-1.592v-3.724h.8v5.836h-.724l-.035-1h-.022a1.916,1.916,0,0,1-1.778,1.139,1.434,1.434,0,0,1-1.5-1.493" transform="translate(7.732 -217.446)" fill="#575756"/>
    <path id="path37888" d="M143.961,270.795v-2.5a1.037,1.037,0,0,0-1.128-1.146c-.768,0-1.376.709-1.376,1.73v1.411a1.559,1.559,0,0,0,1.447,1.717c.608,0,1.056-.389,1.056-1.214m-3.3-4.15h.756v.962h.022a1.859,1.859,0,0,1,1.675-1.106,1.583,1.583,0,0,1,1.658,1.684V270.7A1.718,1.718,0,0,1,143,272.619a1.607,1.607,0,0,1-1.511-1.034h-.026v2.937h-.8Z" transform="translate(5.234 -217.384)" fill="#575756"/>
  </g>
</svg>
