<svg xmlns="http://www.w3.org/2000/svg" width="93.936" height="80" viewBox="0 0 93.936 80">
  <g id="g10" transform="translate(0 0)">
    <path id="path36" d="M591.752-936.207c-2.461,0-4.512-.066-6.1-1.792s-1.341-3.6-.943-5.835l11.542-65.441c.356-2.037.73-3.736,2.725-5.306s3.887-1.626,6.123-1.626l65.906,0c2.458,0,4.509.071,6.1,1.792s1.334,3.6.941,5.833l-11.54,65.443c-.357,2.032-.73,3.737-2.727,5.3s-3.884,1.626-6.122,1.626H591.753Z" transform="translate(-584.409 1016.207)" fill="#006cb7" fill-rule="evenodd"/>
    <path id="path40" d="M618.341-983.131a1.646,1.646,0,0,1,.473-1.407,2.072,2.072,0,0,1,1.549-.433h2.582a2.055,2.055,0,0,0,1.548-.43,1.659,1.659,0,0,0,.478-1.409v-1.4a1.628,1.628,0,0,1,.476-1.4,2.042,2.042,0,0,1,1.548-.434h1.621c9.014,0,13.291,5.393,13.291,12.72s-4.278,12.72-13.291,12.72h-8.253a2.039,2.039,0,0,1-1.549-.434,1.635,1.635,0,0,1-.473-1.4v-16.686Zm7.151,12.462a1.637,1.637,0,0,0,.472,1.407,2.049,2.049,0,0,0,1.549.435h.313c4.413,0,7-3.186,7-8.332s-2.587-8.332-7-8.332h-.313a2.055,2.055,0,0,0-1.549.434,1.639,1.639,0,0,0-.472,1.4v12.984Zm-17.82,6.062a2.049,2.049,0,0,0,1.554-.434,1.632,1.632,0,0,0,.474-1.4v-17.437a1.64,1.64,0,0,1,.474-1.4,2.053,2.053,0,0,1,1.547-.433h2.49a2.067,2.067,0,0,0,1.547-.431,1.651,1.651,0,0,0,.476-1.411v-.646a1.631,1.631,0,0,0-.476-1.4,2.046,2.046,0,0,0-1.547-.434H597.685a2.035,2.035,0,0,0-1.546.434,1.632,1.632,0,0,0-.481,1.4v.646a1.652,1.652,0,0,0,.481,1.411,2.056,2.056,0,0,0,1.546.431h2.488a2.056,2.056,0,0,1,1.552.433,1.643,1.643,0,0,1,.473,1.4v17.437a1.638,1.638,0,0,0,.472,1.4,2.053,2.053,0,0,0,1.552.434Zm56.294-4.679a1.578,1.578,0,0,1,1.38.363,1.389,1.389,0,0,1,.28,1.352l-.215,1.259a1.725,1.725,0,0,1-.636,1.159,2.814,2.814,0,0,1-1.489.546,26.725,26.725,0,0,1-3.939.241c-8.964,0-13.289-6.112-13.289-12.942s4.329-12.943,13.289-12.943a23.689,23.689,0,0,1,3.3.179,2.118,2.118,0,0,1,1.237.543,1.869,1.869,0,0,1,.419,1.378v.787a1.773,1.773,0,0,1-.384,1.374,1.449,1.449,0,0,1-1.292.415l-.235-.02c-4.606-.331-8.826,2.047-8.826,8.274,0,5.272,3.18,8.189,7.572,8.189.874,0,1.852-.065,2.523-.128l.3-.024Z" transform="translate(-583.564 1018.157)" fill="#fff" fill-rule="evenodd"/>
  </g>
</svg>
