<svg id="Home___BAE_Systems___International-5" data-name="Home _ BAE Systems _ International-5" xmlns="http://www.w3.org/2000/svg" width="150" height="23.076" viewBox="0 0 150 23.076">
  <rect id="Rectangle_191" data-name="Rectangle 191" width="150" height="23.076" fill="#ed1a3b"/>
  <path id="Path_259" data-name="Path 259" d="M324.66,22.043c.615,2.467,2.735,3.464,5.121,3.464s5.068-1.095,5.068-3.826a3.167,3.167,0,0,0-1.685-2.915,12.13,12.13,0,0,0-3.22-.912c-.407-.1-1.258-.216-1.258-.814s.664-.716,1.128-.716a1.741,1.741,0,0,1,1.84,1.14l2.882-.875c-.7-1.974-2.6-2.784-4.571-2.784a5.744,5.744,0,0,0-3.256.863,3.5,3.5,0,0,0-1.457,2.849c0,2.7,2.532,3.281,4.673,3.7.509.1,1.392.232,1.392.928,0,.627-.9.7-1.343.7A1.9,1.9,0,0,1,327.9,21.46l-3.232.582" transform="translate(-192.505 -8.182)" fill="#fff" fill-rule="evenodd"/>
  <path id="Path_260" data-name="Path 260" d="M298.112,14.21h-4.592l-1.559,6.033L290.3,14.21H285.75V25.579h2.617V17.458l2.17,8.121h2.223l2.072-8.121.029,8.121h3.252Z" transform="translate(-169.434 -8.426)" fill="#fff" fill-rule="evenodd"/>
  <path id="Path_261" data-name="Path 261" d="M262.782,22.87h-5.121V21.03h4.148V18.5h-4.148V16.833h5.121V14.22H254.25V25.585h8.532Z" transform="translate(-150.756 -8.432)" fill="#fff" fill-rule="evenodd"/>
  <path id="Path_262" data-name="Path 262" d="M230.8,16.945h2.336V14.21H225.1v2.735h2.389v8.634H230.8Z" transform="translate(-133.472 -8.426)" fill="#fff" fill-rule="evenodd"/>
  <path id="Path_263" data-name="Path 263" d="M192.37,22.043c.615,2.467,2.731,3.464,5.121,3.464s5.068-1.095,5.068-3.826a3.163,3.163,0,0,0-1.689-2.915,12.1,12.1,0,0,0-3.216-.912c-.407-.1-1.258-.216-1.258-.814s.663-.716,1.115-.716a1.741,1.741,0,0,1,1.84,1.14l2.882-.875c-.692-1.974-2.6-2.784-4.571-2.784a5.752,5.752,0,0,0-3.256.863,3.529,3.529,0,0,0-1.457,2.849c0,2.7,2.536,3.281,4.669,3.7.517.1,1.4.232,1.4.928,0,.627-.891.7-1.343.7a1.906,1.906,0,0,1-2.072-1.376l-3.228.582" transform="translate(-114.065 -8.182)" fill="#fff" fill-rule="evenodd"/>
  <path id="Path_264" data-name="Path 264" d="M171.755,14.21H168.7l-1.9,3.745L164.81,14.21h-3.83l3.83,6.566v4.8h3.383v-4.8Z" transform="translate(-95.452 -8.426)" fill="#fff" fill-rule="evenodd"/>
  <path id="Path_265" data-name="Path 265" d="M130.08,22.042c.615,2.467,2.735,3.464,5.121,3.464s5.072-1.095,5.072-3.826a3.151,3.151,0,0,0-1.677-2.915,12.073,12.073,0,0,0-3.212-.912c-.431-.1-1.262-.216-1.262-.814s.647-.716,1.115-.716a1.747,1.747,0,0,1,1.84,1.14l2.878-.875c-.692-1.974-2.6-2.784-4.571-2.784a5.731,5.731,0,0,0-3.256.863,3.521,3.521,0,0,0-1.461,2.849c0,2.7,2.536,3.281,4.673,3.7.513.1,1.392.232,1.392.928,0,.627-.9.7-1.343.7a1.9,1.9,0,0,1-2.072-1.376l-3.232.582" transform="translate(-77.13 -8.182)" fill="#fff" fill-rule="evenodd"/>
  <path id="Path_266" data-name="Path 266" d="M96.29,22.87H91.169V21.03H95.3V18.5H91.169V16.833H96.29V14.22H87.75V25.585h8.54Z" transform="translate(-52.031 -8.432)" fill="#fff" fill-rule="evenodd"/>
  <path id="Path_267" data-name="Path 267" d="M59.429,25.579h3.558L59.429,14.21H55.745L52.22,25.579h2.837l.688-2.231h3.037Z" transform="translate(-30.964 -8.426)" fill="#fff" fill-rule="evenodd"/>
  <path id="Path_268" data-name="Path 268" d="M21.07,25.585h5.21a5.26,5.26,0,0,0,3.126-.643,3.175,3.175,0,0,0,1.168-2.65A2.556,2.556,0,0,0,28.369,19.7a2.536,2.536,0,0,0,1.925-2.5A3.008,3.008,0,0,0,29.073,14.8a4.039,4.039,0,0,0-2.442-.578H21.07V25.585" transform="translate(-12.493 -8.432)" fill="#fff" fill-rule="evenodd"/>
  <path id="Path_269" data-name="Path 269" d="M62.31,25.741l.924-3.3.936,3.3Z" transform="translate(-36.946 -13.306)" fill="#ed1a3b" fill-rule="evenodd"/>
  <path id="Path_270" data-name="Path 270" d="M28.93,22.129V20.2h1.36c.668,0,1.36.114,1.36.965a1.022,1.022,0,0,1-.33.741,1.4,1.4,0,0,1-.977.224H28.93" transform="translate(-17.154 -11.977)" fill="#ed1a3b" fill-rule="evenodd"/>
  <path id="Path_271" data-name="Path 271" d="M28.93,32.917V30.861h1.38a2.341,2.341,0,0,1,1.009.151.989.989,0,0,1,.13,1.689,1.522,1.522,0,0,1-1.009.216H28.93" transform="translate(-17.154 -18.295)" fill="#ed1a3b" fill-rule="evenodd"/>
</svg>
