<svg id="Westinghouse_logo_and_wordmark" xmlns="http://www.w3.org/2000/svg" width="149.526" height="42.17" viewBox="0 0 149.526 42.17">
  <g id="_ffffffff" data-name="#ffffffff" transform="translate(1.696 1.697)">
    <path id="Path_272" data-name="Path 272" d="M44.236,27.745A19.477,19.477,0,1,1,32.919,32.8a19.469,19.469,0,0,1,11.317-5.056m.307,1.5a17.98,17.98,0,1,0,8.2,1.18A17.91,17.91,0,0,0,44.543,29.243Z" transform="translate(-26.642 -27.656)" fill="#fff"/>
    <path id="Path_273" data-name="Path 273" d="M123.223,151.684a2.924,2.924,0,0,1,4.985,1.209,2.953,2.953,0,0,1-1.012,3.059q1.476,3.066,2.949,6.133c.974-2.019,1.953-4.035,2.921-6.056a2.923,2.923,0,1,1,3.377,0q1.463,3.029,2.938,6.053,1.452-3.057,2.9-6.113a3,3,0,0,1-.974-1.407,2.918,2.918,0,1,1,2.53,2.021q-2.263,4.524-4.522,9.052-2.291-4.539-4.576-9.081-2.321,4.539-4.638,9.081-2.251-4.533-4.5-9.068a2.926,2.926,0,0,1-2.384-4.887Z" transform="translate(-115.284 -141.504)" fill="#fff"/>
    <path id="Path_274" data-name="Path 274" d="M178.844,369.187c3.937-.011,7.875,0,11.812,0a2.4,2.4,0,0,1,1.537.472,2.146,2.146,0,0,1,.854,1.977,2.322,2.322,0,0,1-2.232,2q-5.959,0-11.916,0a2.311,2.311,0,0,1-2.263-2.433A2.258,2.258,0,0,1,178.844,369.187Z" transform="translate(-165.392 -343.601)" fill="#fff"/>
  </g>
  <g id="_083069ff" data-name="#083069ff" transform="translate(0 0)">
    <path id="Path_275" data-name="Path 275" d="M23.511,5.063a21.161,21.161,0,0,1,5.041,41.981,7.468,7.468,0,0,1-1.131.127c-1.594-.006-3.187,0-4.781-.005a20.946,20.946,0,0,1-9.634-3.678A21.163,21.163,0,0,1,15.034,7.572a21.035,21.035,0,0,1,8.477-2.508m-.225,1.723a19.434,19.434,0,1,0,9.556,1.494A19.4,19.4,0,0,0,23.285,6.787Z" transform="translate(-3.996 -5.001)" fill="#083069"/>
    <path id="Path_276" data-name="Path 276" d="M63.424,47.955a18,18,0,1,1-9.52,3.793,17.933,17.933,0,0,1,9.52-3.793m-9.962,8.593a2.927,2.927,0,0,0,2.384,4.887q2.255,4.531,4.5,9.068,2.32-4.54,4.638-9.081,2.293,4.538,4.576,9.081,2.262-4.527,4.522-9.052a2.929,2.929,0,1,0-2.53-2.021,3,3,0,0,0,.974,1.407q-1.45,3.057-2.9,6.112Q68.15,63.925,66.683,60.9a2.923,2.923,0,1,0-3.377,0c-.968,2.022-1.947,4.038-2.921,6.056q-1.477-3.065-2.949-6.133A2.927,2.927,0,0,0,55.809,55.6a2.919,2.919,0,0,0-2.346.95m5.513,15.406a2.258,2.258,0,0,0-2.209,2.009A2.311,2.311,0,0,0,59.03,76.4q5.958.006,11.916,0a2.322,2.322,0,0,0,2.232-2,2.146,2.146,0,0,0-.854-1.977,2.4,2.4,0,0,0-1.537-.472C66.85,71.953,62.913,71.943,58.975,71.954Z" transform="translate(-43.827 -44.672)" fill="#083069"/>
    <path id="Path_277" data-name="Path 277" d="M1108.59,183.59a1.373,1.373,0,0,1,1.653.6,1.292,1.292,0,0,1-.45,1.708,1.389,1.389,0,0,1-1.964-.574A1.289,1.289,0,0,1,1108.59,183.59Z" transform="translate(-1025.051 -170.14)" fill="#083069"/>
    <path id="Path_278" data-name="Path 278" d="M587.38,186.866h2.606q.785,5.038,1.568,10.075.908-5.038,1.813-10.075h2.762q.908,5.038,1.811,10.077.777-5.039,1.547-10.077h2.608q-1.37,8.009-2.74,16.018h-2.563q-1.02-5.544-2.034-11.09-1.029,5.544-2.053,11.09H590.1Q588.736,194.876,587.38,186.866Z" transform="translate(-543.685 -173.244)" fill="#083069"/>
    <path id="Path_279" data-name="Path 279" d="M1413.47,202.884q0-8.009,0-16.018h2.418q0,2.283,0,4.565a3.007,3.007,0,0,1,1.39-1.166,3.328,3.328,0,0,1,2.063.053,2.683,2.683,0,0,1,1.562,1.6,3.7,3.7,0,0,1,.218,1.4q0,4.783,0,9.566h-2.3q0-4.521,0-9.043a1.729,1.729,0,0,0-.5-1.37,1.6,1.6,0,0,0-1.506-.13,1.417,1.417,0,0,0-.924,1.352c0,3.063,0,6.127,0,9.191Z" transform="translate(-1307.902 -173.244)" fill="#083069"/>
    <path id="Path_280" data-name="Path 280" d="M917.871,203.883c.741.015,1.5-.032,2.23.023.009.736,0,1.472,0,2.207.627,0,1.255,0,1.882,0,0,.712,0,1.425,0,2.137H920.17V215.5a4.27,4.27,0,0,0,.155,1.207,4.793,4.793,0,0,0,.971,1.925c-.847,0-1.693,0-2.541,0a4.387,4.387,0,0,1-.542-1.005,5.131,5.131,0,0,1-.34-1.606c-.01-2.589,0-5.179,0-7.768-1.843,0-3.687,0-5.531,0a1.327,1.327,0,0,0-1.135,2.237,2.864,2.864,0,0,0,.966.834q1.128.593,2.254,1.19a3.327,3.327,0,0,1,1.469,1.4,4.086,4.086,0,0,1,.3,2.186,2.855,2.855,0,0,1-1.16,2.008,4.735,4.735,0,0,1-2.994.751,4.05,4.05,0,0,1-3.371-2.236,4.552,4.552,0,0,1-.422-2.217c.765,0,1.531,0,2.3,0a2.738,2.738,0,0,0,.536,1.76,1.787,1.787,0,0,0,1.9.546,1.338,1.338,0,0,0,.789-1.211,1.686,1.686,0,0,0-.9-1.29c-.8-.469-1.613-.924-2.412-1.4A5.4,5.4,0,0,1,909,211.423a3.674,3.674,0,0,1-.474-2.446,3.053,3.053,0,0,1,1.378-2.135,5,5,0,0,1,2.744-.726c1.74,0,3.48,0,5.22,0Q917.871,205,917.871,203.883Z" transform="translate(-840.517 -188.983)" fill="#083069"/>
    <path id="Path_281" data-name="Path 281" d="M1288.861,231.5a1.25,1.25,0,0,1,1.028-1.538,1.269,1.269,0,0,1,1.428,1.269,1.236,1.236,0,0,1-1.416,1.14,1.429,1.429,0,0,1-.812-.439,6.383,6.383,0,0,1,.392,2.362,9.961,9.961,0,0,1-.213,2.553,3.512,3.512,0,0,1-.979,1.769,3.308,3.308,0,0,1-1.995.8,4.917,4.917,0,0,1-2.326-.325c0,.563,0,1.125,0,1.688h3.679a4.385,4.385,0,0,1,1.917.353,2.306,2.306,0,0,1,1.1,1.079,3.552,3.552,0,0,1,.26,1.985,2.506,2.506,0,0,1-.954,1.712,3.725,3.725,0,0,1-2.254.6c-1.1,0-2.2.01-3.292-.007a2.693,2.693,0,0,1-1.906-.631,2.456,2.456,0,0,1-.357-1.953c.116-.721.87-1.059,1.518-1.152a1.762,1.762,0,0,1-1.409-.93,2.241,2.241,0,0,1,.152-1.982,1.877,1.877,0,0,1,1.369-.857,2.824,2.824,0,0,1-1.288-1.441,6.693,6.693,0,0,1-.384-2.589,9.8,9.8,0,0,1,.209-2.7,2.72,2.72,0,0,1,.975-1.481,3.735,3.735,0,0,1,1.94-.655,5.048,5.048,0,0,1,2.261.256,2.808,2.808,0,0,1,1.354,1.111m-3.5.6a1.3,1.3,0,0,0-.811.816,5.885,5.885,0,0,0-.244,2.21,4.028,4.028,0,0,0,.377,1.835,1.286,1.286,0,0,0,2.049.173,2.742,2.742,0,0,0,.478-1.378,10.167,10.167,0,0,0,0-2.114,2.189,2.189,0,0,0-.484-1.268,1.415,1.415,0,0,0-1.368-.273m-1.393,10.648q0,.963,0,1.926,1.914,0,3.827,0a1.977,1.977,0,0,0,.92-.174.905.905,0,0,0,.1-1.487,1.922,1.922,0,0,0-1.091-.267Q1285.845,242.744,1283.969,242.743Z" transform="translate(-1186.384 -213.098)" fill="#083069"/>
    <path id="Path_282" data-name="Path 282" d="M789.305,230.547a4.555,4.555,0,0,1,3.535.649,4.228,4.228,0,0,1,1.389,3.2c.022.971,0,1.943.01,2.915q-2.7,0-5.4,0c.008.674-.016,1.349.016,2.023a2.335,2.335,0,0,0,.47,1.436,1.629,1.629,0,0,0,1.368.377,1.077,1.077,0,0,0,.9-.612,4.33,4.33,0,0,0,.221-1.722h2.422a7.141,7.141,0,0,1-.158,2.013,3.413,3.413,0,0,1-1.809,2.267,5.135,5.135,0,0,1-3.284.2,3.1,3.1,0,0,1-2.141-1.968,15.841,15.841,0,0,1-.547-5.507,7.113,7.113,0,0,1,.611-3.7,3.28,3.28,0,0,1,2.395-1.57m-.246,2.59a4.154,4.154,0,0,0-.327,2.084h3.084a4.181,4.181,0,0,0-.371-2.177A1.439,1.439,0,0,0,789.059,233.137Z" transform="translate(-727.702 -213.571)" fill="#083069"/>
    <path id="Path_283" data-name="Path 283" d="M1166.848,230.6a3.053,3.053,0,0,1,2.147.171,3.182,3.182,0,0,1,1.606,2.371,14.837,14.837,0,0,1,.042,1.653v8.441H1168.3q0-4.372,0-8.743a1.928,1.928,0,0,0-.715-1.631,1.273,1.273,0,0,0-1.488.064,1.912,1.912,0,0,0-.683,1.566q0,4.373,0,8.744h-2.3q0-6.254,0-12.508h2.211c0,.354,0,.706,0,1.06A2.859,2.859,0,0,1,1166.848,230.6Z" transform="translate(-1076.296 -213.596)" fill="#083069"/>
    <path id="Path_284" data-name="Path 284" d="M1539.541,230.472a3.613,3.613,0,0,1,4.474,3.651c.022,1.9,0,3.8.01,5.7a3.86,3.86,0,0,1-.49,2.054,3.01,3.01,0,0,1-1.478,1.237,4.99,4.99,0,0,1-2.392.273,3.569,3.569,0,0,1-2.224-1.031,3.351,3.351,0,0,1-.859-2.238c-.017-1.845,0-3.691-.008-5.537a5.1,5.1,0,0,1,.526-2.5,3.258,3.258,0,0,1,2.441-1.606m.3,2.173a1.334,1.334,0,0,0-.961,1.074,12.5,12.5,0,0,0-.091,2.208c0,1.148,0,2.3,0,3.445a1.883,1.883,0,0,0,.623,1.532,1.589,1.589,0,0,0,1.736.023,1.872,1.872,0,0,0,.651-1.557c0-1.646,0-3.293,0-4.94a2.183,2.183,0,0,0-.444-1.459A1.611,1.611,0,0,0,1539.842,232.645Z" transform="translate(-1421.784 -213.53)" fill="#083069"/>
    <path id="Path_285" data-name="Path 285" d="M1774.155,232.3a3.52,3.52,0,0,1,2.973-1.875,3.639,3.639,0,0,1,2.767.844,4.463,4.463,0,0,1,1.242,3.155q-1.15,0-2.3,0a2.016,2.016,0,0,0-.808-1.66,1.373,1.373,0,0,0-1.926.637,1.023,1.023,0,0,0,.094.9,2.678,2.678,0,0,0,.98.892c.729.444,1.46.885,2.188,1.332a4.3,4.3,0,0,1,1.595,1.63,3.641,3.641,0,0,1,.386,1.959,3.385,3.385,0,0,1-.909,2.275,4.061,4.061,0,0,1-2.869,1.031,3.788,3.788,0,0,1-2.717-.958,4.764,4.764,0,0,1-1.363-3.635h2.252a2.6,2.6,0,0,0,.572,1.723,1.841,1.841,0,0,0,1.63.643,1.292,1.292,0,0,0,.956-1.449,2,2,0,0,0-.98-1.252q-1.229-.751-2.458-1.5a3.582,3.582,0,0,1-.889-.762A3.754,3.754,0,0,1,1774.155,232.3Z" transform="translate(-1640.952 -213.532)" fill="#083069"/>
    <path id="Path_286" data-name="Path 286" d="M1896.191,230.917a5.2,5.2,0,0,1,2.454-.416,3.639,3.639,0,0,1,2.313.872,4.4,4.4,0,0,1,1.226,3.133c.017.947,0,1.895.008,2.843q-2.7,0-5.4,0c.012.721-.026,1.444.025,2.165a2.1,2.1,0,0,0,.5,1.335,1.683,1.683,0,0,0,1.327.336,1.078,1.078,0,0,0,.9-.612,4.275,4.275,0,0,0,.22-1.722h2.422a7.626,7.626,0,0,1-.13,1.9,3.587,3.587,0,0,1-1.192,1.977,3.845,3.845,0,0,1-2.523.774,3.726,3.726,0,0,1-2.943-1.11,4.427,4.427,0,0,1-.876-1.9,28.277,28.277,0,0,1-.277-5.617,5.661,5.661,0,0,1,.561-2.631,3.022,3.022,0,0,1,1.38-1.326m.82,2.256a4.152,4.152,0,0,0-.326,2.084h3.083a4.143,4.143,0,0,0-.372-2.178A1.439,1.439,0,0,0,1897.011,233.173Z" transform="translate(-1752.667 -213.606)" fill="#083069"/>
    <path id="Path_287" data-name="Path 287" d="M1110.113,234.2h2.326q0,6.236,0,12.473h-2.326Q1110.112,240.436,1110.113,234.2Z" transform="translate(-1027.266 -217.033)" fill="#083069"/>
    <path id="Path_288" data-name="Path 288" d="M1657.056,233.8h2.3q0,4.389,0,8.778a2.456,2.456,0,0,0,.372,1.44,1.356,1.356,0,0,0,1.213.4,1.377,1.377,0,0,0,1.048-.862,4.686,4.686,0,0,0,.256-2.018q0-3.867,0-7.733c.748,0,1.5,0,2.246,0q0,6.258,0,12.517h-2.207c0-.352,0-.7,0-1.056a3.445,3.445,0,0,1-1.234,1.016,3.1,3.1,0,0,1-2.225.136,2.232,2.232,0,0,1-1.291-1.172,6.1,6.1,0,0,1-.48-2.592Q1657.055,238.225,1657.056,233.8Z" transform="translate(-1533.243 -216.663)" fill="#083069"/>
  </g>
</svg>
