<svg xmlns="http://www.w3.org/2000/svg" width="150.095" height="70.233" viewBox="0 0 150.095 70.233">
  <g id="Doosan_logo" transform="translate(0.051 0.051)">
    <rect id="Rectangle_187" data-name="Rectangle 187" width="50.085" height="50.085" transform="matrix(-0.309, 0.951, -0.951, -0.309, 63.103, 15.466)" fill="#014da2"/>
    <rect id="Rectangle_188" data-name="Rectangle 188" width="50.085" height="50.085" transform="matrix(-0.309, 0.951, -0.951, -0.309, 63.103, 15.466)" fill="none" stroke="#2e499a" stroke-width="0.081"/>
    <rect id="Rectangle_189" data-name="Rectangle 189" width="50.082" height="50.085" transform="translate(97.414 16.56) rotate(85.848)" fill="#009fdb"/>
    <rect id="Rectangle_190" data-name="Rectangle 190" width="50.082" height="50.085" transform="translate(97.414 16.56) rotate(85.848)" fill="none" stroke="#0d99d6" stroke-width="0.081"/>
    <path id="Path_251" data-name="Path 251" d="M106.062,62.445l5.5-49.782,49.773,5.5-5.489,49.78Z" transform="translate(-11.332 -1.391)" fill="#00ad7e"/>
    <path id="Path_252" data-name="Path 252" d="M106.062,62.445l5.5-49.782,49.773,5.5-5.489,49.78Z" transform="translate(-11.332 -1.391)" fill="none" stroke="#00a886" stroke-width="0.081"/>
    <path id="Path_253" data-name="Path 253" d="M13.411,30.639H24.675c8.975,0,7.931,4.257,6.269,8.941s-3.627,8.936-12.6,8.936H7.082Zm2.619,14.522h1.544c3.006,0,3.641-.751,5.356-5.582s1.6-5.587-1.4-5.587H19.988Z" transform="translate(-0.802 -3.303)" fill="#fff"/>
    <path id="Path_254" data-name="Path 254" d="M48.851,30.25c7.926,0,9.718,2.6,7.351,9.288s-6,9.288-13.931,9.288-9.718-2.6-7.349-9.288,6-9.288,13.93-9.288M43.386,45.669c2.377,0,3.089-1.3,4.8-6.132s1.923-6.136-.454-6.136-3.088,1.3-4.8,6.136-1.922,6.132.454,6.132" transform="translate(-3.66 -3.262)" fill="#fff"/>
    <path id="Path_255" data-name="Path 255" d="M73.961,30.25c7.925,0,9.72,2.6,7.351,9.288s-6,9.288-13.93,9.288-9.719-2.6-7.35-9.288,6-9.288,13.929-9.288M68.5,45.669c2.384,0,3.088-1.3,4.8-6.132s1.922-6.136-.456-6.136-3.094,1.3-4.8,6.136-1.924,6.132.454,6.132" transform="translate(-6.332 -3.262)" fill="#fff"/>
    <path id="Path_256" data-name="Path 256" d="M98.24,35.756l.147-.428c.372-1.052-.022-1.926-1.528-1.926-1.666,0-2.7.776-2.976,1.579-1.251,3.526,12.045,1.8,9.734,8.334-1.353,3.808-5.668,5.511-12.512,5.511-6.426,0-9.541-1.328-8.228-5.031l.22-.632h7.51l-.151.424c-.54,1.533.31,2.082,1.809,2.082a3.144,3.144,0,0,0,3.119-1.726c1.249-3.531-11.561-1.776-9.32-8.111,1.28-3.608,5.194-5.583,11.749-5.583,6.759,0,9.043,1.673,7.689,5.506H98.24Z" transform="translate(-8.834 -3.262)" fill="#fff"/>
    <path id="Path_257" data-name="Path 257" d="M117.123,30.639h9.765l.927,17.877h-8.259l.31-3.128H113.7l-1.9,3.128H103.53Zm3.628,3.657h-.083l-4.815,7.585h4.338Z" transform="translate(-11.062 -3.303)" fill="#fff"/>
    <path id="Path_258" data-name="Path 258" d="M138.115,30.639h8.678L147.9,41.656h.083l3.9-11.017h7.261l-6.334,17.877H144.3l-1.257-11.041h-.084l-3.913,11.041h-7.26Z" transform="translate(-14.068 -3.303)" fill="#fff"/>
  </g>
</svg>
