<svg id="Component_33_1" data-name="Component 33 – 1" xmlns="http://www.w3.org/2000/svg" width="104" height="115.229" viewBox="0 0 104 115.229">
  <path id="Path_64" data-name="Path 64" d="M784.692,356.443c7.2-5.638,11.242-29.945,26.962-24.741,27.043,8.953,38.857,101.983,12.688,113.239-14.4,6.193-24.034-12.106-31.573-17.259-13.276-9.074-52.038-12.735-56.659-28.2-4.374-14.634,5.019-21.465,9.567-25.28C753.888,367.32,776.252,363.049,784.692,356.443Z" transform="translate(-734.978 -330.977)" fill="#fff"/>
  <g id="Group_38" data-name="Group 38" transform="translate(27.891 41.836)">
    <path id="Path_2" data-name="Path 2" d="M944.81,361.512l-7.473-12.943c10.035,0,9.634-14.271.333-14.271H919.715l15.712,27.214Z" transform="translate(-893.65 -329.954)" fill-rule="evenodd"/>
    <path id="Path_3" data-name="Path 3" d="M792.021,361.473l4.692-8.126-11-19.049h-9.383Z" transform="translate(-763.299 -329.954)" fill-rule="evenodd"/>
    <path id="Path_4" data-name="Path 4" d="M648.637,361.473l4.691-8.126-11-19.049h-9.383Z" transform="translate(-632.948 -329.954)" fill-rule="evenodd"/>
    <path id="Path_5" data-name="Path 5" d="M1208.346,286.5a3.747,3.747,0,1,1-3.747,3.747,3.747,3.747,0,0,1,3.747-3.747Zm0,1.14a2.607,2.607,0,1,0,2.607,2.607A2.606,2.606,0,0,0,1208.346,287.642Z" transform="translate(-1152.64 -286.502)" fill-rule="evenodd"/>
  </g>
</svg>
