<svg xmlns="http://www.w3.org/2000/svg" width="147.912" height="29.913" viewBox="0 0 147.912 29.913">
  <g id="Group_37" data-name="Group 37" transform="translate(-1082.427 -480.529)">
    <path id="Path_36" data-name="Path 36" d="M1203.888,509.245a6.163,6.163,0,0,0-4.89,2v-8.106h-4.922v22.971H1199V524.57a6.163,6.163,0,0,0,4.89,2c4.3,0,7.843-3.774,7.843-8.663s-3.544-8.663-7.843-8.663Zm-.985,12.667a4,4,0,1,1,3.905-4,3.747,3.747,0,0,1-3.905,4Zm22.216-12.207v8.959c0,2.33-1.247,3.38-3.052,3.38a2.706,2.706,0,0,1-2.855-2.986V509.7h-4.922v10.074c0,4.43,2.822,6.793,6.136,6.793a5.61,5.61,0,0,0,4.693-2v1.542h4.922V509.7Zm13.454,2.92V509.7h-4.922v16.408h4.922V518.7c0-3.249,2.888-4.069,4.922-3.741v-5.579a4.928,4.928,0,0,0-4.922,3.249Zm25.6-3.38a5.4,5.4,0,0,0-4.758,2.166,4.883,4.883,0,0,0-4.3-2.166,5.036,5.036,0,0,0-4.4,1.969V509.7h-4.922v16.408h4.922v-9.254c0-1.936.919-3.084,2.56-3.084,1.575,0,2.363,1.05,2.363,2.691v9.648h4.922v-9.254c0-1.936.919-3.084,2.559-3.084,1.575,0,2.363,1.05,2.363,2.691v9.648h4.922V516.037c0-4.1-2.461-6.793-6.235-6.793Zm21.527.46v1.542a6.163,6.163,0,0,0-4.889-2c-4.3,0-7.843,3.774-7.843,8.663s3.544,8.663,7.843,8.663a6.163,6.163,0,0,0,4.889-2v1.542h4.922V509.7Zm-3.9,12.207a4,4,0,1,1,3.9-4,3.747,3.747,0,0,1-3.9,4Zm22.052-12.667a5.612,5.612,0,0,0-4.693,2V509.7h-4.922v16.408h4.922v-8.958c0-2.33,1.247-3.38,3.052-3.38a2.706,2.706,0,0,1,2.855,2.986v9.352h4.922V516.037C1309.98,511.608,1307.158,509.245,1303.844,509.245Z" transform="translate(-79.641 -16.129)" fill="#272974" fill-rule="evenodd"/>
    <path id="Path_37" data-name="Path 37" d="M1090.036,487.048h4.115a11.759,11.759,0,0,1,11.725,11.725h0a11.765,11.765,0,0,1-10.6,11.669v-5.4a6.373,6.373,0,0,0-1.129-12.645h-4.115v-5.351Zm2.986,23.394v-5.4a6.414,6.414,0,0,1-5.244-6.271V480.529h-5.351v18.243A11.765,11.765,0,0,0,1093.022,510.442Z" fill="#256cfa" fill-rule="evenodd"/>
  </g>
</svg>
