<svg id="Component_31_1" data-name="Component 31 – 1" xmlns="http://www.w3.org/2000/svg" width="975.645" height="1017.898" viewBox="0 0 975.645 1017.898">
  <path id="Path_9" data-name="Path 9" d="M1084.342,509.943c50.628-39.624,79-210.44,189.474-173.867,190.045,62.917,273.064,716.682,89.163,795.783-101.179,43.521-168.9-85.074-221.877-121.285-93.3-63.765-365.693-89.495-398.167-198.15-30.739-102.837,35.271-150.848,67.23-177.651C867.872,586.376,1025.034,556.362,1084.342,509.943Z" transform="translate(-277.355 -572.386) rotate(21)" fill="#f7a636"/>
  <path id="Path_10" data-name="Path 10" d="M891.5,523.221c67.037-33.346,138.685-189.356,232.029-189.356,106.682,0,121.056,189.91,162.687,251.633,38.055,56.422,229.363,45.34,229.363,159.084,0,115.617-157.717,159.8-218.694,200.961-53.15,35.88-69.7,177.1-173.356,185.755-234.7,19.6-410.717-215.091-368.045-504.063C771.326,519.965,853.175,542.287,891.5,523.221Z" transform="translate(-539.935 -224.205)" fill="#f4f4f4"/>
</svg>
