<svg id="Component_34_1" data-name="Component 34 – 1" xmlns="http://www.w3.org/2000/svg" xmlns:xlink="http://www.w3.org/1999/xlink" width="132.65" height="22.928" viewBox="0 0 132.65 22.928">
  <defs>
    <linearGradient id="linear-gradient" x1="0.754" y1="0.306" x2="0.258" y2="0.686" gradientUnits="objectBoundingBox">
      <stop offset="0" stop-color="#f7a636"/>
      <stop offset="1" stop-color="#eb6215"/>
    </linearGradient>
  </defs>
  <path id="Path_66" data-name="Path 66" d="M349.417,691.779l-5.34-9.249c7.171,0,6.885-10.2.237-10.2H331.483l11.228,19.448Z" transform="translate(-312.857 -669.227)" fill="#fff" fill-rule="evenodd"/>
  <path id="Path_67" data-name="Path 67" d="M313.045,691.751l3.353-5.807-7.859-13.613h-6.706Z" transform="translate(-292.521 -669.227)" fill="#fff" fill-rule="evenodd"/>
  <path id="Path_68" data-name="Path 68" d="M283.4,691.751l3.353-5.807-7.859-13.613h-6.706Z" transform="translate(-272.184 -669.227)" fill="#fff" fill-rule="evenodd"/>
  <g id="Group_44" data-name="Group 44" transform="translate(44.367 10.134)">
    <path id="Path_69" data-name="Path 69" d="M670.033,705.1l1.538-.711a2.115,2.115,0,0,0,.805,1.209,2.487,2.487,0,0,0,1.49.417,1.921,1.921,0,0,0,1.369-.478,1.672,1.672,0,0,0,.506-1.277q0-1.045-1.737-1.864c-.163-.08-.288-.141-.373-.177a8.362,8.362,0,0,1-2.614-1.731,2.845,2.845,0,0,1-.652-1.892,3.038,3.038,0,0,1,.984-2.351,3.677,3.677,0,0,1,2.583-.9,4.362,4.362,0,0,1,2.2.506,2.665,2.665,0,0,1,1.222,1.452l-1.5.78a2.478,2.478,0,0,0-.783-.818,1.836,1.836,0,0,0-.979-.26,1.8,1.8,0,0,0-1.236.406,1.367,1.367,0,0,0-.459,1.084q0,1.071,2.013,1.994c.1.05.183.089.243.113a7.193,7.193,0,0,1,2.414,1.585,2.894,2.894,0,0,1,.655,1.933,3.488,3.488,0,0,1-1.062,2.677,4.039,4.039,0,0,1-2.87.993,4.155,4.155,0,0,1-2.484-.7A3.256,3.256,0,0,1,670.033,705.1Z" transform="translate(-589.432 -695.146)" fill="#fff" fill-rule="evenodd"/>
    <path id="Path_70" data-name="Path 70" d="M644.087,708.055V696.191h6.621v1.643h-4.7v2.97h4.7V702.5h-4.7v3.833h4.7v1.726Z" transform="translate(-571.636 -695.726)" fill="#fff" fill-rule="evenodd"/>
    <path id="Path_71" data-name="Path 71" d="M611.327,708.055V696.191h1.925V701.1l4.264-4.912h2.362l-4.7,5.277,5.263,6.587h-2.489l-4.7-6.062v6.062Z" transform="translate(-549.166 -695.726)" fill="#fff" fill-rule="evenodd"/>
    <path id="Path_72" data-name="Path 72" d="M581.991,707.04l-.477-1.084-1.564-3.578h.017l-1.217-2.7c-.069-.171-.144-.37-.219-.595s-.152-.473-.227-.749c-.063.26-.133.5-.208.724s-.147.432-.221.619l-.488,1.086,0,.011-.723,1.608h0l-1.145,2.557h0l-.95,2.106h-2.024l5.744-12.329,5.738,12.329Z" transform="translate(-522.566 -694.711)" fill="#fff" fill-rule="evenodd"/>
    <path id="Path_73" data-name="Path 73" d="M550.519,708.055V696.191h1.925v10.138h4.314v1.726Z" transform="translate(-507.459 -695.726)" fill="#fff" fill-rule="evenodd"/>
    <path id="Path_74" data-name="Path 74" d="M525.912,697.833v10.221h-1.925V697.833h-3.153v-1.643h8.214v1.643Z" transform="translate(-487.099 -695.726)" fill="#fff" fill-rule="evenodd"/>
    <path id="Path_75" data-name="Path 75" d="M494.463,705.1l1.538-.711a2.116,2.116,0,0,0,.805,1.209,2.487,2.487,0,0,0,1.49.417,1.919,1.919,0,0,0,1.369-.478,1.671,1.671,0,0,0,.506-1.277q0-1.045-1.737-1.864c-.163-.08-.288-.141-.373-.177a8.361,8.361,0,0,1-2.613-1.731,2.844,2.844,0,0,1-.653-1.892,3.038,3.038,0,0,1,.984-2.351,3.677,3.677,0,0,1,2.583-.9,4.36,4.36,0,0,1,2.2.506,2.664,2.664,0,0,1,1.222,1.452l-1.5.78a2.478,2.478,0,0,0-.782-.818,1.837,1.837,0,0,0-.979-.26,1.8,1.8,0,0,0-1.236.406,1.368,1.368,0,0,0-.459,1.084q0,1.071,2.013,1.994c.1.05.183.089.244.113a7.2,7.2,0,0,1,2.414,1.585,2.892,2.892,0,0,1,.655,1.933,3.488,3.488,0,0,1-1.062,2.677,4.038,4.038,0,0,1-2.87.993,4.152,4.152,0,0,1-2.483-.7A3.253,3.253,0,0,1,494.463,705.1Z" transform="translate(-469.011 -695.146)" fill="#fff" fill-rule="evenodd"/>
    <path id="Path_76" data-name="Path 76" d="M467.526,708.055V696.191h6.621v1.643h-4.7v2.97h4.7V702.5h-4.7v3.833h4.7v1.726Z" transform="translate(-450.535 -695.726)" fill="#fff" fill-rule="evenodd"/>
    <path id="Path_77" data-name="Path 77" d="M413.433,695.176h1.906l2.245,5.99c.144.393.268.738.368,1.037s.188.575.263.832q.286-.938.592-1.839c.028-.074.047-.127.058-.152l2.381-6.333,2.511,6.455q.179.468.337.937c.105.315.2.63.3.949.053-.244.127-.509.219-.8s.21-.636.357-1.037l2.229-6.037h1.919L424.52,707.5l-2.708-6.77q-.179-.452-.324-.871c-.1-.277-.186-.542-.26-.788-.091.318-.183.617-.276.893s-.185.545-.282.8l-2.658,6.737Z" transform="translate(-413.433 -694.711)" fill="#fff" fill-rule="evenodd"/>
  </g>
  <path id="Path_78" data-name="Path 78" d="M393.071,662.448a2.678,2.678,0,1,1-2.678,2.678,2.678,2.678,0,0,1,2.678-2.678Zm0,.815a1.863,1.863,0,1,0,1.863,1.863A1.863,1.863,0,0,0,393.071,663.263Z" transform="translate(-353.263 -662.448)" fill-rule="evenodd" fill="url(#linear-gradient)"/>
</svg>
