<svg width="97" height="150" viewBox="0 0 97 150" fill="none" xmlns="http://www.w3.org/2000/svg">
<path d="M63.7882 53.3872L67.9479 141.931C67.9794 142.604 67.8741 143.276 67.6383 143.907C67.4025 144.538 67.0412 145.114 66.5762 145.601C66.1112 146.089 65.5522 146.476 64.933 146.741C64.3138 147.006 63.6473 147.143 62.9737 147.143C61.8241 147.143 60.71 146.745 59.8206 146.017C58.9312 145.288 58.3214 144.274 58.0948 143.147L48.9688 97.2769C48.9647 97.2501 48.9511 97.2256 48.9305 97.2079C48.9099 97.1902 48.8836 97.1805 48.8564 97.1805C48.8293 97.1805 48.803 97.1902 48.7824 97.2079C48.7618 97.2256 48.7482 97.2501 48.744 97.2769L39.6181 143.147C39.3925 144.277 38.7826 145.293 37.8921 146.024C37.0016 146.754 35.8855 147.153 34.7338 147.154V147.154C34.0605 147.153 33.3943 147.016 32.7754 146.751C32.1565 146.486 31.5978 146.098 31.1331 145.611C30.6684 145.124 30.3073 144.547 30.0717 143.917C29.8361 143.286 29.7308 142.614 29.7623 141.941L33.9246 53.3978" stroke="white" stroke-width="5" stroke-miterlimit="10" stroke-linecap="round"/>
<path d="M48.8548 35.2119H33.7498C31.906 35.2112 30.0999 35.7346 28.5422 36.7211C26.9845 37.7076 25.7393 39.1166 24.9517 40.7837L14.0752 63.7903C13.2495 65.5381 12.9629 67.4921 13.2521 69.4033C13.5413 71.3145 14.3931 73.0963 15.6989 74.5215L32.0944 92.4058" stroke="white" stroke-width="5" stroke-miterlimit="10" stroke-linecap="round"/>
<path d="M48.855 35.2119H63.9626C65.8064 35.2115 67.6123 35.7351 69.1699 36.7215C70.7276 37.708 71.9729 39.1168 72.7607 40.7837L83.6372 63.7903C84.4622 65.5382 84.7484 67.4921 84.4592 69.4031C84.1701 71.3142 83.3187 73.0959 82.0136 74.5215L65.6181 92.4058" stroke="white" stroke-width="5" stroke-miterlimit="10" stroke-linecap="round"/>
<path d="M48.8548 35.2092C57.0481 35.2092 63.6901 27.9989 63.6901 19.1046C63.6901 10.2103 57.0481 3 48.8548 3C40.6615 3 34.0195 10.2103 34.0195 19.1046C34.0195 27.9989 40.6615 35.2092 48.8548 35.2092Z" stroke="white" stroke-width="5" stroke-miterlimit="10" stroke-linecap="round"/>
<path d="M16.5954 75.5054L4 117.367L29.7568 123.407" stroke="white" stroke-width="5" stroke-miterlimit="10" stroke-linecap="round"/>
<path d="M81.1169 75.5054L93.7124 117.367L67.9556 123.407" stroke="white" stroke-width="5" stroke-miterlimit="10" stroke-linecap="round"/>
<path d="M52.4091 51.7446L50.0291 55.0924L54.0566 55.4653L46.1524 64.4854L48.6884 58.0727L45.6314 57.6998L48.8471 51.0015C46.9094 51.0535 45.0584 51.8154 43.6457 53.1425C42.2329 54.4696 41.3568 56.2694 41.1839 58.2C41.011 60.1306 41.5532 62.0575 42.7076 63.6146C43.862 65.1716 45.5481 66.2504 47.4457 66.646C49.3432 67.0415 51.3199 66.7263 53.0003 65.7601C54.6807 64.794 55.9476 63.2443 56.5605 61.4054C57.1733 59.5665 57.0893 57.5665 56.3245 55.7855C55.5596 54.0045 54.1672 52.5664 52.4118 51.7446H52.4091Z" fill="white"/>
</svg>
