<svg width="97" height="150" viewBox="0 0 97 150" fill="none" xmlns="http://www.w3.org/2000/svg">
<path d="M63.7882 53.387L67.9479 141.931C67.9794 142.603 67.8741 143.276 67.6383 143.906C67.4025 144.537 67.0412 145.114 66.5762 145.601C66.1112 146.088 65.5522 146.476 64.933 146.741C64.3138 147.006 63.6473 147.143 62.9737 147.143C61.8241 147.143 60.71 146.745 59.8206 146.016C58.9312 145.288 58.3214 144.274 58.0948 143.147L48.9688 97.2767C48.9647 97.2498 48.9511 97.2253 48.9305 97.2076C48.9099 97.19 48.8836 97.1802 48.8564 97.1802C48.8293 97.1802 48.803 97.19 48.7824 97.2076C48.7618 97.2253 48.7482 97.2498 48.744 97.2767L39.6181 143.147C39.3925 144.276 38.7826 145.293 37.8921 146.023C37.0016 146.754 35.8855 147.153 34.7338 147.153V147.153C34.0605 147.153 33.3943 147.016 32.7754 146.751C32.1565 146.486 31.5978 146.098 31.1331 145.611C30.6684 145.124 30.3073 144.547 30.0717 143.916C29.8361 143.286 29.7308 142.614 29.7623 141.941L33.9246 53.3975" stroke="black" stroke-width="5" stroke-miterlimit="10" stroke-linecap="round"/>
<path d="M48.8548 35.2117H33.7498C31.906 35.211 30.0999 35.7344 28.5422 36.7209C26.9845 37.7074 25.7393 39.1163 24.9517 40.7835L14.0752 63.7901C13.2495 65.5378 12.9629 67.4918 13.2521 69.403C13.5413 71.3142 14.3931 73.096 15.6989 74.5212L32.0944 92.4055" stroke="black" stroke-width="5" stroke-miterlimit="10" stroke-linecap="round"/>
<path d="M48.8545 35.2117H63.9622C65.8059 35.2113 67.6118 35.7348 69.1694 36.7213C70.7271 37.7078 71.9724 39.1165 72.7602 40.7835L83.6368 63.7901C84.4618 65.538 84.7479 67.4918 84.4587 69.4029C84.1696 71.3139 83.3182 73.0957 82.0131 74.5212L65.6176 92.4055" stroke="black" stroke-width="5" stroke-miterlimit="10" stroke-linecap="round"/>
<path d="M48.8548 35.2092C57.0481 35.2092 63.6901 27.9989 63.6901 19.1046C63.6901 10.2103 57.0481 3 48.8548 3C40.6615 3 34.0195 10.2103 34.0195 19.1046C34.0195 27.9989 40.6615 35.2092 48.8548 35.2092Z" stroke="black" stroke-width="5" stroke-miterlimit="10" stroke-linecap="round"/>
<path d="M16.5954 75.5051L4 117.367L29.7568 123.406" stroke="black" stroke-width="5" stroke-miterlimit="10" stroke-linecap="round"/>
<path d="M81.1174 75.5051L93.7129 117.367L67.9561 123.406" stroke="black" stroke-width="5" stroke-miterlimit="10" stroke-linecap="round"/>
<path d="M52.4091 51.7448L50.0291 55.0926L54.0566 55.4655L46.1524 64.4857L48.6884 58.0729L45.6314 57.7001L48.8471 51.0017C46.9094 51.0537 45.0584 51.8156 43.6457 53.1428C42.2329 54.4699 41.3568 56.2697 41.1839 58.2003C41.011 60.1309 41.5532 62.0577 42.7076 63.6148C43.862 65.1719 45.5481 66.2506 47.4457 66.6462C49.3432 67.0418 51.3199 66.7265 53.0003 65.7604C54.6807 64.7942 55.9476 63.2445 56.5605 61.4056C57.1733 59.5667 57.0893 57.5668 56.3245 55.7857C55.5596 54.0047 54.1672 52.5667 52.4118 51.7448H52.4091Z" fill="black"/>
</svg>
