<svg width="77" height="162" viewBox="0 0 77 162" fill="none" xmlns="http://www.w3.org/2000/svg">
<path d="M53.6448 65.1411L57.8071 153.685C57.8386 154.358 57.7333 155.03 57.4975 155.661C57.2617 156.292 56.9004 156.868 56.4354 157.355C55.9704 157.843 55.4114 158.23 54.7922 158.495C54.173 158.76 53.5065 158.897 52.833 158.897C51.6829 158.898 50.5681 158.5 49.6782 157.771C48.7882 157.043 48.178 156.029 47.9513 154.901L38.8254 109.041C38.8213 109.015 38.8076 108.99 38.787 108.972C38.7664 108.955 38.7402 108.945 38.713 108.945C38.6858 108.945 38.6596 108.955 38.639 108.972C38.6183 108.99 38.6047 109.015 38.6006 109.041L29.4747 154.901C29.2491 156.031 28.6392 157.047 27.7487 157.777C26.8582 158.508 25.7421 158.907 24.5904 158.908V158.908C23.917 158.908 23.2506 158.771 22.6315 158.506C22.0124 158.241 21.4536 157.853 20.9888 157.366C20.524 156.878 20.163 156.302 19.9275 155.671C19.692 155.04 19.587 154.368 19.6188 153.695L23.7812 65.1517" stroke="black" stroke-width="5" stroke-miterlimit="10" stroke-linecap="round"/>
<path d="M38.7122 46.9658H23.6045C21.7612 46.9656 19.9557 47.4893 18.3985 48.4757C16.8413 49.4622 15.5965 50.8709 14.8092 52.5376L3.93259 75.5442C3.10688 77.292 2.82035 79.246 3.10952 81.1572C3.3987 83.0684 4.25048 84.8502 5.55627 86.2754L21.9518 104.16" stroke="black" stroke-width="5" stroke-miterlimit="10" stroke-linecap="round"/>
<path d="M38.7119 46.9658H53.8196C55.6633 46.9654 57.4692 47.489 59.0269 48.4754C60.5845 49.4619 61.8298 50.8707 62.6176 52.5376L73.4942 75.5442C74.3192 77.2921 74.6053 79.246 74.3162 81.157C74.027 83.0681 73.1757 84.8498 71.8705 86.2754L55.475 104.16" stroke="black" stroke-width="5" stroke-miterlimit="10" stroke-linecap="round"/>
<path d="M38.7122 46.9634C46.9055 46.9634 53.5475 39.7531 53.5475 30.8588C53.5475 21.9644 46.9055 14.7542 38.7122 14.7542C30.5189 14.7542 23.877 21.9644 23.877 30.8588C23.877 39.7531 30.5189 46.9634 38.7122 46.9634Z" stroke="black" stroke-width="5" stroke-miterlimit="10" stroke-linecap="round"/>
<path d="M38.7117 8.20385C46.7926 8.20385 53.3434 6.81507 53.3434 5.10192C53.3434 3.38878 46.7926 2 38.7117 2C30.6309 2 24.0801 3.38878 24.0801 5.10192C24.0801 6.81507 30.6309 8.20385 38.7117 8.20385Z" stroke="black" stroke-width="4" stroke-miterlimit="10" stroke-linecap="round"/>
</svg>
