<svg width="47" height="49" viewBox="0 0 47 49" fill="none" xmlns="http://www.w3.org/2000/svg">
<path d="M21.0059 0C15.3848 0 10.2715 1.01562 6.47461 2.71875C4.57617 3.57031 2.99023 4.60156 1.84961 5.8125C0.763672 6.96484 0.0683594 8.31641 0.00585938 9.78125C0.00195312 9.83203 0.00195312 9.88672 0.00585938 9.9375C0.00585938 9.95703 0.00585938 9.98047 0.00585938 10V19.8125C-0.00195312 19.875 -0.00195312 19.9375 0.00585938 20V29.8125C-0.00195312 29.875 -0.00195312 29.9375 0.00585938 30V39C0.00585938 40.5508 0.708984 41.9766 1.84961 43.1875C2.99023 44.3984 4.57617 45.4297 6.47461 46.2812C10.2715 47.9844 15.3848 49 21.0059 49C23.877 49 26.627 48.6875 29.1621 48.2812C29.5371 48.2539 29.8652 48.0156 30.0098 47.668C30.1543 47.3203 30.0918 46.918 29.8457 46.6328C29.5996 46.3477 29.2168 46.2227 28.8496 46.3125C26.3848 46.707 23.7363 47 21.0059 47C15.627 47 10.7402 46.0156 7.28711 44.4688C5.56055 43.6953 4.20898 42.7891 3.31836 41.8438C2.42773 40.8984 2.00586 39.9492 2.00586 39V34.3438C3.13477 35.4883 4.6582 36.4648 6.47461 37.2812C10.2715 38.9844 15.3848 40 21.0059 40C22.7441 40 24.4863 39.8945 26.1309 39.6875C26.5176 39.6875 26.8691 39.4648 27.0332 39.1133C27.2012 38.7617 27.1465 38.3477 26.9004 38.0508C26.6543 37.75 26.2559 37.6211 25.8809 37.7188C24.3262 37.9141 22.666 38 21.0059 38C15.627 38 10.7402 37.0156 7.28711 35.4688C5.56055 34.6953 4.20898 33.7891 3.31836 32.8438C2.42773 31.8984 2.00586 30.9492 2.00586 30C2.01367 29.9375 2.01367 29.875 2.00586 29.8125V24.3438C3.13477 25.4883 4.6582 26.4648 6.47461 27.2812C10.2715 28.9844 15.3848 30 21.0059 30C26.627 30 31.7402 28.9844 35.5371 27.2812C37.3535 26.4648 38.877 25.4883 40.0059 24.3438V29C40.002 29.3594 40.1895 29.6953 40.502 29.8789C40.8145 30.0586 41.1973 30.0586 41.5098 29.8789C41.8223 29.6953 42.0098 29.3594 42.0059 29V10C42.0059 9.96875 42.0059 9.9375 42.0059 9.90625C42.0059 9.875 42.0059 9.84375 42.0059 9.8125C42.0059 9.80078 42.0059 9.79297 42.0059 9.78125C41.998 9.76172 41.9863 9.73828 41.9746 9.71875C41.8926 8.28125 41.2324 6.94922 40.1621 5.8125C39.0215 4.60156 37.4355 3.57031 35.5371 2.71875C31.7402 1.01562 26.627 0 21.0059 0ZM21.0059 2C26.3848 2 31.2715 2.98438 34.7246 4.53125C36.4512 5.30469 37.8027 6.21094 38.6934 7.15625C39.584 8.10156 40.0059 9.05078 40.0059 10C40.0059 10.9492 39.584 11.8984 38.6934 12.8438C37.8027 13.7891 36.4512 14.6953 34.7246 15.4688C31.2715 17.0156 26.3848 18 21.0059 18C15.627 18 10.7402 17.0156 7.28711 15.4688C5.56055 14.6953 4.20898 13.7891 3.31836 12.8438C2.42773 11.8984 2.00586 10.9492 2.00586 10C2.00586 9.96875 2.00586 9.9375 2.00586 9.90625C2.0332 8.98828 2.45508 8.07031 3.31836 7.15625C4.20898 6.21094 5.56055 5.30469 7.28711 4.53125C10.7402 2.98438 15.627 2 21.0059 2ZM2.00586 14.3438C3.13477 15.4883 4.6582 16.4648 6.47461 17.2812C10.2715 18.9844 15.3848 20 21.0059 20C26.627 20 31.7402 18.9844 35.5371 17.2812C37.3535 16.4648 38.877 15.4883 40.0059 14.3438V20C40.0059 20.9492 39.584 21.8984 38.6934 22.8438C37.8027 23.7891 36.4512 24.6953 34.7246 25.4688C31.2715 27.0156 26.3848 28 21.0059 28C15.627 28 10.7402 27.0156 7.28711 25.4688C5.56055 24.6953 4.20898 23.7891 3.31836 22.8438C2.42773 21.8984 2.00586 20.9492 2.00586 20C2.01367 19.9375 2.01367 19.875 2.00586 19.8125V14.3438Z" fill="black"/>
<path d="M36.9062 30C36.8135 30 36.7238 30.033 36.6531 30.0931C36.5824 30.1531 36.5353 30.2363 36.5203 30.3279L36.1396 32.6581C35.6819 32.7913 35.2455 32.9709 34.8341 33.1946L32.9111 31.8212C32.8358 31.7675 32.7439 31.7421 32.6517 31.7497C32.5595 31.7572 32.4729 31.7972 32.4074 31.8625L30.8848 33.3834C30.8198 33.4485 30.7797 33.5345 30.7718 33.6262C30.7638 33.7178 30.7884 33.8094 30.8413 33.8848L32.1941 35.8199C31.9669 36.2336 31.7833 36.6725 31.6469 37.1344L29.3264 37.5204C29.2351 37.5357 29.1523 37.583 29.0925 37.6536C29.0328 37.7243 29 37.8138 29 37.9063V40.0585C28.9998 40.1505 29.0321 40.2396 29.0911 40.3102C29.15 40.3807 29.232 40.4283 29.3225 40.4445L31.6446 40.8556C31.7803 41.3168 31.9627 41.756 32.1903 42.1702L30.8206 44.0862C30.7669 44.1615 30.7415 44.2534 30.7491 44.3456C30.7566 44.4378 30.7966 44.5243 30.8619 44.5898L32.3837 46.1123C32.4487 46.1772 32.5344 46.2173 32.626 46.2254C32.7175 46.2335 32.809 46.2091 32.8843 46.1566L34.8234 44.7993C35.236 45.0243 35.6735 45.2053 36.1327 45.3396L36.5203 47.6729C36.5355 47.7643 36.5826 47.8473 36.6533 47.9072C36.724 47.9671 36.8136 48 36.9062 48H39.0586C39.1507 48.0001 39.2399 47.9678 39.3105 47.9087C39.3811 47.8495 39.4286 47.7674 39.4446 47.6767L39.8596 45.3342C40.317 45.1979 40.7524 45.0142 41.1628 44.7878L43.1149 46.1574C43.1903 46.2102 43.2818 46.2348 43.3735 46.2268C43.4652 46.2189 43.5512 46.1788 43.6163 46.1138L45.1381 44.5906C45.2037 44.5249 45.2438 44.438 45.2512 44.3455C45.2586 44.2529 45.2329 44.1608 45.1786 44.0854L43.7867 42.1534C44.0093 41.745 44.1886 41.3122 44.3218 40.8579L46.6767 40.4452C46.7674 40.4292 46.8495 40.3817 46.9087 40.3111C46.9678 40.2405 47.0001 40.1514 47 40.0593V37.9071C46.9999 37.8143 46.967 37.7246 46.9069 37.6539C46.8468 37.5833 46.7636 37.5362 46.6721 37.5211L44.321 37.1367C44.1869 36.683 44.0071 36.251 43.7845 35.8428L45.1572 33.8871C45.2101 33.8117 45.2347 33.7201 45.2267 33.6284C45.2187 33.5368 45.1787 33.4508 45.1136 33.3857L43.5911 31.864C43.5254 31.7985 43.4385 31.7584 43.3459 31.751C43.2534 31.7436 43.1612 31.7693 43.0859 31.8235L41.159 33.2092C40.7484 32.9836 40.3127 32.801 39.8543 32.6658L39.4446 30.324C39.4287 30.2332 39.3813 30.1509 39.3107 30.0916C39.2401 30.0323 39.1508 29.9999 39.0586 30H36.9062ZM37.2395 30.7826H38.7299L39.1197 33.0074C39.1327 33.082 39.1671 33.1513 39.2186 33.2067C39.2702 33.2622 39.3367 33.3016 39.4102 33.32C39.9825 33.4626 40.5201 33.6886 41.0107 33.9856C41.0763 34.0254 41.1521 34.045 41.2288 34.042C41.3054 34.039 41.3795 34.0136 41.4418 33.9688L43.2731 32.6528L44.3271 33.7067L43.0232 35.5646C42.9796 35.6266 42.955 35.6999 42.9523 35.7756C42.9496 35.8513 42.9689 35.9261 43.0079 35.9911C43.302 36.4806 43.525 37.0147 43.6675 37.5838C43.6861 37.6579 43.7259 37.725 43.7822 37.7768C43.8384 37.8285 43.9085 37.8627 43.9839 37.875L46.2173 38.2403V39.7306L43.9794 40.1235C43.9047 40.1367 43.8355 40.1713 43.7801 40.2232C43.7247 40.275 43.6856 40.3418 43.6675 40.4154C43.5267 40.9838 43.3035 41.5179 43.0094 42.0074C42.97 42.073 42.9506 42.1487 42.9537 42.2252C42.9568 42.3016 42.9823 42.3755 43.027 42.4377L44.3493 44.2727L43.2953 45.3274L41.4403 44.0258C41.378 43.9822 41.3043 43.9577 41.2283 43.9552C41.1523 43.9528 41.0772 43.9725 41.0122 44.0121C40.524 44.3091 39.9859 44.5362 39.4155 44.6808C39.3424 44.6992 39.2762 44.7384 39.2248 44.7936C39.1734 44.8488 39.139 44.9176 39.1259 44.9918L38.7307 47.2174H37.238L36.8696 45.0018C36.857 44.9264 36.8227 44.8564 36.7708 44.8003C36.7189 44.7442 36.6517 44.7045 36.5776 44.6861C36.0049 44.545 35.465 44.3193 34.971 44.0228C34.9061 43.9839 34.8314 43.9647 34.7558 43.9674C34.6803 43.9701 34.6071 43.9947 34.5452 44.038L32.7047 45.3274L31.6499 44.2711L32.9508 42.453C32.9953 42.3907 33.0205 42.3167 33.0234 42.2402C33.0262 42.1637 33.0066 42.0881 32.9669 42.0227C32.6671 41.5274 32.4404 40.9875 32.2973 40.4124C32.279 40.3391 32.2399 40.2727 32.1847 40.2212C32.1295 40.1696 32.0606 40.1352 31.9862 40.1219L29.7827 39.7306V38.238L31.9847 37.8719C32.06 37.8595 32.13 37.8252 32.1861 37.7735C32.2421 37.7218 32.2819 37.6548 32.3004 37.5808C32.4447 37.0036 32.6713 36.4639 32.9699 35.9697C33.0093 35.9048 33.029 35.8299 33.0265 35.754C33.0241 35.6782 32.9997 35.6047 32.9562 35.5425L31.6706 33.7052L32.7261 32.6505L34.5506 33.9543C34.6126 33.9986 34.6863 34.0237 34.7625 34.0267C34.8386 34.0297 34.914 34.0104 34.9794 33.9711C35.4707 33.676 36.012 33.4521 36.5852 33.3116C36.6597 33.2932 36.7272 33.2534 36.7793 33.197C36.8313 33.1406 36.8656 33.0701 36.878 32.9944L37.2395 30.7826ZM38 35.8696C36.2756 35.8696 34.8693 37.2757 34.8693 39C34.8693 40.7243 36.2756 42.1304 38 42.1304C39.7244 42.1304 41.1307 40.7243 41.1307 39C41.1307 37.2757 39.7244 35.8696 38 35.8696ZM38 36.6522C39.3014 36.6522 40.348 37.6987 40.348 39C40.348 40.3013 39.3014 41.3478 38 41.3478C36.6986 41.3478 35.652 40.3013 35.652 39C35.652 37.6987 36.6986 36.6522 38 36.6522Z" fill="black"/>
</svg>
