<svg width="54" height="56" viewBox="0 0 54 56" fill="none" xmlns="http://www.w3.org/2000/svg">
<path d="M43.9062 34.3257C43.8135 34.3257 43.7238 34.3587 43.6531 34.4188C43.5824 34.4788 43.5353 34.562 43.5203 34.6536L43.1396 36.9838C42.6819 37.1169 42.2455 37.2966 41.8341 37.5203L39.9111 36.1469C39.8358 36.0932 39.7439 36.0678 39.6517 36.0754C39.5595 36.0829 39.4729 36.1229 39.4074 36.1882L37.8848 37.7091C37.8198 37.7742 37.7797 37.8601 37.7718 37.9518C37.7638 38.0435 37.7884 38.1351 37.8413 38.2104L39.1941 40.1456C38.9669 40.5593 38.7833 40.9981 38.6469 41.4601L36.3264 41.8461C36.2351 41.8614 36.1523 41.9086 36.0925 41.9793C36.0328 42.0499 36 42.1395 36 42.232V44.3842C35.9998 44.4762 36.0321 44.5653 36.0911 44.6358C36.15 44.7064 36.232 44.754 36.3225 44.7701L38.6446 45.1813C38.7803 45.6425 38.9627 46.0817 39.1903 46.4959L37.8206 48.4119C37.7669 48.4872 37.7415 48.5791 37.7491 48.6713C37.7566 48.7635 37.7966 48.85 37.8619 48.9155L39.3837 50.4379C39.4487 50.5029 39.5344 50.543 39.626 50.5511C39.7175 50.5592 39.809 50.5348 39.8843 50.4823L41.8234 49.1249C42.236 49.35 42.6735 49.531 43.1327 49.6653L43.5203 51.9986C43.5355 52.09 43.5826 52.173 43.6533 52.2329C43.724 52.2928 43.8136 52.3257 43.9062 52.3257H46.0586C46.1507 52.3258 46.2399 52.2935 46.3105 52.2343C46.3811 52.1752 46.4286 52.0931 46.4446 52.0024L46.8596 49.6599C47.317 49.5236 47.7524 49.3399 48.1628 49.1135L50.1149 50.483C50.1903 50.5359 50.2818 50.5605 50.3735 50.5525C50.4652 50.5446 50.5512 50.5045 50.6163 50.4395L52.1381 48.9163C52.2037 48.8506 52.2438 48.7637 52.2512 48.6711C52.2586 48.5786 52.2329 48.4864 52.1786 48.4111L50.7867 46.479C51.0093 46.0707 51.1886 45.6379 51.3218 45.1836L53.6767 44.7709C53.7674 44.7549 53.8495 44.7074 53.9087 44.6368C53.9678 44.5662 54.0001 44.477 54 44.385V42.2328C53.9999 42.14 53.967 42.0503 53.9069 41.9796C53.8468 41.9089 53.7636 41.8619 53.6721 41.8468L51.321 41.4624C51.1869 41.0087 51.0071 40.5767 50.7845 40.1685L52.1572 38.2127C52.2101 38.1374 52.2347 38.0458 52.2267 37.9541C52.2187 37.8624 52.1787 37.7765 52.1136 37.7114L50.5911 36.1897C50.5254 36.1242 50.4385 36.0841 50.3459 36.0767C50.2534 36.0692 50.1612 36.095 50.0859 36.1492L48.159 37.5348C47.7484 37.3093 47.3127 37.1266 46.8543 36.9914L46.4446 34.6497C46.4287 34.5589 46.3813 34.4766 46.3107 34.4173C46.2401 34.358 46.1508 34.3256 46.0586 34.3257H43.9062ZM44.2395 35.1083H45.7299L46.1197 37.3331C46.1327 37.4077 46.1671 37.4769 46.2186 37.5324C46.2702 37.5879 46.3367 37.6272 46.4102 37.6457C46.9825 37.7883 47.5201 38.0143 48.0107 38.3113C48.0763 38.3511 48.1521 38.3707 48.2288 38.3677C48.3054 38.3647 48.3795 38.3392 48.4418 38.2945L50.2731 36.9785L51.3271 38.0324L50.0232 39.8903C49.9796 39.9523 49.955 40.0256 49.9523 40.1013C49.9496 40.177 49.9689 40.2518 50.0079 40.3168C50.302 40.8063 50.525 41.3404 50.6675 41.9095C50.6861 41.9836 50.7259 42.0507 50.7822 42.1024C50.8384 42.1542 50.9085 42.1883 50.9839 42.2007L53.2173 42.566V44.0563L50.9794 44.4492C50.9047 44.4624 50.8355 44.497 50.7801 44.5488C50.7247 44.6007 50.6856 44.6675 50.6675 44.7411C50.5267 45.3095 50.3035 45.8436 50.0094 46.3331C49.97 46.3987 49.9506 46.4744 49.9537 46.5508C49.9568 46.6273 49.9823 46.7012 50.027 46.7634L51.3493 48.5984L50.2953 49.653L48.4403 48.3515C48.378 48.3079 48.3043 48.2833 48.2283 48.2809C48.1523 48.2784 48.0772 48.2982 48.0122 48.3377C47.524 48.6347 46.9859 48.8619 46.4155 49.0065C46.3424 49.0249 46.2762 49.0641 46.2248 49.1193C46.1734 49.1744 46.139 49.2433 46.1259 49.3175L45.7307 51.5431H44.238L43.8696 49.3275C43.857 49.2521 43.8227 49.182 43.7708 49.126C43.7189 49.0699 43.6517 49.0302 43.5776 49.0118C43.0049 48.8707 42.465 48.645 41.971 48.3484C41.9061 48.3096 41.8314 48.2904 41.7558 48.2931C41.6803 48.2958 41.6071 48.3203 41.5452 48.3637L39.7047 49.653L38.6499 48.5968L39.9508 46.7786C39.9953 46.7163 40.0205 46.6424 40.0234 46.5659C40.0262 46.4894 40.0066 46.4138 39.9669 46.3484C39.6671 45.8531 39.4404 45.3132 39.2973 44.738C39.279 44.6648 39.2399 44.5984 39.1847 44.5469C39.1295 44.4953 39.0606 44.4609 38.9862 44.4476L36.7827 44.0563V42.5637L38.9847 42.1976C39.06 42.1851 39.13 42.1509 39.1861 42.0992C39.2421 42.0475 39.2819 41.9805 39.3004 41.9064C39.4447 41.3293 39.6713 40.7895 39.9699 40.2954C40.0093 40.2305 40.029 40.1556 40.0265 40.0797C40.0241 40.0039 39.9997 39.9304 39.9562 39.8681L38.6706 38.0308L39.7261 36.9762L41.5506 38.28C41.6126 38.3243 41.6863 38.3494 41.7625 38.3524C41.8386 38.3554 41.914 38.3361 41.9794 38.2968C42.4707 38.0017 43.012 37.7778 43.5852 37.6372C43.6597 37.6189 43.7272 37.5791 43.7793 37.5227C43.8313 37.4663 43.8656 37.3958 43.878 37.3201L44.2395 35.1083ZM45 40.1952C43.2756 40.1952 41.8693 41.6014 41.8693 43.3257C41.8693 45.0499 43.2756 46.4561 45 46.4561C46.7244 46.4561 48.1307 45.0499 48.1307 43.3257C48.1307 41.6014 46.7244 40.1952 45 40.1952ZM45 40.9779C46.3014 40.9779 47.348 42.0244 47.348 43.3257C47.348 44.627 46.3014 45.6735 45 45.6735C43.6986 45.6735 42.652 44.627 42.652 43.3257C42.652 42.0244 43.6986 40.9779 45 40.9779Z" fill="black"/>
<path d="M36.4976 41.214C35.3756 40.5476 34.1259 39.9998 32.8618 39.456C31.4366 38.8306 30.007 38.2015 28.8117 37.3797C27.6212 36.5611 26.674 35.5584 26.201 34.1909L26.1332 33.8939C25.9808 32.5346 26.0237 31.4674 26.0799 30.4361L26.0799 30.4361L26.08 30.4322C26.0842 30.2831 26.0897 30.1317 26.0953 29.9777C26.108 29.6237 26.1213 29.2554 26.1213 28.868V28.083L26.8134 27.7419L26.8289 27.7343L26.8423 27.7233C26.9587 27.6278 27.117 27.4163 27.2864 27.1425C27.4597 26.8624 27.655 26.5 27.8431 26.0867C28.2185 25.2619 28.5704 24.2229 28.6571 23.2212C28.6571 23.2209 28.6571 23.2207 28.6571 23.2204L28.7702 22.0663H29.9161H30.0245L30.0553 21.9733L30.067 21.9526C30.0791 21.9315 30.0961 21.9014 30.1164 21.8619C30.1572 21.783 30.2105 21.6688 30.2665 21.5131C30.3782 21.2029 30.4999 20.7308 30.5575 20.0484C30.6231 19.6611 30.584 19.386 30.521 19.2015C30.4895 19.1091 30.4525 19.041 30.4214 18.9941C30.4058 18.9707 30.3918 18.9527 30.3808 18.9397C30.3753 18.9332 30.3705 18.9279 30.3666 18.9239L30.3616 18.9187L30.3596 18.9167L30.3588 18.9159L30.3584 18.9156L30.3583 18.9154C30.3582 18.9153 30.3581 18.9152 30.2545 19.0237L30.3581 18.9152L30.3422 18.9001L30.3227 18.8901L29.3596 18.399L29.7713 17.4077L29.7717 17.4079L29.775 17.3978C30.1799 16.1888 30.644 14.2508 30.7911 12.2563C30.9378 10.2676 30.7718 8.19254 29.8876 6.7327L29.887 6.73163C29.213 5.63957 28.2014 5.00696 26.7686 4.80281C26.7685 4.80279 26.7684 4.80278 26.7682 4.80276L26.1647 4.71379L25.8629 4.1826C25.8628 4.18242 25.8627 4.18224 25.8626 4.18207C25.4883 3.51313 24.7647 3.14334 24.0177 2.93901C23.2667 2.73359 22.4627 2.68721 21.8862 2.68721V2.68717L21.8829 2.68725C18.7031 2.75874 16.3707 3.68876 14.9945 5.4834L14.9941 5.48394C13.1617 7.89624 12.9214 12.0718 14.2332 17.499L14.2333 17.4993L14.4746 18.4889L13.5937 18.9312L13.511 18.9727L13.511 19.0397C13.5104 19.0411 13.5098 19.0426 13.509 19.0442C13.5076 19.0474 13.5059 19.0512 13.504 19.0555C13.4914 19.0841 13.4735 19.1257 13.4556 19.1791C13.4195 19.2864 13.3845 19.4375 13.3845 19.6333C13.3845 19.7295 13.3993 19.8368 13.4129 19.9329C13.4773 20.6715 13.6031 21.1752 13.7333 21.506C13.7984 21.6716 13.8655 21.796 13.928 21.8853C13.9865 21.9689 14.0526 22.0386 14.1224 22.0699L14.1516 22.083H14.1837H15.3172L15.3294 23.2091L15.3289 23.2091L15.3299 23.2204C15.4164 24.2224 15.7681 25.2617 16.1506 26.0906C16.3422 26.5058 16.5429 26.8712 16.7244 27.1556C16.9024 27.4345 17.0715 27.6511 17.2027 27.7534L17.214 27.7622L17.2267 27.7687L17.9143 28.1198L17.8633 28.8577L17.863 28.8577V28.868V33.9827L17.8014 34.186C17.3291 35.556 16.402 36.5347 15.2128 37.3321C14.038 38.1199 12.6176 38.7243 11.1393 39.3534L11.0691 39.3833L11.0687 39.3834L11.0215 39.4034C7.38939 40.9369 3.85225 42.4304 2.95064 46.7835L2.91327 46.964H3.09752H36.4976V49.5012H0.158454L0.232255 48.1557C0.232263 48.1556 0.232271 48.1554 0.23228 48.1553C0.448179 44.5794 1.8586 42.2508 3.73496 40.5917C5.61861 38.9261 7.97566 37.9311 10.0991 37.0358C11.3006 36.5333 12.4342 36.0575 13.3498 35.5156C14.2647 34.974 14.9838 34.3543 15.3335 33.5523L15.346 33.5237V33.4924V29.5358V29.4762L15.3051 29.4329C14.2603 28.3252 13.3264 26.1992 12.9636 24.3861L12.9498 24.3173L12.8883 24.2838C12.084 23.8456 11.1304 22.7891 10.9082 20.2436L10.9086 20.2436L10.9069 20.2331C10.7303 19.1247 11.0438 18.1053 11.5805 17.4296L11.6249 17.3737L11.6095 17.304C10.2891 11.3336 10.7796 6.84937 13.0072 3.93688L13.0075 3.93643C14.8446 1.51577 17.8067 0.234786 21.8603 0.15C23.5048 0.150178 24.7501 0.431013 25.6703 0.84604L25.6703 0.846062L25.6728 0.847126C26.607 1.24842 27.2498 1.79968 27.6708 2.34683L27.704 2.38998L27.7572 2.40179C29.6341 2.81881 31.0633 3.83079 32.0273 5.39784L36.4976 41.214ZM36.4976 41.214V38.3515C35.8078 37.9921 35.1121 37.6798 34.4353 37.376C34.2447 37.2904 34.0555 37.2055 33.8684 37.1203C33.8681 37.1202 33.8679 37.1201 33.8676 37.12L33.8307 37.1038C32.6366 36.5794 31.5069 36.0833 30.596 35.5242C29.676 34.9597 28.9567 34.3179 28.6218 33.4934L28.6134 33.4728L28.6114 33.4506C28.5133 32.3777 28.5536 31.4976 28.5952 30.5911L28.5971 30.5489C28.5972 30.5488 28.5972 30.5487 28.5972 30.5485C28.6112 30.2225 28.6245 29.8868 28.6245 29.5358V29.4751L28.6667 29.4315C29.7243 28.3387 30.6576 26.2137 31.0347 24.3852L31.0488 24.3166L31.1106 24.2834C31.9013 23.8586 32.8542 22.8301 33.0623 20.3577L33.0633 20.3457L33.0637 20.3458C33.2544 19.1935 32.9526 18.1713 32.4419 17.481L32.3981 17.4217L32.4182 17.3508C32.7404 16.215 33.2237 14.1736 33.3341 11.9389C33.4448 9.70126 33.1806 7.29011 32.0276 5.39835L36.4976 41.214Z" fill="black" stroke="white" stroke-width="0.3"/>
</svg>
