<svg width="47" height="48" viewBox="0 0 47 48" fill="none" xmlns="http://www.w3.org/2000/svg">
<path d="M21 0C13.7734 0 8.44531 2.49219 5 6.39844C1.55469 10.3086 0 15.5586 0 21C0 25.4062 1.36328 29.5078 3.67578 32.8672C5.76953 35.9141 7 39.5195 7 43.1992V48H9V43.1992C9 39.0781 7.62891 35.0859 5.32422 31.7344C3.23438 28.6953 2 24.9922 2 21C2 15.9414 3.44531 11.1914 6.5 7.72656C9.55469 4.25781 14.2266 2 21 2C27.8008 2 32.207 3.98047 35.1172 7.00781C38.0273 10.0312 39.4727 14.2031 40.0078 18.7188L40.0312 18.9219L44.8281 27.1875C45.0742 27.6328 44.9492 28.0781 44.5156 28.3242L40 30.582V36.5977C40 40.3398 36.9219 43.25 33.1914 42.9062L33.1758 42.9023L29 42.6328V48H31V44.7656L33.0078 44.8945C37.8789 45.3516 42 41.457 42 36.5977V31.8164L45.4844 30.0742C46.8477 29.3164 47.3242 27.5664 46.5742 26.2148L46.5703 26.207L41.9219 18.1992C41.3281 13.5156 39.8047 8.99609 36.5586 5.61719C33.2422 2.17188 28.1992 0 21 0ZM23 12.9844C22.5234 12.9883 22.1133 13.3242 22.0195 13.793L19.0195 27.793C18.9062 28.332 19.25 28.8633 19.7891 28.9805C20.332 29.0938 20.8633 28.75 20.9805 28.207L23.9805 14.207C24.0469 13.9102 23.9766 13.5977 23.7852 13.3594C23.5938 13.1211 23.3047 12.9844 23 12.9844ZM14.5352 15.9883C14.207 15.9805 13.8945 16.1328 13.6992 16.4023L10.25 21L13.6992 25.5977C14.0312 26.043 14.6562 26.1328 15.0977 25.8008C15.543 25.4688 15.6328 24.8438 15.3008 24.4023L12.75 21L15.3008 17.5977C15.5312 17.3008 15.5742 16.8984 15.4141 16.5586C15.2539 16.2188 14.9141 16 14.5352 15.9883ZM28.4336 15.9883C28.0625 16.0117 27.7344 16.2344 27.582 16.5742C27.4258 16.9102 27.4727 17.3047 27.6992 17.5977L30.25 21L27.6992 24.4023C27.3672 24.8438 27.457 25.4688 27.9023 25.8008C28.3438 26.1328 28.9688 26.043 29.3008 25.5977L32.75 21L29.3008 16.4023C29.1016 16.125 28.7734 15.9688 28.4336 15.9883Z" fill="black"/>
</svg>
