<svg width="50" height="50" viewBox="0 0 50 50" fill="none" xmlns="http://www.w3.org/2000/svg">
<path d="M7.6875 0C6.78125 0 6.08203 0.613281 5.875 1.46875H5.84375L5.8125 1.59375L0.21875 19.125C0.203125 19.1602 0.171875 19.1836 0.15625 19.2188V19.2812C0.109375 19.3711 0.078125 19.4648 0.0625 19.5625C0.0585938 19.5742 0.0351563 19.582 0.03125 19.5938C0.0273438 19.6445 0.0273438 19.6992 0.03125 19.75C0.0195313 19.832 0 19.9141 0 20V28C0 28.3594 0.109375 28.707 0.28125 29C0.109375 29.293 0 29.6406 0 30V38C0 38.3594 0.109375 38.707 0.28125 39C0.109375 39.293 0 39.6406 0 40V48C0 49.0938 0.90625 50 2 50H48C49.0938 50 50 49.0938 50 48V40C50 39.6406 49.8906 39.293 49.7188 39C49.8906 38.707 50 38.3594 50 38V30C50 29.6406 49.8906 29.293 49.7188 29C49.8906 28.707 50 28.3594 50 28V20C50 19.7227 49.918 19.4609 49.8125 19.2188C49.8125 19.207 49.8125 19.1992 49.8125 19.1875L44.1875 1.59375L44.1562 1.46875H44.125C43.918 0.613281 43.2188 0 42.3125 0H7.6875ZM7.78125 2H42.25C42.25 2.01953 42.25 2.04297 42.25 2.0625L47.3438 18H2.625L7.75 2.0625C7.76172 2.04297 7.77344 2.01953 7.78125 2ZM2 20H48V28H2V20.0625C2 20.043 2 20.0195 2 20ZM43 22C41.8945 22 41 22.8945 41 24C41 25.1055 41.8945 26 43 26C44.1055 26 45 25.1055 45 24C45 22.8945 44.1055 22 43 22ZM2 30H48V38H2V30ZM43 32C41.8945 32 41 32.8945 41 34C41 35.1055 41.8945 36 43 36C44.1055 36 45 35.1055 45 34C45 32.8945 44.1055 32 43 32ZM2 40H48V48H2V40ZM43 42C41.8945 42 41 42.8945 41 44C41 45.1055 41.8945 46 43 46C44.1055 46 45 45.1055 45 44C45 42.8945 44.1055 42 43 42Z" fill="black"/>
</svg>
