<svg width="53" height="53" viewBox="0 0 53 53" fill="none" xmlns="http://www.w3.org/2000/svg">
<path d="M35.6244 0.791094L35.6244 0.791055C35.9641 0.451232 36.4229 0.257204 36.9033 0.25018C37.1501 0.246734 37.3951 0.292817 37.6238 0.385703C37.8526 0.478605 38.0604 0.616442 38.2349 0.791058L38.235 0.791094L52.2095 14.7655C52.2095 14.7655 52.2095 14.7655 52.2095 14.7655C52.5556 15.1117 52.75 15.5812 52.75 16.0708C52.75 16.5603 52.5556 17.0298 52.2095 17.3761C52.2095 17.3761 52.2095 17.3761 52.2095 17.3761L41.8678 27.7177L41.8205 27.7649L41.8032 27.8294L38.8254 38.8861C37.7185 42.9949 34.4476 46.1766 30.3099 47.1691L30.3098 47.1691L7.67757 52.6033C5.83151 53.0466 4.10731 52.4408 2.72488 51.3713L2.69841 51.3508L2.6675 51.3381C2.49343 51.266 2.33142 51.1678 2.1871 51.0467C2.10247 50.9667 2.02967 50.8961 1.95261 50.8148C1.83305 50.6707 1.73609 50.5093 1.66505 50.3361L1.65217 50.3046L1.63137 50.2778C0.559945 48.8949 -0.0469437 47.1702 0.396741 45.3226L0.39675 45.3225L5.82827 22.6878L5.82827 22.6878C6.82089 18.5497 10.0055 15.2779 14.114 14.1724L25.1708 11.1973L25.2354 11.18L25.2827 11.1327L35.6244 0.791094ZM37.1064 4.88369L36.9297 4.70692L36.7529 4.88369L32.7297 8.90679L32.553 9.08357L32.7297 9.26035L43.7402 20.2707L43.9169 20.4474L44.0937 20.2707L48.1169 16.2476L48.2936 16.0708L48.1169 15.894L37.1064 4.88369ZM30.1192 11.8709L29.9424 11.6941L29.7656 11.8709L27.4975 14.139L27.4973 14.1391C27.2684 14.3684 26.9832 14.5334 26.6704 14.6175L26.6703 14.6175L15.0731 17.7399C12.2642 18.4958 10.0985 20.7215 9.4198 23.551L4.12203 45.6125L3.91503 46.4745L4.5419 45.8476L19.6765 30.7132L19.7648 30.625L19.7472 30.5013C19.6819 30.0417 19.716 29.5734 19.8473 29.1282C19.9785 28.6829 20.2038 28.2709 20.508 27.9202C20.8121 27.5695 21.188 27.2881 21.6102 27.0951C22.0324 26.9022 22.4911 26.802 22.9554 26.8016C23.8155 26.8016 24.6405 27.1434 25.2487 27.7516C25.857 28.3599 26.1987 29.1849 26.1987 30.0452C26.1987 30.9054 25.857 31.7305 25.2487 32.3388C24.6405 32.947 23.8155 33.2887 22.9553 33.2888C22.8018 33.2887 22.6485 33.2777 22.4966 33.2558L22.3728 33.2381L22.2843 33.3265L7.15794 48.4527L6.53128 49.0794L7.39305 48.8726L29.4494 43.5804C32.2793 42.9015 34.5031 40.7385 35.2605 37.9272L35.2605 37.9271L38.3829 26.3272L38.3829 26.3272C38.4668 26.0155 38.6309 25.7313 38.8588 25.5028C38.8588 25.5027 38.8589 25.5027 38.8589 25.5027L41.1295 23.2349L41.3065 23.0581L41.1296 22.8812L30.1192 11.8709Z" fill="black" stroke="#F2F2F2" stroke-width="0.5"/>
</svg>
