<svg width="49" height="55" viewBox="0 0 49 55" fill="none" xmlns="http://www.w3.org/2000/svg">
<path d="M8.575 0C3.86641 0 0 3.85694 0 8.55401V12.22C0 12.8931 0.550293 13.442 1.225 13.442H7.35V50.1021C7.35 50.7751 7.90029 51.3241 8.575 51.3241H25.725V48.8801H9.8V13.442H33.075C33.7497 13.442 34.3 12.8931 34.3 12.22V8.55401C34.3 5.18874 37.0515 2.444 40.425 2.444C40.4633 2.444 40.5016 2.444 40.5398 2.444C43.8607 2.50606 46.55 5.22692 46.55 8.55401V48.8801H40.425V51.3241H47.775C48.4497 51.3241 49 50.7751 49 50.1021V8.55401C49 3.919 45.2389 0.100242 40.6164 0C40.5542 0 40.4872 0 40.425 0H8.575ZM8.575 2.444H34.4914C32.8788 4.00015 31.85 6.15297 31.85 8.55401V10.998H2.45V8.55401C2.45 5.18874 5.20147 2.444 8.575 2.444ZM15.925 17.108V19.552H40.425V17.108H15.925ZM15.925 24.44V26.884H40.425V24.44H15.925ZM33.075 31.7721C32.1275 31.7721 31.3476 32.2971 30.7781 33.0322C29.9264 32.8461 29.0076 32.889 28.2516 33.4905C27.5003 34.0919 27.3041 35.018 27.3328 35.8963C26.5385 36.3307 25.8829 36.9847 25.725 37.9202C25.5719 38.8463 25.9882 39.6673 26.5672 40.3261C26.2227 41.1948 26.1892 42.1638 26.6438 42.9228C26.7251 43.0613 26.8447 43.1519 26.95 43.2665V53.7681C26.9452 54.2311 27.2036 54.6559 27.6199 54.866C28.0314 55.076 28.5291 55.0378 28.9023 54.761L33.075 51.6296L37.2477 54.761C37.6209 55.0378 38.1186 55.076 38.5301 54.866C38.9464 54.6559 39.2048 54.2311 39.2 53.7681V43.2665C39.3053 43.1519 39.4249 43.0613 39.5063 42.9228C40.0374 42.0397 39.9226 41.1376 39.5828 40.3261C40.1618 39.6673 40.5781 38.8463 40.425 37.9202C40.2671 36.9847 39.6115 36.3307 38.8172 35.8963C38.8459 35.018 38.6497 34.0919 37.8984 33.4905C37.1424 32.889 36.2236 32.8461 35.3719 33.0322C34.8168 32.3305 34.0368 31.7721 33.075 31.7721ZM35.525 33.2614C35.5776 33.2996 35.6781 33.3759 35.6398 33.3377L35.6016 33.3759C35.5776 33.3377 35.5489 33.2996 35.525 33.2614ZM33.075 34.2161C33.4674 34.2161 33.5057 34.2877 33.6109 34.5979C33.6731 34.7841 33.7784 34.9559 33.9172 35.0944C33.9794 35.1564 34.056 35.2376 34.3766 35.3999C34.6972 35.5622 34.9651 35.5526 35.0273 35.5526C35.2522 35.5622 35.4819 35.5097 35.6781 35.3999C35.86 35.2901 36.1901 35.2567 36.3672 35.3999C36.5729 35.5669 36.5729 35.6242 36.4438 36.0109C36.3959 36.1445 36.3672 36.2877 36.3672 36.4309C36.3672 36.598 36.4533 36.6219 36.5203 36.7746C36.5634 37.3236 36.9701 37.7818 37.5156 37.8821C37.707 37.9155 37.9415 38.1494 37.975 38.3403C38.0085 38.5503 37.8889 38.8033 37.707 38.9131C37.3529 39.1375 37.1328 39.5241 37.1328 39.9442V40.3261C37.128 40.5838 37.2094 40.8416 37.3625 41.0516C37.396 41.0994 37.4486 41.5863 37.4008 41.6626C37.2907 41.844 37.0371 41.9634 36.8266 41.9299C36.3768 41.8488 35.9174 42.0254 35.6398 42.3882C35.6398 42.4025 35.6398 42.4121 35.6398 42.4264C35.5968 42.4598 35.6159 42.455 35.5633 42.5028C35.5489 42.5171 35.5394 42.4884 35.525 42.5028C35.281 42.7319 35.147 43.0469 35.1422 43.3811C35.1422 43.7057 35.1422 43.7104 34.8742 43.8011C34.8216 43.825 34.7689 43.8489 34.7211 43.8775C34.7115 43.8727 34.745 43.8775 34.6828 43.8775C34.6015 43.8775 34.3622 43.7868 34.1852 43.6102C33.9507 43.3811 33.6301 43.257 33.3047 43.2665H32.8453C32.5199 43.257 32.1993 43.3811 31.9648 43.6102C31.7639 43.8107 31.5438 43.8918 31.2758 43.8011C31.1274 43.72 31.0078 43.5529 31.0078 43.3811C31.0078 43.1472 30.893 42.8321 30.7398 42.6173C30.6011 42.4216 30.4767 42.3261 30.3953 42.2736C30.113 41.992 29.7158 41.8631 29.3234 41.9299C29.1129 41.9634 28.8593 41.844 28.7492 41.6626C28.6057 41.4192 28.5578 41.3285 28.7492 41.0898C28.9215 40.875 29.0172 40.6029 29.0172 40.3261V39.9442C29.0172 39.5241 28.7971 39.1375 28.443 38.9131C28.2611 38.8033 28.1415 38.5503 28.175 38.3403C28.2085 38.1494 28.443 37.9155 28.6344 37.8821C29.1799 37.7818 29.5866 37.3236 29.6297 36.7746C29.6967 36.6219 29.7828 36.598 29.7828 36.4309C29.7828 36.2877 29.7541 36.1445 29.7063 36.0109C29.5771 35.6242 29.5771 35.5669 29.7828 35.3999C29.9599 35.2567 30.29 35.2901 30.4719 35.3999C30.8499 35.6194 31.3188 35.6194 31.6969 35.3999C31.7112 35.3999 31.7208 35.3999 31.7352 35.3999C31.7495 35.3856 31.7591 35.376 31.7734 35.3617C31.7974 35.3521 31.8261 35.3378 31.85 35.3235C32.1706 35.1898 32.4242 34.9273 32.5391 34.5979C32.6013 34.407 32.8836 34.2161 33.075 34.2161ZM29.4 45.2905C29.6775 45.6437 30.0125 45.9253 30.4336 46.0924C30.448 46.1067 30.4575 46.1163 30.4719 46.1306C31.4002 46.4408 32.295 46.1688 33.0367 45.7105C33.0463 45.7057 33.0654 45.7153 33.075 45.7105H33.3047C33.7401 45.9635 34.1277 46.3215 34.6828 46.3215C34.8934 46.3215 35.3145 46.2308 35.6781 46.0924C35.6973 46.0733 35.7308 46.0637 35.7547 46.0542C35.7786 46.0447 35.8073 46.0685 35.8312 46.0542V46.016C36.2093 45.8585 36.5107 45.6198 36.75 45.3286V51.3241L33.8023 49.1092C33.3717 48.7894 32.7783 48.7894 32.3477 49.1092L29.4 51.3241V45.2905Z" fill="black"/>
</svg>
