<svg width="60" height="62" viewBox="0 0 60 62" fill="none" xmlns="http://www.w3.org/2000/svg">
<path d="M26.8493 0C17.6099 0 10.7977 3.21908 6.3927 8.26465C1.98773 13.3153 0 20.0965 0 27.125C0 32.8164 1.74301 38.1143 4.69963 42.4534C7.37657 46.389 8.94977 51.0461 8.94977 55.799V62H11.5069V55.799C11.5069 50.4759 9.75386 45.3193 6.80722 40.9902C4.13528 37.0648 2.55708 32.2816 2.55708 27.125C2.55708 20.591 4.40497 14.4556 8.31051 9.98014C12.216 5.49968 18.1892 2.58333 26.8493 2.58333C35.5444 2.58333 41.178 5.14144 44.8987 9.05176C48.6195 12.957 50.4673 18.3457 51.1516 24.1784L51.1815 24.4408L57.3145 35.1172C57.6292 35.6924 57.4693 36.2676 56.915 36.5854L51.1416 39.5018V47.272C51.1416 52.1056 47.2061 55.8646 42.4365 55.4206L42.4165 55.4155L37.0776 55.0674V62H39.6347V57.8223L42.2018 57.9888C48.4297 58.5791 53.6987 53.5487 53.6987 47.272V41.0962L58.1536 38.8459C59.8966 37.867 60.5059 35.6066 59.547 33.8608L59.542 33.8507L53.5988 23.5073C52.8396 17.4577 50.8919 11.62 46.7416 7.25553C42.5014 2.80534 36.0538 0 26.8493 0ZM31.9635 9.04167V11.7562C31.1494 11.9227 30.3953 12.2557 29.726 12.7048L27.8182 10.7773L26.0103 12.6038L27.9181 14.5312C27.4736 15.2074 27.144 15.9692 26.9792 16.7917H24.2922V19.375H26.9792C27.144 20.1974 27.4736 20.9593 27.9181 21.6354L26.0103 23.5628L27.8182 25.3893L29.726 23.4619C30.3953 23.911 31.1494 24.244 31.9635 24.4105V27.125H34.5206V24.4105C35.3346 24.244 36.0888 23.911 36.758 23.4619L38.6658 25.3893L40.4738 23.5628L38.5659 21.6354C39.0104 20.9593 39.3401 20.1974 39.5049 19.375H42.1918V16.7917H39.5049C39.3401 15.9692 39.0104 15.2074 38.5659 14.5312L40.4738 12.6038L38.6658 10.7773L36.758 12.7048C36.0888 12.2557 35.3346 11.9227 34.5206 11.7562V9.04167H31.9635ZM33.242 14.2083C35.3746 14.2083 37.0776 15.9289 37.0776 18.0833C37.0776 20.2378 35.3746 21.9583 33.242 21.9583C31.1095 21.9583 29.4064 20.2378 29.4064 18.0833C29.4064 15.9289 31.1095 14.2083 33.242 14.2083ZM16.621 19.375V22.0895C15.8069 22.256 15.0628 22.5941 14.3886 23.0482L12.4757 21.1107L10.6678 22.9372L12.5856 24.8747C12.1411 25.5508 11.8115 26.3076 11.6467 27.125H8.94977V29.7083H11.6367C11.8015 30.5308 12.1311 31.2926 12.5756 31.9687L10.6678 33.8962L12.4757 35.7227L14.3836 33.7952C15.0528 34.2443 15.8069 34.5773 16.621 34.7438V37.4583H19.1781V34.7438C19.9922 34.5773 20.7463 34.2443 21.4155 33.7952L23.3234 35.7227L25.1313 33.8962L23.2235 31.9687C23.668 31.2926 23.9976 30.5308 24.1624 29.7083H26.8493V27.125H24.1524C23.9876 26.3076 23.658 25.5508 23.2135 24.8747L25.1313 22.9372L23.3234 21.1107L21.4105 23.0482C20.7363 22.5941 19.9922 22.256 19.1781 22.0895V19.375H16.621ZM17.8995 24.5417C20.0321 24.5417 21.7352 26.2622 21.7352 28.4167C21.7352 30.5711 20.0321 32.2917 17.8995 32.2917C15.767 32.2917 14.0639 30.5711 14.0639 28.4167C14.0639 26.2622 15.767 24.5417 17.8995 24.5417Z" fill="black"/>
</svg>
