<svg width="12" height="12" viewBox="0 0 12 12" fill="none" xmlns="http://www.w3.org/2000/svg">
<path d="M6.11217 0.317993C3.10992 0.317993 0.67627 2.75164 0.67627 5.75389C0.67627 8.75614 3.10992 11.1898 6.11217 11.1898C9.11441 11.1898 11.5481 8.75614 11.5481 5.75389C11.5481 2.75164 9.11441 0.317993 6.11217 0.317993ZM8.28653 8.56534H3.93781V7.57274H4.32756C4.39279 7.55698 4.44498 7.52382 4.48303 7.47381C4.52108 7.42488 4.55043 7.36672 4.57055 7.29877C4.59175 7.23191 4.60534 7.15744 4.61186 7.07699C4.61947 6.99654 4.62219 6.91554 4.62219 6.83618L4.60099 6.19365H3.93781V5.2103H4.56783L4.53956 4.28783C4.53956 4.00462 4.58468 3.75185 4.67492 3.52789C4.7657 3.30393 4.89235 3.11585 5.05597 2.96419C5.21959 2.81144 5.41474 2.69457 5.64305 2.61357C5.87081 2.53258 6.12304 2.49235 6.39864 2.49235C6.69653 2.49235 6.96017 2.53366 7.19065 2.61575C7.42167 2.69837 7.61628 2.81524 7.77446 2.96636C7.93265 3.11694 8.05333 3.29741 8.13432 3.50778C8.20716 3.69205 8.24141 3.90025 8.2501 4.12312H7.07595C7.06943 4.02745 7.05584 3.94047 7.02757 3.86926C6.99061 3.77685 6.94114 3.70347 6.87863 3.64748C6.81503 3.59095 6.74219 3.54963 6.65902 3.52517C6.57585 3.50071 6.48779 3.48821 6.39483 3.48821C6.21436 3.48821 6.06542 3.55616 5.94637 3.68988C5.82787 3.82469 5.76916 4.0231 5.76916 4.28783L5.80558 5.2103H7.19935V6.19365H5.84146L5.86701 6.76605C5.86701 6.93076 5.84689 7.07916 5.80667 7.21288C5.76753 7.34552 5.70339 7.46565 5.61261 7.57274H8.28653V8.56534Z" fill="black"/>
</svg>
