<svg width="34" height="34" viewBox="0 0 34 34" fill="none" xmlns="http://www.w3.org/2000/svg">
<path d="M33.5301 31.0471L27.2379 24.7618C32.052 18.7717 31.5875 9.91315 26.0977 4.47146C23.2261 1.60298 19.3833 0 15.287 0C11.1908 0 7.39013 1.60298 4.47631 4.47146C1.60471 7.33995 0 11.1787 0 15.2705C0 19.3623 1.60471 23.1588 4.47631 26.0695C7.3479 28.938 11.1908 30.5409 15.287 30.5409C18.7498 30.5409 22.1282 29.3598 24.8308 27.2084L31.123 33.4938C31.4608 33.8313 31.8831 34 32.3054 34C32.7699 34 33.1922 33.8313 33.4878 33.4938C34.1635 32.7767 34.1635 31.7221 33.5301 31.0471ZM27.1957 15.2283C27.1957 18.3921 25.971 21.3871 23.7329 23.6228C21.4947 25.8586 18.4964 27.0819 15.3292 27.0819C12.162 27.0819 9.16376 25.8586 6.92561 23.6228C4.68745 21.3871 3.4628 18.3921 3.4628 15.2283C3.4628 12.0645 4.68745 9.06948 6.92561 6.83375C9.16376 4.59802 12.162 3.37469 15.3292 3.37469C18.4964 3.37469 21.4947 4.59802 23.7329 6.83375C25.971 9.06948 27.1957 12.0645 27.1957 15.2283Z" fill="black"/>
</svg>
