<svg width="40" height="38" viewBox="0 0 40 38" fill="none" xmlns="http://www.w3.org/2000/svg">
<path d="M4.16667 0L0 4.16667L2.92969 8.5612C3.7026 9.72161 5.00482 10.4167 6.39648 10.4167H7.4707L14.8397 17.7856L3.10059 29.5207C1.74225 30.879 1.74225 33.0818 3.10059 34.4401L5.13916 36.4787C5.82041 37.1599 6.70924 37.5 7.60091 37.5C8.49049 37.5 9.3835 37.1619 10.0627 36.4827L19.7917 26.7497L29.5207 36.4827C30.1998 37.1619 31.0928 37.5 31.9824 37.5C32.872 37.5 33.7609 37.1619 34.4401 36.4827L36.4787 34.4442C37.837 33.0858 37.837 30.8831 36.4787 29.5247L26.7497 19.7917L30.0008 16.5405C30.4112 16.6009 30.8229 16.6667 31.25 16.6667C35.8521 16.6667 39.5833 12.9354 39.5833 8.33333C39.5833 7.1125 39.3076 5.95911 38.8346 4.91536L35.8887 7.86133L32.6497 6.93359L31.722 3.69466L34.668 0.748698C33.6242 0.275781 32.4708 0 31.25 0C26.6479 0 22.9167 3.73125 22.9167 8.33333C22.9167 8.76042 22.9824 9.1721 23.0428 9.58252L17.7856 14.8397L10.4167 7.4707V6.39648C10.4167 5.00482 9.72161 3.7026 8.5612 2.92969L4.16667 0ZM28.5278 3.89404L28.715 4.55729L29.6427 7.79622L30.1188 9.46452L31.7871 9.94059L35.026 10.8683L35.6893 11.0596C34.7705 12.5471 33.125 13.5417 31.25 13.5417C31.0687 13.5417 30.7917 13.5001 30.4687 13.4521L28.9103 13.2161L27.7913 14.3311L24.5402 17.5822L24.5199 17.5618L17.5618 24.5199L17.5822 24.5402L7.85319 34.2692C7.78444 34.338 7.69674 34.375 7.60091 34.375C7.50508 34.375 7.42145 34.338 7.3527 34.2692L5.31413 32.2347C5.17663 32.0972 5.17663 31.8697 5.31413 31.7301L25.2523 11.792L26.3631 10.6445L26.1271 9.08203C26.0834 8.79036 26.0417 8.51458 26.0417 8.33333C26.0417 6.45833 27.0382 4.81071 28.5278 3.89404ZM24.5402 22.0011L34.2733 31.7301C34.4108 31.8676 34.4108 32.091 34.2733 32.2306L32.2347 34.2692C32.166 34.338 32.0823 34.3709 31.9865 34.3709C31.8886 34.3709 31.803 34.338 31.7342 34.2692L22.0052 24.5402L24.5402 22.0011Z" fill="black"/>
</svg>
