<svg width="36" height="42" viewBox="0 0 36 42" fill="none" xmlns="http://www.w3.org/2000/svg">
<path d="M7.8125 0C7.3981 8.73284e-09 7.00067 0.16462 6.70765 0.457645C6.41462 0.750671 6.25 1.1481 6.25 1.5625C6.25 1.9769 6.41462 2.37433 6.70765 2.66735C7.00067 2.96038 7.3981 3.125 7.8125 3.125C8.2269 3.125 8.62433 2.96038 8.91735 2.66735C9.21038 2.37433 9.375 1.9769 9.375 1.5625C9.375 1.1481 9.21038 0.750671 8.91735 0.457645C8.62433 0.16462 8.2269 8.73284e-09 7.8125 0ZM17.7083 0C13.703 0.00132292 10.4167 3.2752 10.4167 7.28353C10.4167 9.36331 11.2996 11.2542 12.7014 12.5793C12.7099 12.5874 12.7359 12.6203 12.7502 12.6851L12.7523 12.6953L13.8814 17.4906C14.1778 18.8268 15.3796 19.7917 16.748 19.7917H18.6686C20.037 19.7917 21.2374 18.8254 21.5352 17.4927L22.6644 12.6953L22.6664 12.6851C22.681 12.6196 22.709 12.5854 22.7132 12.5814H22.7153C24.1191 11.2555 25 9.36188 25 7.28353C25 3.2752 21.7136 0.00131885 17.7083 0ZM27.6042 0C27.1898 8.73284e-09 26.7923 0.16462 26.4993 0.457645C26.2063 0.750671 26.0417 1.1481 26.0417 1.5625C26.0417 1.9769 26.2063 2.37433 26.4993 2.66735C26.7923 2.96038 27.1898 3.125 27.6042 3.125C28.0186 3.125 28.416 2.96038 28.709 2.66735C29.002 2.37433 29.1667 1.9769 29.1667 1.5625C29.1667 1.1481 29.002 0.750671 28.709 0.457645C28.416 0.16462 28.0186 8.73284e-09 27.6042 0ZM17.7083 3.125C20.0301 3.12576 21.875 4.96478 21.875 7.28353C21.875 8.48434 21.3753 9.54724 20.5688 10.3088C20.0627 10.7861 19.7543 11.3877 19.6167 12.0076L19.0104 14.5833H16.4062L15.8 12.0076C15.6623 11.3871 15.3518 10.7862 14.8499 10.3109V10.3088H14.8478C14.0414 9.54654 13.5417 8.485 13.5417 7.28353C13.5417 4.96478 15.3866 3.12576 17.7083 3.125ZM5.72917 5.20833C5.31477 5.20833 4.91734 5.37295 4.62431 5.66598C4.33129 5.959 4.16667 6.35643 4.16667 6.77083C4.16667 7.18523 4.33129 7.58266 4.62431 7.87569C4.91734 8.16871 5.31477 8.33333 5.72917 8.33333C6.14357 8.33333 6.541 8.16871 6.83402 7.87569C7.12705 7.58266 7.29167 7.18523 7.29167 6.77083C7.29167 6.35643 7.12705 5.959 6.83402 5.66598C6.541 5.37295 6.14357 5.20833 5.72917 5.20833ZM29.6875 5.20833C29.2731 5.20833 28.8757 5.37295 28.5826 5.66598C28.2896 5.959 28.125 6.35643 28.125 6.77083C28.125 7.18523 28.2896 7.58266 28.5826 7.87569C28.8757 8.16871 29.2731 8.33333 29.6875 8.33333C30.1019 8.33333 30.4993 8.16871 30.7924 7.87569C31.0854 7.58266 31.25 7.18523 31.25 6.77083C31.25 6.35643 31.0854 5.959 30.7924 5.66598C30.4993 5.37295 30.1019 5.20833 29.6875 5.20833ZM7.8125 10.4167C7.3981 10.4167 7.00067 10.5813 6.70765 10.8743C6.41462 11.1673 6.25 11.5648 6.25 11.9792C6.25 12.3936 6.41462 12.791 6.70765 13.084C7.00067 13.377 7.3981 13.5417 7.8125 13.5417C8.2269 13.5417 8.62433 13.377 8.91735 13.084C9.21038 12.791 9.375 12.3936 9.375 11.9792C9.375 11.5648 9.21038 11.1673 8.91735 10.8743C8.62433 10.5813 8.2269 10.4167 7.8125 10.4167ZM27.6042 10.4167C27.1898 10.4167 26.7923 10.5813 26.4993 10.8743C26.2063 11.1673 26.0417 11.5648 26.0417 11.9792C26.0417 12.3936 26.2063 12.791 26.4993 13.084C26.7923 13.377 27.1898 13.5417 27.6042 13.5417C28.0186 13.5417 28.416 13.377 28.709 13.084C29.002 12.791 29.1667 12.3936 29.1667 11.9792C29.1667 11.5648 29.002 11.1673 28.709 10.8743C28.416 10.5813 28.0186 10.4167 27.6042 10.4167ZM8.33333 18.75C6.72743 18.75 5.32515 19.4085 4.43115 20.4142C3.53715 21.42 3.125 22.6997 3.125 23.9583C3.125 25.217 3.53715 26.4967 4.43115 27.5024C5.32515 28.5082 6.72743 29.1667 8.33333 29.1667C9.93923 29.1667 11.3415 28.5082 12.2355 27.5024C13.1295 26.4967 13.5417 25.217 13.5417 23.9583C13.5417 22.6997 13.1295 21.42 12.2355 20.4142C11.3415 19.4085 9.93923 18.75 8.33333 18.75ZM27.0833 18.75C25.4774 18.75 24.0752 19.4085 23.1812 20.4142C22.2871 21.42 21.875 22.6997 21.875 23.9583C21.875 25.217 22.2871 26.4967 23.1812 27.5024C24.0752 28.5082 25.4774 29.1667 27.0833 29.1667C28.6892 29.1667 30.0915 28.5082 30.9855 27.5024C31.8795 26.4967 32.2917 25.217 32.2917 23.9583C32.2917 22.6997 31.8795 21.42 30.9855 20.4142C30.0915 19.4085 28.6892 18.75 27.0833 18.75ZM8.33333 21.875C9.15798 21.875 9.57863 22.128 9.8999 22.4894C10.2212 22.8509 10.4167 23.3941 10.4167 23.9583C10.4167 24.5226 10.2212 25.0658 9.8999 25.4272C9.57863 25.7887 9.15798 26.0417 8.33333 26.0417C7.50868 26.0417 7.08804 25.7887 6.76676 25.4272C6.44549 25.0658 6.25 24.5226 6.25 23.9583C6.25 23.3941 6.44549 22.8509 6.76676 22.4894C7.08804 22.128 7.50868 21.875 8.33333 21.875ZM27.0833 21.875C27.908 21.875 28.3286 22.128 28.6499 22.4894C28.9712 22.8509 29.1667 23.3941 29.1667 23.9583C29.1667 24.5226 28.9712 25.0658 28.6499 25.4272C28.3286 25.7887 27.908 26.0417 27.0833 26.0417C26.2587 26.0417 25.838 25.7887 25.5168 25.4272C25.1955 25.0658 25 24.5226 25 23.9583C25 23.3941 25.1955 22.8509 25.5168 22.4894C25.838 22.128 26.2587 21.875 27.0833 21.875ZM3.64583 31.25C1.65109 31.25 0 32.9011 0 34.8958V36.4583C0 38.2492 1.28821 39.5943 2.80558 40.4114C4.32296 41.2284 6.2362 41.6667 8.33333 41.6667C10.4305 41.6667 12.3437 41.2284 13.8611 40.4114C15.3785 39.5943 16.6667 38.2492 16.6667 36.4583V34.8958C16.6667 32.9011 15.0156 31.25 13.0208 31.25H3.64583ZM22.3958 31.25C20.4011 31.25 18.75 32.9011 18.75 34.8958V36.4583C18.75 38.2492 20.0382 39.5943 21.5556 40.4114C23.073 41.2284 24.9862 41.6667 27.0833 41.6667C29.1805 41.6667 31.0937 41.2284 32.6111 40.4114C34.1285 39.5943 35.4167 38.2492 35.4167 36.4583V34.8958C35.4167 32.9011 33.7656 31.25 31.7708 31.25H22.3958ZM3.64583 34.375H13.0208C13.3282 34.375 13.5417 34.5885 13.5417 34.8958V36.4583C13.5417 36.681 13.3131 37.1583 12.38 37.6607C11.4468 38.1632 9.97579 38.5417 8.33333 38.5417C6.69088 38.5417 5.21985 38.1632 4.2867 37.6607C3.35356 37.1583 3.125 36.681 3.125 36.4583V34.8958C3.125 34.5885 3.33849 34.375 3.64583 34.375ZM22.3958 34.375H31.7708C32.0782 34.375 32.2917 34.5885 32.2917 34.8958V36.4583C32.2917 36.681 32.0631 37.1583 31.13 37.6607C30.1968 38.1632 28.7258 38.5417 27.0833 38.5417C25.4409 38.5417 23.9698 38.1632 23.0367 37.6607C22.1036 37.1583 21.875 36.681 21.875 36.4583V34.8958C21.875 34.5885 22.0885 34.375 22.3958 34.375Z" fill="black"/>
</svg>
