<svg width="65" height="45" viewBox="0 0 65 45" fill="none" xmlns="http://www.w3.org/2000/svg">
<path d="M3.9 0C1.76211 0 0 1.69434 0 3.75V41.25C0 43.3057 1.76211 45 3.9 45H61.1C63.2379 45 65 43.3057 65 41.25V3.75C65 1.69434 63.2379 0 61.1 0H3.9ZM3.9 2.5H61.1C61.8363 2.5 62.4 3.04199 62.4 3.75V41.25C62.4 41.958 61.8363 42.5 61.1 42.5H49.8875C47.6836 41.0889 45.1852 40.2734 43.1437 39.4531C41.0516 38.6133 39.6602 37.7783 39.2031 36.7578C39.0965 35.4639 39.0711 34.4043 39.0812 33.1641C39.2082 33.0225 39.4062 32.9346 39.5281 32.7734C39.8379 32.3633 40.1477 31.8652 40.4219 31.3281C40.884 30.415 41.1988 29.3359 41.3969 28.2422C41.7371 28.0566 42.0977 28.0322 42.3719 27.6953C42.9305 27.0117 43.3062 26.0449 43.4688 24.7266C43.6109 23.584 43.225 22.7783 42.7375 22.1484C43.2758 20.4541 43.9359 17.8076 43.7125 15.0391C43.5855 13.5059 43.1844 11.9189 42.2094 10.625C41.2852 9.39453 39.7719 8.53027 37.8625 8.20312C36.6184 6.87988 34.6684 6.25 32.3781 6.25C27.2137 6.34277 23.8215 8.4082 22.3844 11.5625C21.0234 14.5508 21.3383 18.2666 22.3031 22.1094C21.7953 22.7393 21.384 23.5547 21.5312 24.7266C21.6937 26.0449 22.0695 27.0117 22.6281 27.6953C22.9023 28.0322 23.2629 28.0615 23.6031 28.2422C23.8062 29.3408 24.1414 30.415 24.6187 31.3281C24.898 31.8652 25.1977 32.3633 25.5125 32.7734C25.6344 32.9297 25.8324 33.0225 25.9594 33.1641C25.9695 34.3896 25.9797 35.4492 25.8781 36.7188C25.4465 37.7588 24.0297 38.6035 21.8969 39.4531C19.8453 40.2734 17.3621 41.0889 15.1531 42.5H3.9C3.16367 42.5 2.6 41.958 2.6 41.25V3.75C2.6 3.04199 3.16367 2.5 3.9 2.5ZM32.3781 8.75C32.3934 8.75 32.4035 8.75 32.4187 8.75C34.582 8.75977 35.9328 9.375 36.2781 9.96094L36.6031 10.5078L37.2531 10.5859C38.7309 10.7812 39.5129 11.333 40.0969 12.1094C40.6809 12.8857 41.0109 13.9941 41.1125 15.2344C41.3156 17.7148 40.5691 20.6348 40.0969 21.9922L39.7719 22.9688L40.6656 23.4766C40.5387 23.4033 41.0109 23.6084 40.9094 24.4141C40.7824 25.4248 40.5082 25.9277 40.3406 26.1328C40.173 26.3379 40.1273 26.2939 40.1781 26.2891L39.0812 26.3672L39 27.4219C38.9035 28.3008 38.4973 29.3799 38.0656 30.2344C37.8473 30.6641 37.6492 31.0352 37.4562 31.2891C37.3395 31.4404 37.2582 31.5527 37.2125 31.6016L36.4812 31.9531V32.6953C36.4812 34.2139 36.4355 35.4492 36.6031 37.2266V37.4219L36.6844 37.5781C37.5578 39.8291 39.843 40.8789 42.1281 41.7969C42.6715 42.0166 43.1539 42.2852 43.7125 42.5H21.3281C21.8867 42.2852 22.3641 42.0166 22.9125 41.7969C25.2078 40.8789 27.4828 39.834 28.3562 37.5781L28.4375 37.4219V37.2266C28.6051 35.4492 28.5594 34.2139 28.5594 32.6953V31.9531L27.9094 31.6406C27.9145 31.6455 27.9094 31.6211 27.8687 31.6016C27.8129 31.5527 27.7012 31.4404 27.5844 31.2891C27.3863 31.0352 27.1578 30.6641 26.9344 30.2344C26.4875 29.3799 26.0965 28.291 26 27.4219L25.9187 26.4062L24.8219 26.2891C24.8676 26.2939 24.827 26.3379 24.6594 26.1328C24.4918 25.9277 24.2176 25.4248 24.0906 24.4141C23.9891 23.6084 24.4613 23.4033 24.3344 23.4766L25.1469 23.0078L24.9031 22.1094C23.8773 18.3154 23.7402 14.8682 24.7812 12.5781C25.8172 10.2979 27.8789 8.83789 32.3781 8.75Z" fill="black"/>
</svg>
