<svg width="163" height="53" viewBox="0 0 163 53" fill="none" xmlns="http://www.w3.org/2000/svg">
<path d="M6.28768 15.6426C3.18205 15.6426 1.01562 18.0664 1.01562 21.1056V46.8653C1.01562 49.8983 3.17892 52.3253 6.28455 52.3253C9.39019 52.3253 11.5566 49.8983 11.5566 46.8653V21.1056C11.5597 18.0664 9.39645 15.6426 6.28768 15.6426Z" fill="#FFFF00"/>
<path d="M6.2864 5.01359e-05C5.04294 5.02897e-05 3.8274 0.367976 2.79354 1.0573C1.75968 1.74661 0.953937 2.72636 0.478227 3.87261C0.00251623 5.01885 -0.121792 6.28011 0.121023 7.49685C0.363839 8.7136 0.962872 9.83116 1.84235 10.7082C2.72184 11.5852 3.84226 12.1823 5.06191 12.424C6.28155 12.6657 7.54564 12.541 8.69427 12.0658C9.84291 11.5906 10.8245 10.7862 11.5149 9.75438C12.2053 8.72254 12.5734 7.50959 12.5728 6.26897C12.5757 5.44465 12.4151 4.6279 12.1001 3.86581C11.7852 3.10373 11.3222 2.41136 10.7378 1.82862C10.1535 1.24588 9.45928 0.784287 8.69529 0.470452C7.9313 0.156618 7.11261 -0.00325224 6.2864 5.01359e-05Z" fill="#FFFF00"/>
<path d="M40.149 14.9712C35.6221 14.9712 32.7825 16.3861 31.092 19.0318C30.6408 18.0162 29.9007 17.1551 28.9635 16.5555C28.0263 15.9558 26.9332 15.6438 25.8199 15.6584C22.7111 15.6584 20.5479 18.0885 20.5479 21.1214V46.8655C20.5479 49.8985 22.7111 52.3254 25.8199 52.3254C28.9287 52.3254 31.092 49.8985 31.092 46.8655V30.2078C31.092 26.5657 33.2553 23.8701 36.9025 23.8701C40.5497 23.8701 42.7193 26.5657 42.7193 30.2078V46.8655C42.7193 49.8985 44.8795 52.3254 47.9914 52.3254C51.1032 52.3254 53.2603 49.8985 53.2603 46.8655V27.3747C53.2697 18.7444 47.456 14.9712 40.149 14.9712Z" fill="#FFFF00"/>
<path d="M67.5521 15.6426C64.4465 15.6426 62.2832 18.0727 62.2832 21.1056V46.8653C62.2832 49.8983 64.4465 52.3253 67.5521 52.3253C70.6578 52.3253 72.8242 49.8983 72.8242 46.8653V21.1056C72.8242 18.0664 70.6609 15.6426 67.5521 15.6426Z" fill="#FFFF00"/>
<path d="M67.552 5.01359e-05C66.3086 5.02897e-05 65.093 0.367976 64.0592 1.0573C63.0253 1.74661 62.2196 2.72636 61.7439 3.87261C61.2681 5.01885 61.1438 6.28011 61.3866 7.49685C61.6295 8.7136 62.2285 9.83116 63.108 10.7082C63.9875 11.5852 65.1079 12.1823 66.3275 12.424C67.5472 12.6657 68.8113 12.541 69.9599 12.0658C71.1085 11.5906 72.0901 10.7862 72.7805 9.75438C73.4709 8.72254 73.839 7.50959 73.8384 6.26897C73.8413 5.44465 73.6807 4.6279 73.3658 3.86581C73.0508 3.10373 72.5878 2.41136 72.0035 1.82862C71.4191 1.24588 70.7249 0.784287 69.9609 0.470452C69.1969 0.156618 68.3782 -0.00325224 67.552 5.01359e-05Z" fill="#FFFF00"/>
<path d="M97.9792 16.0487H95.0708V9.17696C95.0708 6.14402 92.9075 3.71704 89.8019 3.71704C86.6963 3.71704 84.5298 6.14402 84.5298 9.17696V16.0487H83.312C79.9309 16.0487 77.7676 17.5324 77.7676 20.9027C77.7676 24.273 79.9309 25.7598 83.312 25.7598H84.5298V46.8654C84.5298 49.8984 86.6931 52.3254 89.8019 52.3254C92.9107 52.3254 95.0708 49.8984 95.0708 46.8654V25.7598H97.9792C101.357 25.7598 103.521 24.273 103.521 20.9027C103.521 17.5324 101.357 16.0487 97.9792 16.0487Z" fill="#FFFF00"/>
<path d="M113.736 15.6426C110.63 15.6426 108.467 18.0727 108.467 21.1056V46.8653C108.467 49.8983 110.63 52.3253 113.736 52.3253C116.841 52.3253 119.008 49.8983 119.008 46.8653V21.1056C119.008 18.0664 116.851 15.6426 113.736 15.6426Z" fill="#FFFF00"/>
<path d="M113.735 6.34308e-05C112.492 0.00068136 111.277 0.369135 110.243 1.05883C109.21 1.74852 108.405 2.72848 107.929 3.87478C107.454 5.02109 107.33 6.28225 107.574 7.49878C107.817 8.71532 108.416 9.83259 109.296 10.7093C110.175 11.586 111.296 12.1828 112.515 12.4242C113.735 12.6656 114.999 12.5408 116.147 12.0655C117.296 11.5902 118.277 10.7858 118.967 9.75406C119.657 8.72229 120.026 7.50947 120.025 6.26898C120.028 5.4444 119.867 4.6274 119.552 3.8651C119.237 3.10281 118.774 2.4103 118.189 1.82752C117.604 1.24474 116.91 0.783214 116.145 0.469565C115.381 0.155915 114.562 -0.0036523 113.735 6.34308e-05Z" fill="#FFFF00"/>
<path d="M155.517 25.8252C156.893 24.6461 158.002 23.1886 158.771 21.5494C159.539 19.9102 159.95 18.1267 159.975 16.3172C159.975 10.0702 156.394 6.00958 151.385 4.10423L147.368 10.4825H152.743L140.061 25.5098L144.713 14.3463H140.061L145.815 2.92978C145.33 2.89855 144.857 2.82983 144.366 2.82983C135.985 2.82983 128.753 7.41829 128.753 16.3172C128.779 18.127 129.19 19.9106 129.959 21.5498C130.728 23.189 131.838 24.6464 133.214 25.8252C131.216 27.0118 129.564 28.7013 128.426 30.7246C127.288 32.7479 126.702 35.034 126.727 37.3542C126.727 46.1219 133.687 52.9999 144.366 52.9999C155.044 52.9999 162.004 46.1282 162.004 37.3542C162.029 35.0341 161.443 32.7482 160.304 30.725C159.166 28.7018 157.515 27.0123 155.517 25.8252ZM144.56 42.7672C143.317 42.7666 142.101 42.3983 141.068 41.7087C140.035 41.0191 139.229 40.0394 138.754 38.8933C138.279 37.7471 138.155 36.4861 138.398 35.2697C138.641 34.0532 139.239 32.9359 140.119 32.0591C140.998 31.1823 142.118 30.5852 143.338 30.3435C144.557 30.1017 145.821 30.2261 146.969 30.7009C148.118 31.1757 149.099 31.9796 149.79 33.011C150.481 34.0423 150.849 35.2548 150.849 36.4952C150.857 37.3209 150.699 38.1399 150.386 38.9043C150.073 39.6686 149.61 40.363 149.025 40.9469C148.439 41.5308 147.743 41.9926 146.977 42.3051C146.211 42.6176 145.39 42.7747 144.563 42.7672H144.56Z" fill="#FFFF00"/>
</svg>
